{
.appVersion = "1352";
DisplayStrings = (
An,
abcdefghijklmnopqrstuvwxyz,
ABCDEFGHIJKLMNOPQRSTUVWXYZ,
"/commaaccentcomb G/Gcommaaccent/Kcommaaccent/Lcommaaccent/Ncommaaccent/Rcommaaccent/Scommaaccent/Tcommaaccent/kcommaaccent/lcommaaccent/ncommaaccent/rcommaaccent/scommaaccent/tcommaaccent",
"",
"/nbspace",
"/.null"
);
copyright = "Copyright 2014 The Alumni Sans Collegiate Project Authors (https://github.com/googlefonts/allumini-sans-collegiate)";
customParameters = (
{
name = licenseURL;
value = "https://scripts.sil.org/OFL";
},
{
name = license;
value = "This Font Software is licensed under the SIL Open Font License, Version 1.1. This license is available with a FAQ at: https://scripts.sil.org/OFL";
},
{
name = vendorID;
value = GOOG;
},
{
name = fsType;
value = (
);
},
{
name = glyphOrder;
value = (
.notdef,
.null,
CR,
space,
nbspace
);
},
{
name = "Use Typo Metrics";
value = 1;
}
);
date = "2021-11-22 03:34:52 +0000";
designer = "Robert E. Leuschke";
designerURL = www.typesetit.com;
familyName = "Alumni Sans Collegiate";
featurePrefixes = (
{
automatic = 1;
code = "languagesystem DFLT dflt;\012\012languagesystem latn dflt;\012languagesystem latn AZE;\012languagesystem latn CRT;\012languagesystem latn KAZ;\012languagesystem latn TAT;\012languagesystem latn TRK;\012languagesystem latn ROM;\012languagesystem latn MOL;\012languagesystem latn CAT;\012";
name = Languagesystems;
}
);
features = (
{
automatic = 1;
code = "feature locl;\012feature subs;\012feature sinf;\012feature sups;\012feature numr;\012feature dnom;\012feature frac;\012feature ordn;\012";
name = aalt;
},
{
automatic = 1;

glyphs = (
{
glyphname = .notdef;
lastChange = "2021-11-22 23:10:22 +0000";
layers = (
{
layerId = "04A772B0-FA71-43EE-BB43-CAC7F0EBD631";
paths = (
{
closed = 1;
nodes = (
"477 0 LINE",
"486 8 LINE",
"486 621 LINE",
"477 630 LINE",
"56 630 LINE",
"48 620 LINE",
"48 9 LINE",
"56 0 LINE"
);
},
{
closed = 1;
nodes = (
"152 150 LINE",
"242 316 LINE",
"152 479 LINE",
"171 514 LINE",
"261 350 LINE",
"352 514 LINE",
"371 479 LINE",
"281 314 LINE",
"371 150 LINE",
"352 116 LINE",
"261 279 LINE",
"171 116 LINE"
);
},
{
closed = 1;
nodes = (
"65 613 LINE",
"469 613 LINE",
"469 16 LINE",
"65 16 LINE"
);
},
{
closed = 1;
nodes = (
"435 49 LINE",
"435 577 LINE",
"100 577 LINE",
"100 49 LINE"
);
}
);
userData = {
assembly = "SVTCA[0]	/* SetFreedomAndProjectionVectorToAxis */\012PUSHW[ ]	/* 1 value pushed */\0122 \012MDAP[1]	/* MoveDirectAbsPt */\012PUSHW[ ]	/* 1 value pushed */\0120 \012RCVT[ ]	/* ReadCVT */\012IF[ ]	/* If */\012PUSHW[ ]	/* 1 value pushed */\0126 \012MDAP[1]	/* MoveDirectAbsPt */\012ELSE[ ]	/* Else */\012PUSHW[ ]	/* 2 values pushed */\0126 7 \012MIAP[0]	/* MoveIndirectAbsPt */\012EIF[ ]	/* EndIf */\012PUSHW[ ]	/* 3 values pushed */\01216 6 2 \012SRP1[ ]	/* SetRefPoint1 */\012SRP2[ ]	/* SetRefPoint2 */\012IP[ ]	/* InterpolatePts */\012PUSHW[ ]	/* 3 values pushed */\01217 6 2 \012SRP1[ ]	/* SetRefPoint1 */\012SRP2[ ]	/* SetRefPoint2 */\012IP[ ]	/* InterpolatePts */\012PUSHW[ ]	/* 3 values pushed */\01218 6 2 \012SRP1[ ]	/* SetRefPoint1 */\012SRP2[ ]	/* SetRefPoint2 */\012IP[ ]	/* InterpolatePts */\012PUSHW[ ]	/* 3 values pushed */\01222 6 2 \012SRP1[ ]	/* SetRefPoint1 */\012SRP2[ ]	/* SetRefPoint2 */\012IP[ ]	/* InterpolatePts */\012PUSHW[ ]	/* 3 values pushed */\01223 6 2 \012SRP1[ ]	/* SetRefPoint1 */\012SRP2[ ]	/* SetRefPoint2 */\012IP[ ]	/* InterpolatePts */\012PUSHW[ ]	/* 3 values pushed */\01224 6 2 \012SRP1[ ]	/* SetRefPoint1 */\012SRP2[ ]	/* SetRefPoint2 */\012IP[ ]	/* InterpolatePts */\012IUP[0]	/* InterpolateUntPts */\012IUP[1]	/* InterpolateUntPts */";
};
width = 534;
}
);
note = .notdef;
},
{
glyphname = A;
lastChange = "2021-11-22 23:10:22 +0000";
layers = (
{
layerId = "04A772B0-FA71-43EE-BB43-CAC7F0EBD631";
paths = (
{
closed = 1;
nodes = (
"416 0 LINE",
"336 591 LINE",
"86 591 LINE",
"4 0 LINE"
);
},
{
closed = 1;
nodes = (
"214 184 LINE",
"207 291 LINE",
"200 184 LINE"
);
},
{
closed = 1;
nodes = (
"101 573 LINE",
"321 573 LINE",
"396 18 LINE",
"222 18 LINE",
"214 96 LINE",
"199 96 LINE",
"193 18 LINE",
"24 18 LINE"
);
},
{
closed = 1;
nodes = (
"185 27 LINE",
"190 105 LINE",
"222 105 LINE",
"229 27 LINE",
"385 27 LINE",
"313 564 LINE",
"108 564 LINE",
"34 27 LINE"
);
},
{
closed = 1;
nodes = (
"207 450 LINE",
"222 175 LINE",
"191 175 LINE"
);
}
);
userData = {
assembly = "SVTCA[0]	/* SetFreedomAndProjectionVectorToAxis */\012PUSHW[ ]	/* 4 values pushed */\0129 4 2 4 \012CALL[ ]	/* CallFunction */\012PUSHW[ ]	/* 1 value pushed */\0129 \012SRP0[ ]	/* SetRefPoint0 */\012PUSHW[ ]	/* 2 values pushed */\0123 2 \012MIRP[10100]	/* MoveIndirectRelPt */\012PUSHW[ ]	/* 1 value pushed */\0122 \012SRP0[ ]	/* SetRefPoint0 */\012PUSHW[ ]	/* 1 value pushed */\0125 \012MDRP[10000]	/* MoveDirectRelPt */\012IUP[0]	/* InterpolateUntPts */\012IUP[1]	/* InterpolateUntPts */";
};
width = 427;
}
);
note = A;
rightKerningGroup = parenright;
unicode = 0041;
},
{
color = 11;
glyphname = Aacute;
lastChange = "2021-11-22 23:10:22 +0000";
layers = (
{
layerId = "04A772B0-FA71-43EE-BB43-CAC7F0EBD631";
paths = (
{
closed = 1;
nodes = (
"416 0 LINE",
"336 591 LINE",
"86 591 LINE",
"4 0 LINE"
);
},
{
closed = 1;
nodes = (
"214 184 LINE",
"210.5 233 LINE SMOOTH",
"210.007 234.971 OFFCURVE",
"207.797 273.475 OFFCURVE",
"207 291 CURVE",
"200 184 LINE"
);
},
{
closed = 1;
nodes = (
"101 573 LINE",
"321 573 LINE",
"396 18 LINE",
"222 18 LINE",
"214 96 LINE",
"199 96 LINE",
"193 18 LINE",
"24 18 LINE"
);
},
{
closed = 1;
nodes = (
"185 27 LINE",
"190 105 LINE",
"222 105 LINE",
"229 27 LINE",
"385 27 LINE",
"313 564 LINE",
"108 564 LINE",
"34 27 LINE"
);
},
{
closed = 1;
nodes = (
"207 450 LINE",
"222 175 LINE",
"191 175 LINE"
);
},
{
closed = 1;
nodes = (
"186 737 LINE",
"312 737 LINE",
"197 658 LINE",
"100 658 LINE"
);
},
{
closed = 1;
nodes = (
"194 665 LINE",
"291 731 LINE",
"189 731 LINE",
"117 665 LINE"
);
},
{
closed = 1;
nodes = (
"203 646 LINE",
"356 750 LINE",
"179 750 LINE",
"65 646 LINE"
);
}
);
userData = {
assembly = "PUSHW[ ]	/* 4 values pushed */\01235 5 33 4 \012CALL[ ]	/* CallFunction */\012PUSHW[ ]	/* 3 values pushed */\01210 33 35 \012SRP1[ ]	/* SetRefPoint1 */\012SRP2[ ]	/* SetRefPoint2 */\012IP[ ]	/* InterpolatePts */\012PUSHW[ ]	/* 3 values pushed */\01211 33 35 \012SRP1[ ]	/* SetRefPoint1 */\012SRP2[ ]	/* SetRefPoint2 */\012IP[ ]	/* InterpolatePts */\012SVTCA[0]	/* SetFreedomAndProjectionVectorToAxis */\012PUSHW[ ]	/* 4 values pushed */\0129 4 2 4 \012CALL[ ]	/* CallFunction */\012PUSHW[ ]	/* 4 values pushed */\01234 2 32 4 \012CALL[ ]	/* CallFunction */\012PUSHW[ ]	/* 1 value pushed */\0129 \012SRP0[ ]	/* SetRefPoint0 */\012PUSHW[ ]	/* 2 values pushed */\0123 2 \012MIRP[10100]	/* MoveIndirectRelPt */\012PUSHW[ ]	/* 1 value pushed */\0122 \012SRP0[ ]	/* SetRefPoint0 */\012PUSHW[ ]	/* 1 value pushed */\0125 \012MDRP[10000]	/* MoveDirectRelPt */\012PUSHW[ ]	/* 1 value pushed */\01234 \012SRP0[ ]	/* SetRefPoint0 */\012PUSHW[ ]	/* 1 value pushed */\01236 \012MDRP[10000]	/* MoveDirectRelPt */\012PUSHW[ ]	/* 1 value pushed */\01236 \012MDAP[1]	/* MoveDirectAbsPt */\012PUSHW[ ]	/* 1 value pushed */\01232 \012SRP0[ ]	/* SetRefPoint0 */\012PUSHW[ ]	/* 1 value pushed */\01238 \012MDRP[10000]	/* MoveDirectRelPt */\012PUSHW[ ]	/* 1 value pushed */\01238 \012MDAP[1]	/* MoveDirectAbsPt */\012IUP[0]	/* InterpolateUntPts */\012IUP[1]	/* InterpolateUntPts */";
};
width = 427;
}
);
note = Aacute;
unicode = 00C1;
},
{
color = 11;
glyphname = Acircumflex;
lastChange = "2021-11-22 23:10:22 +0000";
layers = (
{
layerId = "04A772B0-FA71-43EE-BB43-CAC7F0EBD631";
paths = (
{
closed = 1;
nodes = (
"416 0 LINE",
"336 591 LINE",
"86 591 LINE",
"4 0 LINE"
);
},
{
closed = 1;
nodes = (
"214 184 LINE",
"210.5 233 LINE SMOOTH",
"210.007 234.971 OFFCURVE",
"207.797 273.475 OFFCURVE",
"207 291 CURVE",
"200 184 LINE"
);
},
{
closed = 1;
nodes = (
"101 573 LINE",
"321 573 LINE",
"396 18 LINE",
"222 18 LINE",
"214 96 LINE",
"199 96 LINE",
"193 18 LINE",
"24 18 LINE"
);
},
{
closed = 1;
nodes = (
"185 27 LINE",
"190 105 LINE",
"222 105 LINE",
"229 27 LINE",
"385 27 LINE",
"313 564 LINE",
"108 564 LINE",
"34 27 LINE"
);
},
{
closed = 1;
nodes = (
"207 450 LINE",
"222 175 LINE",
"191 175 LINE"
);
},
{
closed = 1;
nodes = (
"180 633 LINE",
"212 665 LINE",
"243 633 LINE",
"392 633 LINE",
"255 750 LINE",
"169 750 LINE",
"33 633 LINE"
);
},
{
closed = 1;
nodes = (
"177 737 LINE",
"248 737 LINE",
"355 646 LINE",
"251 646 LINE",
"212 688 LINE",
"172 646 LINE",
"71 646 LINE"
);
},
{
closed = 1;
nodes = (
"168 653 LINE",
"212 699 LINE",
"255 653 LINE",
"336 653 LINE",
"244 730 LINE",
"180 730 LINE",
"90 653 LINE"
);
}
);
userData = {
assembly = "PUSHW[ ]	/* 4 values pushed */\01228 5 31 4 \012CALL[ ]	/* CallFunction */\012PUSHW[ ]	/* 3 values pushed */\01210 31 28 \012SRP1[ ]	/* SetRefPoint1 */\012SRP2[ ]	/* SetRefPoint2 */\012IP[ ]	/* InterpolatePts */\012PUSHW[ ]	/* 3 values pushed */\01211 31 28 \012SRP1[ ]	/* SetRefPoint1 */\012SRP2[ ]	/* SetRefPoint2 */\012IP[ ]	/* InterpolatePts */\012PUSHW[ ]	/* 3 values pushed */\01237 31 28 \012SRP1[ ]	/* SetRefPoint1 */\012SRP2[ ]	/* SetRefPoint2 */\012IP[ ]	/* InterpolatePts */\012PUSHW[ ]	/* 1 value pushed */\01228 \012SRP0[ ]	/* SetRefPoint0 */\012PUSHW[ ]	/* 1 value pushed */\01254 \012MDRP[11100]	/* MoveDirectRelPt */\012SVTCA[0]	/* SetFreedomAndProjectionVectorToAxis */\012PUSHW[ ]	/* 4 values pushed */\0129 4 2 4 \012CALL[ ]	/* CallFunction */\012PUSHW[ ]	/* 4 values pushed */\01232 2 34 4 \012CALL[ ]	/* CallFunction */\012PUSHW[ ]	/* 1 value pushed */\0129 \012SRP0[ ]	/* SetRefPoint0 */\012PUSHW[ ]	/* 2 values pushed */\0123 2 \012MIRP[10100]	/* MoveIndirectRelPt */\012PUSHW[ ]	/* 1 value pushed */\0122 \012SRP0[ ]	/* SetRefPoint0 */\012PUSHW[ ]	/* 1 value pushed */\0125 \012MDRP[10000]	/* MoveDirectRelPt */\012PUSHW[ ]	/* 1 value pushed */\01234 \012SRP0[ ]	/* SetRefPoint0 */\012PUSHW[ ]	/* 1 value pushed */\01236 \012MDRP[10000]	/* MoveDirectRelPt */\012PUSHW[ ]	/* 1 value pushed */\01232 \012SRP0[ ]	/* SetRefPoint0 */\012PUSHW[ ]	/* 1 value pushed */\01239 \012MDRP[10000]	/* MoveDirectRelPt */\012PUSHW[ ]	/* 1 value pushed */\01239 \012MDAP[1]	/* MoveDirectAbsPt */\012PUSHW[ ]	/* 1 value pushed */\01234 \012SRP0[ ]	/* SetRefPoint0 */\012PUSHW[ ]	/* 1 value pushed */\01240 \012MDRP[10000]	/* MoveDirectRelPt */\012PUSHW[ ]	/* 1 value pushed */\01240 \012MDAP[1]	/* MoveDirectAbsPt */\012PUSHW[ ]	/* 1 value pushed */\01234 \012SRP0[ ]	/* SetRefPoint0 */\012PUSHW[ ]	/* 1 value pushed */\01243 \012MDRP[10000]	/* MoveDirectRelPt */\012PUSHW[ ]	/* 1 value pushed */\01243 \012MDAP[1]	/* MoveDirectAbsPt */\012IUP[0]	/* InterpolateUntPts */\012IUP[1]	/* InterpolateUntPts */";
};
width = 427;
}
);
note = Acircumflex;
unicode = 00C2;
},
{
color = 11;
glyphname = Adieresis;
lastChange = "2021-11-22 23:10:22 +0000";
layers = (
{
layerId = "04A772B0-FA71-43EE-BB43-CAC7F0EBD631";
paths = (
{
closed = 1;
nodes = (
"416 0 LINE",
"336 591 LINE",
"86 591 LINE",
"4 0 LINE"
);
},
{
closed = 1;
nodes = (
"214 184 LINE",
"210.5 233 LINE SMOOTH",
"210.007 234.971 OFFCURVE",
"207.797 273.475 OFFCURVE",
"207 291 CURVE",
"200 184 LINE"
);
},
{
closed = 1;
nodes = (
"101 573 LINE",
"321 573 LINE",
"396 18 LINE",
"222 18 LINE",
"214 96 LINE",
"199 96 LINE",
"193 18 LINE",
"24 18 LINE"
);
},
{
closed = 1;
nodes = (
"185 27 LINE",
"190 105 LINE",
"222 105 LINE",
"229 27 LINE",
"385 27 LINE",
"313 564 LINE",
"108 564 LINE",
"34 27 LINE"
);
},
{
closed = 1;
nodes = (
"207 450 LINE",
"222 175 LINE",
"191 175 LINE"
);
},
{
closed = 1;
nodes = (
"183.333 644 OFFCURVE",
"209 667.667 OFFCURVE",
"209 697 CURVE SMOOTH",
"209 725 OFFCURVE",
"183.333 750 OFFCURVE",
"154 750 CURVE SMOOTH",
"123.333 750 OFFCURVE",
"102 725 OFFCURVE",
"102 697 CURVE SMOOTH",
"102 667.667 OFFCURVE",
"123.333 644 OFFCURVE",
"154 644 CURVE SMOOTH"
);
},
{
closed = 1;
nodes = (
"131.333 658 OFFCURVE",
"115 675.667 OFFCURVE",
"115 697 CURVE SMOOTH",
"115 717 OFFCURVE",
"131.333 735 OFFCURVE",
"154 735 CURVE SMOOTH",
"176.667 735 OFFCURVE",
"195 717 OFFCURVE",
"195 697 CURVE SMOOTH",
"195 675.667 OFFCURVE",
"176.667 658 OFFCURVE",
"154 658 CURVE SMOOTH"
);
},
{
closed = 1;
nodes = (
"172.667 666 OFFCURVE",
"189 679.667 OFFCURVE",
"189 697 CURVE SMOOTH",
"189 713 OFFCURVE",
"172.667 728 OFFCURVE",
"154 728 CURVE SMOOTH",
"136.667 728 OFFCURVE",
"124 713 OFFCURVE",
"124 697 CURVE SMOOTH",
"124 679.667 OFFCURVE",
"136.667 666 OFFCURVE",
"154 666 CURVE SMOOTH"
);
},
{
closed = 1;
nodes = (
"302.667 644 OFFCURVE",
"326 667.667 OFFCURVE",
"326 697 CURVE SMOOTH",
"326 725 OFFCURVE",
"302.667 750 OFFCURVE",
"272 750 CURVE SMOOTH",
"241.333 750 OFFCURVE",
"219 725 OFFCURVE",
"219 697 CURVE SMOOTH",
"219 667.667 OFFCURVE",
"241.333 644 OFFCURVE",
"272 644 CURVE SMOOTH"
);
},
{
closed = 1;
nodes = (
"249.333 658 OFFCURVE",
"233 675.667 OFFCURVE",
"233 697 CURVE SMOOTH",
"233 717 OFFCURVE",
"249.333 735 OFFCURVE",
"272 735 CURVE SMOOTH",
"294.667 735 OFFCURVE",
"312 717 OFFCURVE",
"312 697 CURVE SMOOTH",
"312 675.667 OFFCURVE",
"294.667 658 OFFCURVE",
"272 658 CURVE SMOOTH"
);
},
{
closed = 1;
nodes = (
"290.667 666 OFFCURVE",
"305 679.667 OFFCURVE",
"305 697 CURVE SMOOTH",
"305 713 OFFCURVE",
"290.667 728 OFFCURVE",
"272 728 CURVE SMOOTH",
"253.333 728 OFFCURVE",
"240 713 OFFCURVE",
"240 697 CURVE SMOOTH",
"240 679.667 OFFCURVE",
"253.333 666 OFFCURVE",
"272 666 CURVE SMOOTH"
);
}
);
userData = {
assembly = "PUSHW[ ]	/* 4 values pushed */\01250 6 7 4 \012CALL[ ]	/* CallFunction */\012PUSHW[ ]	/* 4 values pushed */\0120 6 56 4 \012CALL[ ]	/* CallFunction */\012PUSHW[ ]	/* 1 value pushed */\01256 \012SRP0[ ]	/* SetRefPoint0 */\012PUSHW[ ]	/* 1 value pushed */\0122 \012MDRP[10000]	/* MoveDirectRelPt */\012PUSHW[ ]	/* 1 value pushed */\0122 \012MDAP[1]	/* MoveDirectAbsPt */\012PUSHW[ ]	/* 1 value pushed */\01250 \012SRP0[ ]	/* SetRefPoint0 */\012PUSHW[ ]	/* 1 value pushed */\0124 \012MDRP[10000]	/* MoveDirectRelPt */\012PUSHW[ ]	/* 1 value pushed */\0124 \012MDAP[1]	/* MoveDirectAbsPt */\012PUSHW[ ]	/* 1 value pushed */\01250 \012SRP0[ ]	/* SetRefPoint0 */\012PUSHW[ ]	/* 1 value pushed */\0128 \012MDRP[10000]	/* MoveDirectRelPt */\012PUSHW[ ]	/* 1 value pushed */\0128 \012MDAP[1]	/* MoveDirectAbsPt */\012PUSHW[ ]	/* 1 value pushed */\0127 \012SRP0[ ]	/* SetRefPoint0 */\012PUSHW[ ]	/* 1 value pushed */\01220 \012MDRP[10000]	/* MoveDirectRelPt */\012PUSHW[ ]	/* 1 value pushed */\01220 \012MDAP[1]	/* MoveDirectAbsPt */\012PUSHW[ ]	/* 3 values pushed */\01210 20 0 \012SRP1[ ]	/* SetRefPoint1 */\012SRP2[ ]	/* SetRefPoint2 */\012IP[ ]	/* InterpolatePts */\012PUSHW[ ]	/* 3 values pushed */\01211 20 0 \012SRP1[ ]	/* SetRefPoint1 */\012SRP2[ ]	/* SetRefPoint2 */\012IP[ ]	/* InterpolatePts */\012PUSHW[ ]	/* 1 value pushed */\01250 \012SRP0[ ]	/* SetRefPoint0 */\012PUSHW[ ]	/* 1 value pushed */\01222 \012MDRP[10000]	/* MoveDirectRelPt */\012PUSHW[ ]	/* 1 value pushed */\01222 \012MDAP[1]	/* MoveDirectAbsPt */\012PUSHW[ ]	/* 1 value pushed */\01256 \012SRP0[ ]	/* SetRefPoint0 */\012PUSHW[ ]	/* 1 value pushed */\01232 \012MDRP[10000]	/* MoveDirectRelPt */\012PUSHW[ ]	/* 1 value pushed */\01232 \012MDAP[1]	/* MoveDirectAbsPt */\012PUSHW[ ]	/* 1 value pushed */\0120 \012SRP0[ ]	/* SetRefPoint0 */\012PUSHW[ ]	/* 1 value pushed */\01262 \012MDRP[10000]	/* MoveDirectRelPt */\012PUSHW[ ]	/* 1 value pushed */\01262 \012MDAP[1]	/* MoveDirectAbsPt */\012PUSHW[ ]	/* 1 value pushed */\0127 \012SRP0[ ]	/* SetRefPoint0 */\012PUSHW[ ]	/* 1 value pushed */\01268 \012MDRP[10000]	/* MoveDirectRelPt */\012PUSHW[ ]	/* 1 value pushed */\01268 \012MDAP[1]	/* MoveDirectAbsPt */\012PUSHW[ ]	/* 1 value pushed */\01250 \012SRP0[ ]	/* SetRefPoint0 */\012PUSHW[ ]	/* 1 value pushed */\01274 \012MDRP[10000]	/* MoveDirectRelPt */\012PUSHW[ ]	/* 1 value pushed */\01274 \012MDAP[1]	/* MoveDirectAbsPt */\012PUSHW[ ]	/* 1 value pushed */\0127 \012SRP0[ ]	/* SetRefPoint0 */\012PUSHW[ ]	/* 1 value pushed */\01280 \012MDRP[10000]	/* MoveDirectRelPt */\012PUSHW[ ]	/* 1 value pushed */\01280 \012MDAP[1]	/* MoveDirectAbsPt */\012SVTCA[0]	/* SetFreedomAndProjectionVectorToAxis */\012PUSHW[ ]	/* 4 values pushed */\0129 4 2 4 \012CALL[ ]	/* CallFunction */\012PUSHW[ ]	/* 1 value pushed */\0129 \012SRP0[ ]	/* SetRefPoint0 */\012PUSHW[ ]	/* 2 values pushed */\0123 2 \012MIRP[10100]	/* MoveIndirectRelPt */\012PUSHW[ ]	/* 1 value pushed */\0122 \012SRP0[ ]	/* SetRefPoint0 */\012PUSHW[ ]	/* 1 value pushed */\0125 \012MDRP[10000]	/* MoveDirectRelPt */\012IUP[0]	/* InterpolateUntPts */\012IUP[1]	/* InterpolateUntPts */";
};
width = 427;
}
);
note = Adieresis;
unicode = 00C4;
},
{
color = 11;
glyphname = Agrave;
lastChange = "2021-11-22 23:10:22 +0000";
layers = (
{
layerId = "04A772B0-FA71-43EE-BB43-CAC7F0EBD631";
paths = (
{
closed = 1;
nodes = (
"416 0 LINE",
"336 591 LINE",
"86 591 LINE",
"4 0 LINE"
);
},
{
closed = 1;
nodes = (
"214 184 LINE",
"210.5 233 LINE SMOOTH",
"210.007 234.971 OFFCURVE",
"207.797 273.475 OFFCURVE",
"207 291 CURVE",
"200 184 LINE"
);
},
{
closed = 1;
nodes = (
"101 573 LINE",
"321 573 LINE",
"396 18 LINE",
"222 18 LINE",
"214 96 LINE",
"199 96 LINE",
"193 18 LINE",
"24 18 LINE"
);
},
{
closed = 1;
nodes = (
"185 27 LINE",
"190 105 LINE",
"222 105 LINE",
"229 27 LINE",
"385 27 LINE",
"313 564 LINE",
"108 564 LINE",
"34 27 LINE"
);
},
{
closed = 1;
nodes = (
"207 450 LINE",
"222 175 LINE",
"191 175 LINE"
);
},
{
closed = 1;
nodes = (
"337 645 LINE",
"223 749 LINE",
"46 749 LINE",
"199 645 LINE"
);
},
{
closed = 1;
nodes = (
"89 736 LINE",
"216 736 LINE",
"302 657 LINE",
"205 657 LINE"
);
},
{
closed = 1;
nodes = (
"285 664 LINE",
"213 730 LINE",
"111 730 LINE",
"208 664 LINE"
);
}
);
userData = {
assembly = "PUSHW[ ]	/* 4 values pushed */\01234 5 32 4 \012CALL[ ]	/* CallFunction */\012PUSHW[ ]	/* 1 value pushed */\01232 \012SRP0[ ]	/* SetRefPoint0 */\012PUSHW[ ]	/* 1 value pushed */\0127 \012MDRP[10000]	/* MoveDirectRelPt */\012PUSHW[ ]	/* 1 value pushed */\0127 \012MDAP[1]	/* MoveDirectAbsPt */\012PUSHW[ ]	/* 3 values pushed */\01210 32 34 \012SRP1[ ]	/* SetRefPoint1 */\012SRP2[ ]	/* SetRefPoint2 */\012IP[ ]	/* InterpolatePts */\012PUSHW[ ]	/* 3 values pushed */\01211 32 34 \012SRP1[ ]	/* SetRefPoint1 */\012SRP2[ ]	/* SetRefPoint2 */\012IP[ ]	/* InterpolatePts */\012SVTCA[0]	/* SetFreedomAndProjectionVectorToAxis */\012PUSHW[ ]	/* 4 values pushed */\0129 4 2 4 \012CALL[ ]	/* CallFunction */\012PUSHW[ ]	/* 4 values pushed */\01233 2 35 4 \012CALL[ ]	/* CallFunction */\012PUSHW[ ]	/* 1 value pushed */\0129 \012SRP0[ ]	/* SetRefPoint0 */\012PUSHW[ ]	/* 2 values pushed */\0123 2 \012MIRP[10100]	/* MoveIndirectRelPt */\012PUSHW[ ]	/* 1 value pushed */\0122 \012SRP0[ ]	/* SetRefPoint0 */\012PUSHW[ ]	/* 1 value pushed */\0125 \012MDRP[10000]	/* MoveDirectRelPt */\012PUSHW[ ]	/* 1 value pushed */\01235 \012SRP0[ ]	/* SetRefPoint0 */\012PUSHW[ ]	/* 1 value pushed */\01236 \012MDRP[10000]	/* MoveDirectRelPt */\012PUSHW[ ]	/* 1 value pushed */\01236 \012MDAP[1]	/* MoveDirectAbsPt */\012PUSHW[ ]	/* 1 value pushed */\01233 \012SRP0[ ]	/* SetRefPoint0 */\012PUSHW[ ]	/* 1 value pushed */\01238 \012MDRP[10000]	/* MoveDirectRelPt */\012PUSHW[ ]	/* 1 value pushed */\01238 \012MDAP[1]	/* MoveDirectAbsPt */\012IUP[0]	/* InterpolateUntPts */\012IUP[1]	/* InterpolateUntPts */";
};
width = 427;
}
);
note = Agrave;
unicode = 00C0;
},
{
color = 11;
glyphname = Amacron;
lastChange = "2021-11-22 23:10:22 +0000";
layers = (
{
layerId = "04A772B0-FA71-43EE-BB43-CAC7F0EBD631";
paths = (
{
closed = 1;
nodes = (
"416 0 LINE",
"336 591 LINE",
"86 591 LINE",
"4 0 LINE"
);
},
{
closed = 1;
nodes = (
"214 184 LINE",
"210.5 233 LINE SMOOTH",
"210.007 234.971 OFFCURVE",
"207.797 273.475 OFFCURVE",
"207 291 CURVE",
"200 184 LINE"
);
},
{
closed = 1;
nodes = (
"101 573 LINE",
"321 573 LINE",
"396 18 LINE",
"222 18 LINE",
"214 96 LINE",
"199 96 LINE",
"193 18 LINE",
"24 18 LINE"
);
},
{
closed = 1;
nodes = (
"185 27 LINE",
"190 105 LINE",
"222 105 LINE",
"229 27 LINE",
"385 27 LINE",
"313 564 LINE",
"108 564 LINE",
"34 27 LINE"
);
},
{
closed = 1;
nodes = (
"207 450 LINE",
"222 175 LINE",
"191 175 LINE"
);
},
{
closed = 1;
nodes = (
"318 644 LINE",
"318 714 LINE",
"100 714 LINE",
"100 644 LINE"
);
},
{
closed = 1;
nodes = (
"116 703 LINE",
"302 703 LINE",
"302 654 LINE",
"116 654 LINE"
);
},
{
closed = 1;
nodes = (
"294 660 LINE",
"294 697 LINE",
"123 697 LINE",
"123 660 LINE"
);
}
);
userData = {
assembly = "PUSHW[ ]	/* 4 values pushed */\01237 5 36 4 \012CALL[ ]	/* CallFunction */\012PUSHW[ ]	/* 3 values pushed */\01210 36 37 \012SRP1[ ]	/* SetRefPoint1 */\012SRP2[ ]	/* SetRefPoint2 */\012IP[ ]	/* InterpolatePts */\012PUSHW[ ]	/* 3 values pushed */\01211 36 37 \012SRP1[ ]	/* SetRefPoint1 */\012SRP2[ ]	/* SetRefPoint2 */\012IP[ ]	/* InterpolatePts */\012PUSHW[ ]	/* 1 value pushed */\01236 \012SRP0[ ]	/* SetRefPoint0 */\012PUSHW[ ]	/* 1 value pushed */\01232 \012MDRP[10000]	/* MoveDirectRelPt */\012PUSHW[ ]	/* 1 value pushed */\01232 \012MDAP[1]	/* MoveDirectAbsPt */\012PUSHW[ ]	/* 1 value pushed */\01236 \012SRP0[ ]	/* SetRefPoint0 */\012PUSHW[ ]	/* 2 values pushed */\01233 5 \012MIRP[10100]	/* MoveIndirectRelPt */\012SVTCA[0]	/* SetFreedomAndProjectionVectorToAxis */\012PUSHW[ ]	/* 1 value pushed */\0120 \012MDAP[1]	/* MoveDirectAbsPt */\012PUSHW[ ]	/* 4 values pushed */\0129 4 2 4 \012CALL[ ]	/* CallFunction */\012PUSHW[ ]	/* 3 values pushed */\01233 34 3 \012CALL[ ]	/* CallFunction */\012PUSHW[ ]	/* 1 value pushed */\0129 \012SRP0[ ]	/* SetRefPoint0 */\012PUSHW[ ]	/* 2 values pushed */\0123 2 \012MIRP[10100]	/* MoveIndirectRelPt */\012PUSHW[ ]	/* 1 value pushed */\0122 \012SRP0[ ]	/* SetRefPoint0 */\012PUSHW[ ]	/* 1 value pushed */\0125 \012MDRP[10000]	/* MoveDirectRelPt */\012PUSHW[ ]	/* 1 value pushed */\01234 \012SRP0[ ]	/* SetRefPoint0 */\012PUSHW[ ]	/* 1 value pushed */\01236 \012MDRP[10000]	/* MoveDirectRelPt */\012PUSHW[ ]	/* 1 value pushed */\01236 \012MDAP[1]	/* MoveDirectAbsPt */\012PUSHW[ ]	/* 1 value pushed */\01233 \012SRP0[ ]	/* SetRefPoint0 */\012PUSHW[ ]	/* 1 value pushed */\01238 \012MDRP[10000]	/* MoveDirectRelPt */\012PUSHW[ ]	/* 1 value pushed */\01238 \012MDAP[1]	/* MoveDirectAbsPt */\012IUP[0]	/* InterpolateUntPts */\012IUP[1]	/* InterpolateUntPts */";
};
width = 427;
}
);
note = Amacron;
unicode = 0100;
},
{
color = 11;
glyphname = Aogonek;
lastChange = "2021-11-22 23:10:22 +0000";
layers = (
{
layerId = "04A772B0-FA71-43EE-BB43-CAC7F0EBD631";
paths = (
{
closed = 1;
nodes = (
"335.97 -227 OFFCURVE",
"388.323 -203.719 OFFCURVE",
"418 -191 CURVE",
"384 -91 LINE",
"346.667 -109.667 OFFCURVE",
"329.667 -118 OFFCURVE",
"311 -118 CURVE SMOOTH",
"297.667 -118 OFFCURVE",
"290 -109 OFFCURVE",
"290 -97 CURVE SMOOTH",
"290 -60.219 OFFCURVE",
"325.486 -13.275 OFFCURVE",
"360 0 CURVE",
"416 0 LINE",
"336 607 LINE",
"86 607 LINE",
"4 0 LINE",
"202 0 LINE",
"200 -3.333 OFFCURVE",
"198 -6.667 OFFCURVE",
"196 -10 CURVE SMOOTH",
"190 -21 LINE",
"190 -20 LINE",
"175.333 -45.333 OFFCURVE",
"168 -74 OFFCURVE",
"168 -102 CURVE SMOOTH",
"168 -127.333 OFFCURVE",
"176.333 -153.667 OFFCURVE",
"191 -175 CURVE SMOOTH",
"213.667 -203 OFFCURVE",
"252.333 -227 OFFCURVE",
"299 -227 CURVE SMOOTH"
);
},
{
closed = 1;
nodes = (
"256.333 -208 OFFCURVE",
"223.667 -190.667 OFFCURVE",
"205 -164 CURVE SMOOTH",
"191.667 -145.333 OFFCURVE",
"185 -124.667 OFFCURVE",
"185 -102 CURVE SMOOTH",
"185 -78 OFFCURVE",
"193 -51.333 OFFCURVE",
"205 -30 CURVE SMOOTH",
"214.333 -12.667 OFFCURVE",
"227.333 4.333 OFFCURVE",
"246 19 CURVE",
"222 19 LINE",
"214 99 LINE",
"199 99 LINE",
"193 19 LINE",
"24 19 LINE",
"101 589 LINE",
"321 589 LINE",
"396 19 LINE",
"358 19 LINE",
"316.515 5.172 OFFCURVE",
"273 -52.043 OFFCURVE",
"273 -97 CURVE SMOOTH",
"273 -119.667 OFFCURVE",
"287 -136 OFFCURVE",
"311 -136 CURVE SMOOTH",
"333.667 -136 OFFCURVE",
"347.333 -131.333 OFFCURVE",
"374 -118 CURVE",
"397 -180 LINE",
"380.904 -188.048 OFFCURVE",
"331.377 -208 OFFCURVE",
"299 -208 CURVE SMOOTH"
);
},
{
closed = 1;
nodes = (
"336.333 -199 OFFCURVE",
"373 -181.667 OFFCURVE",
"385 -175 CURVE",
"370 -130 LINE",
"347.333 -140.667 OFFCURVE",
"333.667 -146 OFFCURVE",
"311 -146 CURVE SMOOTH",
"281.667 -146 OFFCURVE",
"264 -125 OFFCURVE",
"264 -97 CURVE SMOOTH",
"264 -48.539 OFFCURVE",
"310.107 14.502 OFFCURVE",
"356 28 CURVE",
"385 28 LINE",
"313 579 LINE",
"108 579 LINE",
"34 28 LINE",
"185 28 LINE",
"190 108 LINE",
"222 108 LINE",
"229 28 LINE",
"283 28 LINE",
"248.333 14.667 OFFCURVE",
"226.333 -8.333 OFFCURVE",
"213 -35 CURVE SMOOTH",
"190.333 -75 OFFCURVE",
"185.333 -124.333 OFFCURVE",
"212 -159 CURVE SMOOTH",
"229.333 -183 OFFCURVE",
"259 -199 OFFCURVE",
"299 -199 CURVE SMOOTH"
);
},
{
closed = 1;
nodes = (
"214 189 LINE",
"207 299 LINE",
"200 189 LINE"
);
},
{
closed = 1;
nodes = (
"207 463 LINE",
"222 180 LINE",
"191 180 LINE"
);
}
);
userData = {
assembly = "PUSHW[ ]	/* 4 values pushed */\01226 6 59 4 \012CALL[ ]	/* CallFunction */\012PUSHW[ ]	/* 1 value pushed */\01259 \012SRP0[ ]	/* SetRefPoint0 */\012PUSHW[ ]	/* 1 value pushed */\01215 \012MDRP[10000]	/* MoveDirectRelPt */\012PUSHW[ ]	/* 1 value pushed */\01215 \012MDAP[1]	/* MoveDirectAbsPt */\012PUSHW[ ]	/* 1 value pushed */\01259 \012SRP0[ ]	/* SetRefPoint0 */\012PUSHW[ ]	/* 1 value pushed */\01233 \012MDRP[10000]	/* MoveDirectRelPt */\012PUSHW[ ]	/* 1 value pushed */\01233 \012MDAP[1]	/* MoveDirectAbsPt */\012PUSHW[ ]	/* 3 values pushed */\01235 59 26 \012SRP1[ ]	/* SetRefPoint1 */\012SRP2[ ]	/* SetRefPoint2 */\012IP[ ]	/* InterpolatePts */\012PUSHW[ ]	/* 3 values pushed */\01236 59 26 \012SRP1[ ]	/* SetRefPoint1 */\012SRP2[ ]	/* SetRefPoint2 */\012IP[ ]	/* InterpolatePts */\012PUSHW[ ]	/* 1 value pushed */\01259 \012SRP0[ ]	/* SetRefPoint0 */\012PUSHW[ ]	/* 1 value pushed */\01242 \012MDRP[10000]	/* MoveDirectRelPt */\012PUSHW[ ]	/* 1 value pushed */\01242 \012MDAP[1]	/* MoveDirectAbsPt */\012PUSHW[ ]	/* 3 values pushed */\01263 59 26 \012SRP1[ ]	/* SetRefPoint1 */\012SRP2[ ]	/* SetRefPoint2 */\012IP[ ]	/* InterpolatePts */\012PUSHW[ ]	/* 3 values pushed */\01298 59 26 \012SRP1[ ]	/* SetRefPoint1 */\012SRP2[ ]	/* SetRefPoint2 */\012IP[ ]	/* InterpolatePts */\012SVTCA[0]	/* SetFreedomAndProjectionVectorToAxis */\012PUSHW[ ]	/* 1 value pushed */\01212 \012MDAP[1]	/* MoveDirectAbsPt */\012PUSHW[ ]	/* 1 value pushed */\01216 \012MDAP[1]	/* MoveDirectAbsPt */\012PUSHW[ ]	/* 1 value pushed */\01220 \012MDAP[1]	/* MoveDirectAbsPt */\012PUSHW[ ]	/* 4 values pushed */\01229 2 3 4 \012CALL[ ]	/* CallFunction */\012PUSHW[ ]	/* 4 values pushed */\01234 4 13 4 \012CALL[ ]	/* CallFunction */\012PUSHW[ ]	/* 1 value pushed */\01234 \012SRP0[ ]	/* SetRefPoint0 */\012PUSHW[ ]	/* 2 values pushed */\01214 2 \012MIRP[10100]	/* MoveIndirectRelPt */\012PUSHW[ ]	/* 1 value pushed */\01213 \012SRP0[ ]	/* SetRefPoint0 */\012PUSHW[ ]	/* 1 value pushed */\01217 \012MDRP[10000]	/* MoveDirectRelPt */\012PUSHW[ ]	/* 1 value pushed */\01213 \012SRP0[ ]	/* SetRefPoint0 */\012PUSHW[ ]	/* 1 value pushed */\01221 \012MDRP[10000]	/* MoveDirectRelPt */\012IUP[0]	/* InterpolateUntPts */\012IUP[1]	/* InterpolateUntPts */";
};
width = 427;
}
);
note = Aogonek;
rightKerningGroup = parenright;
unicode = 0104;
},
{
color = 11;
glyphname = Aring;
lastChange = "2021-11-22 23:10:22 +0000";
layers = (
{
layerId = "04A772B0-FA71-43EE-BB43-CAC7F0EBD631";
paths = (
{
closed = 1;
nodes = (
"416 0 LINE",
"336 591 LINE",
"266 591 LINE",
"292.667 608.333 OFFCURVE",
"310 636.667 OFFCURVE",
"310 670 CURVE SMOOTH",
"310 724.655 OFFCURVE",
"263.723 768 OFFCURVE",
"208 768 CURVE SMOOTH",
"148 768 OFFCURVE",
"106 724.667 OFFCURVE",
"106 670 CURVE SMOOTH",
"106 636.667 OFFCURVE",
"121.333 608.333 OFFCURVE",
"148 591 CURVE",
"86 591 LINE",
"4 0 LINE"
);
},
{
closed = 1;
nodes = (
"214 184 LINE",
"210.5 233 LINE SMOOTH",
"210.007 234.971 OFFCURVE",
"207.797 273.475 OFFCURVE",
"207 291 CURVE",
"200 184 LINE"
);
},
{
closed = 1;
nodes = (
"101 573 LINE",
"321 573 LINE",
"396 18 LINE",
"222 18 LINE",
"214 96 LINE",
"199 96 LINE",
"193 18 LINE",
"24 18 LINE"
);
},
{
closed = 1;
nodes = (
"185 27 LINE",
"190 105 LINE",
"222 105 LINE",
"229 27 LINE",
"385 27 LINE",
"313 564 LINE",
"108 564 LINE",
"34 27 LINE"
);
},
{
closed = 1;
nodes = (
"207 450 LINE",
"222 175 LINE",
"191 175 LINE"
);
},
{
closed = 1;
nodes = (
"148.333 599 OFFCURVE",
"122 631.333 OFFCURVE",
"122 670 CURVE SMOOTH",
"122 716.667 OFFCURVE",
"157.333 752 OFFCURVE",
"208 752 CURVE SMOOTH",
"254.667 752 OFFCURVE",
"295 716.667 OFFCURVE",
"295 670 CURVE SMOOTH",
"295 631.333 OFFCURVE",
"264.333 599 OFFCURVE",
"227 591 CURVE",
"187 591 LINE"
);
},
{
closed = 1;
nodes = (
"250.667 596 OFFCURVE",
"287 628.667 OFFCURVE",
"287 670 CURVE SMOOTH",
"287 710.98 OFFCURVE",
"250.098 745 OFFCURVE",
"208 745 CURVE SMOOTH",
"161.333 745 OFFCURVE",
"129 711.333 OFFCURVE",
"129 670 CURVE SMOOTH",
"129 628.667 OFFCURVE",
"161.333 596 OFFCURVE",
"208 596 CURVE SMOOTH"
);
},
{
closed = 1;
nodes = (
"186.667 636 OFFCURVE",
"172 651.333 OFFCURVE",
"172 670 CURVE SMOOTH",
"172 690 OFFCURVE",
"186.667 706 OFFCURVE",
"208 706 CURVE SMOOTH",
"228 706 OFFCURVE",
"244 690 OFFCURVE",
"244 670 CURVE SMOOTH",
"244 651.333 OFFCURVE",
"228 636 OFFCURVE",
"208 636 CURVE SMOOTH"
);
},
{
closed = 1;
nodes = (
"224 644 OFFCURVE",
"237 655.333 OFFCURVE",
"237 670 CURVE SMOOTH",
"237 684.667 OFFCURVE",
"224 698 OFFCURVE",
"208 698 CURVE SMOOTH",
"192 698 OFFCURVE",
"179 684.667 OFFCURVE",
"179 670 CURVE SMOOTH",
"179 655.333 OFFCURVE",
"192 644 OFFCURVE",
"208 644 CURVE SMOOTH"
);
},
{
closed = 1;
nodes = (
"199.333 659 OFFCURVE",
"195 662.667 OFFCURVE",
"195 670 CURVE SMOOTH",
"195 678.667 OFFCURVE",
"199.333 683 OFFCURVE",
"208 683 CURVE SMOOTH",
"216.667 683 OFFCURVE",
"221 678.667 OFFCURVE",
"221 670 CURVE SMOOTH",
"221 662.667 OFFCURVE",
"216.667 659 OFFCURVE",
"208 659 CURVE SMOOTH"
);
}
);
userData = {
assembly = "PUSHW[ ]	/* 3 values pushed */\01265 35 3 \012CALL[ ]	/* CallFunction */\012PUSHW[ ]	/* 3 values pushed */\01256 71 3 \012CALL[ ]	/* CallFunction */\012NPUSHW[ ]	/* 27 values pushed */\0126 65 22 65 38 65 54 65 70 65 86 65 102 65 118 65 134 65 150 65 166 65 182 65 198 65 13 \012DELTAP1[ ]	/* DeltaExceptionP1 */\012NPUSHW[ ]	/* 5 values pushed */\012213 65 229 65 2 \012DELTAP1[ ]	/* DeltaExceptionP1 */\012PUSHW[ ]	/* 3 values pushed */\0120 35 65 \012SRP1[ ]	/* SetRefPoint1 */\012SRP2[ ]	/* SetRefPoint2 */\012IP[ ]	/* InterpolatePts */\012NPUSHW[ ]	/* 5 values pushed */\012218 71 234 71 2 \012DELTAP1[ ]	/* DeltaExceptionP1 */\012NPUSHW[ ]	/* 27 values pushed */\0129 71 25 71 41 71 57 71 73 71 89 71 105 71 121 71 137 71 153 71 169 71 185 71 201 71 13 \012DELTAP1[ ]	/* DeltaExceptionP1 */\012PUSHW[ ]	/* 3 values pushed */\01214 71 56 \012SRP1[ ]	/* SetRefPoint1 */\012SRP2[ ]	/* SetRefPoint2 */\012IP[ ]	/* InterpolatePts */\012PUSHW[ ]	/* 1 value pushed */\01235 \012SRP0[ ]	/* SetRefPoint0 */\012PUSHW[ ]	/* 1 value pushed */\01248 \012MDRP[10000]	/* MoveDirectRelPt */\012PUSHW[ ]	/* 1 value pushed */\01248 \012MDAP[1]	/* MoveDirectAbsPt */\012PUSHW[ ]	/* 3 values pushed */\01264 35 56 \012SRP1[ ]	/* SetRefPoint1 */\012SRP2[ ]	/* SetRefPoint2 */\012IP[ ]	/* InterpolatePts */\012PUSHW[ ]	/* 1 value pushed */\01265 \012SRP0[ ]	/* SetRefPoint0 */\012PUSHW[ ]	/* 1 value pushed */\01277 \012MDRP[10000]	/* MoveDirectRelPt */\012PUSHW[ ]	/* 1 value pushed */\01277 \012MDAP[1]	/* MoveDirectAbsPt */\012PUSHW[ ]	/* 1 value pushed */\01271 \012SRP0[ ]	/* SetRefPoint0 */\012PUSHW[ ]	/* 1 value pushed */\01283 \012MDRP[10000]	/* MoveDirectRelPt */\012PUSHW[ ]	/* 1 value pushed */\01283 \012MDAP[1]	/* MoveDirectAbsPt */\012PUSHW[ ]	/* 3 values pushed */\01289 35 56 \012SRP1[ ]	/* SetRefPoint1 */\012SRP2[ ]	/* SetRefPoint2 */\012IP[ ]	/* InterpolatePts */\012SVTCA[0]	/* SetFreedomAndProjectionVectorToAxis */\012PUSHW[ ]	/* 1 value pushed */\01219 \012MDAP[1]	/* MoveDirectAbsPt */\012PUSHW[ ]	/* 4 values pushed */\01263 4 29 4 \012CALL[ ]	/* CallFunction */\012PUSHW[ ]	/* 3 values pushed */\01251 74 3 \012CALL[ ]	/* CallFunction */\012PUSHW[ ]	/* 3 values pushed */\01268 59 3 \012CALL[ ]	/* CallFunction */\012PUSHW[ ]	/* 1 value pushed */\01259 \012SRP0[ ]	/* SetRefPoint0 */\012PUSHW[ ]	/* 1 value pushed */\0120 \012MDRP[10000]	/* MoveDirectRelPt */\012PUSHW[ ]	/* 1 value pushed */\0120 \012MDAP[1]	/* MoveDirectAbsPt */\012PUSHW[ ]	/* 1 value pushed */\01259 \012SRP0[ ]	/* SetRefPoint0 */\012PUSHW[ ]	/* 1 value pushed */\01214 \012MDRP[10000]	/* MoveDirectRelPt */\012PUSHW[ ]	/* 1 value pushed */\01214 \012MDAP[1]	/* MoveDirectAbsPt */\012PUSHW[ ]	/* 1 value pushed */\01263 \012SRP0[ ]	/* SetRefPoint0 */\012PUSHW[ ]	/* 2 values pushed */\01230 2 \012MIRP[10100]	/* MoveIndirectRelPt */\012PUSHW[ ]	/* 1 value pushed */\01229 \012SRP0[ ]	/* SetRefPoint0 */\012PUSHW[ ]	/* 1 value pushed */\01232 \012MDRP[10000]	/* MoveDirectRelPt */\012PUSHW[ ]	/* 1 value pushed */\01259 \012SRP0[ ]	/* SetRefPoint0 */\012PUSHW[ ]	/* 1 value pushed */\01238 \012MDRP[10000]	/* MoveDirectRelPt */\012PUSHW[ ]	/* 1 value pushed */\01238 \012MDAP[1]	/* MoveDirectAbsPt */\012PUSHW[ ]	/* 1 value pushed */\01251 \012SRP0[ ]	/* SetRefPoint0 */\012PUSHW[ ]	/* 1 value pushed */\01245 \012MDRP[10000]	/* MoveDirectRelPt */\012PUSHW[ ]	/* 1 value pushed */\01245 \012MDAP[1]	/* MoveDirectAbsPt */\012IUP[0]	/* InterpolateUntPts */\012IUP[1]	/* InterpolateUntPts */";
};
width = 427;
}
);
note = Aring;
unicode = 00C5;
},
{
color = 11;
glyphname = Atilde;
lastChange = "2021-11-22 23:10:22 +0000";
layers = (
{
layerId = "04A772B0-FA71-43EE-BB43-CAC7F0EBD631";
paths = (
{
closed = 1;
nodes = (
"416 0 LINE",
"336 591 LINE",
"86 591 LINE",
"4 0 LINE"
);
},
{
closed = 1;
nodes = (
"214 184 LINE",
"210.5 233 LINE SMOOTH",
"210.007 234.971 OFFCURVE",
"207.797 273.475 OFFCURVE",
"207 291 CURVE",
"200 184 LINE"
);
},
{
closed = 1;
nodes = (
"101 573 LINE",
"321 573 LINE",
"396 18 LINE",
"222 18 LINE",
"214 96 LINE",
"199 96 LINE",
"193 18 LINE",
"24 18 LINE"
);
},
{
closed = 1;
nodes = (
"185 27 LINE",
"190 105 LINE",
"222 105 LINE",
"229 27 LINE",
"385 27 LINE",
"313 564 LINE",
"108 564 LINE",
"34 27 LINE"
);
},
{
closed = 1;
nodes = (
"207 450 LINE",
"222 175 LINE",
"191 175 LINE"
);
},
{
closed = 1;
nodes = (
"295.072 631.121 OFFCURVE",
"340 677.915 OFFCURVE",
"340 743 CURVE",
"257 743 LINE",
"253 726.5 LINE SMOOTH",
"251.667 721.5 OFFCURVE",
"250 719 OFFCURVE",
"248 719 CURVE SMOOTH",
"244.667 719 OFFCURVE",
"240.5 720 OFFCURVE",
"235.5 722 CURVE SMOOTH",
"220 728 LINE SMOOTH",
"205.333 734.667 OFFCURVE",
"185 742.333 OFFCURVE",
"165 745 CURVE SMOOTH",
"109 749 OFFCURVE",
"75 700 OFFCURVE",
"75 636 CURVE",
"157 636 LINE",
"157 642.667 OFFCURVE",
"157.333 648.833 OFFCURVE",
"158 654.5 CURVE SMOOTH",
"158.667 660.167 OFFCURVE",
"159.333 663 OFFCURVE",
"160 663 CURVE SMOOTH",
"170.667 661.667 OFFCURVE",
"182 656.333 OFFCURVE",
"194 651 CURVE SMOOTH",
"210 643 OFFCURVE",
"226.333 634 OFFCURVE",
"249 634 CURVE SMOOTH"
);
},
{
closed = 1;
nodes = (
"231.333 647 OFFCURVE",
"217.667 655.333 OFFCURVE",
"203 662 CURVE SMOOTH",
"188.333 668.667 OFFCURVE",
"175.667 674.667 OFFCURVE",
"161 676 CURVE SMOOTH",
"150.333 677.333 OFFCURVE",
"142.333 663.667 OFFCURVE",
"141 649 CURVE",
"91 649 LINE",
"91 698.333 OFFCURVE",
"117.333 734.667 OFFCURVE",
"164 732 CURVE SMOOTH",
"180 730.667 OFFCURVE",
"198.667 723.667 OFFCURVE",
"212 717 CURVE SMOOTH",
"222.667 711.667 OFFCURVE",
"237.667 706.333 OFFCURVE",
"247 705 CURVE SMOOTH",
"264.333 703.667 OFFCURVE",
"268.333 716.667 OFFCURVE",
"271 730 CURVE",
"324 730 LINE",
"324 680.264 OFFCURVE",
"286.896 644.162 OFFCURVE",
"250 647 CURVE SMOOTH"
);
},
{
closed = 1;
nodes = (
"284.189 653 OFFCURVE",
"316 678.489 OFFCURVE",
"316 723 CURVE",
"278 723 LINE",
"275.333 711 OFFCURVE",
"271.333 697.667 OFFCURVE",
"246 699 CURVE SMOOTH",
"221.395 699 OFFCURVE",
"192.177 723.569 OFFCURVE",
"163 726 CURVE SMOOTH",
"123 728.667 OFFCURVE",
"100 697.667 OFFCURVE",
"100 655 CURVE",
"133 655 LINE",
"134.333 669.667 OFFCURVE",
"146 684.333 OFFCURVE",
"162 683 CURVE SMOOTH",
"178 681.667 OFFCURVE",
"192.833 676.667 OFFCURVE",
"206.5 668 CURVE SMOOTH",
"220.167 659.333 OFFCURVE",
"234.667 654.333 OFFCURVE",
"250 653 CURVE SMOOTH"
);
}
);
userData = {
assembly = "PUSHW[ ]	/* 3 values pushed */\01243 44 3 \012CALL[ ]	/* CallFunction */\012PUSHW[ ]	/* 1 value pushed */\01244 \012SRP0[ ]	/* SetRefPoint0 */\012PUSHW[ ]	/* 1 value pushed */\01220 \012MDRP[10000]	/* MoveDirectRelPt */\012PUSHW[ ]	/* 1 value pushed */\01220 \012MDAP[1]	/* MoveDirectAbsPt */\012SVTCA[0]	/* SetFreedomAndProjectionVectorToAxis */\012PUSHW[ ]	/* 4 values pushed */\0129 4 2 4 \012CALL[ ]	/* CallFunction */\012PUSHW[ ]	/* 4 values pushed */\01247 2 40 4 \012CALL[ ]	/* CallFunction */\012PUSHW[ ]	/* 4 values pushed */\01262 2 37 4 \012CALL[ ]	/* CallFunction */\012PUSHW[ ]	/* 1 value pushed */\0129 \012SRP0[ ]	/* SetRefPoint0 */\012PUSHW[ ]	/* 2 values pushed */\0123 2 \012MIRP[10100]	/* MoveIndirectRelPt */\012PUSHW[ ]	/* 1 value pushed */\0122 \012SRP0[ ]	/* SetRefPoint0 */\012PUSHW[ ]	/* 1 value pushed */\0125 \012MDRP[10000]	/* MoveDirectRelPt */\012PUSHW[ ]	/* 1 value pushed */\01247 \012SRP0[ ]	/* SetRefPoint0 */\012PUSHW[ ]	/* 1 value pushed */\01232 \012MDRP[10000]	/* MoveDirectRelPt */\012PUSHW[ ]	/* 1 value pushed */\01232 \012MDAP[1]	/* MoveDirectAbsPt */\012PUSHW[ ]	/* 1 value pushed */\01237 \012SRP0[ ]	/* SetRefPoint0 */\012PUSHW[ ]	/* 1 value pushed */\01243 \012MDRP[10000]	/* MoveDirectRelPt */\012PUSHW[ ]	/* 1 value pushed */\01243 \012MDAP[1]	/* MoveDirectAbsPt */\012PUSHW[ ]	/* 1 value pushed */\01237 \012SRP0[ ]	/* SetRefPoint0 */\012PUSHW[ ]	/* 2 values pushed */\01252 2 \012MIRP[10100]	/* MoveIndirectRelPt */\012PUSHW[ ]	/* 1 value pushed */\01262 \012SRP0[ ]	/* SetRefPoint0 */\012PUSHW[ ]	/* 1 value pushed */\01255 \012MDRP[10000]	/* MoveDirectRelPt */\012PUSHW[ ]	/* 1 value pushed */\01255 \012MDAP[1]	/* MoveDirectAbsPt */\012PUSHW[ ]	/* 1 value pushed */\01247 \012SRP0[ ]	/* SetRefPoint0 */\012PUSHW[ ]	/* 1 value pushed */\01256 \012MDRP[10000]	/* MoveDirectRelPt */\012PUSHW[ ]	/* 1 value pushed */\01256 \012MDAP[1]	/* MoveDirectAbsPt */\012PUSHW[ ]	/* 1 value pushed */\01252 \012SRP0[ ]	/* SetRefPoint0 */\012PUSHW[ ]	/* 1 value pushed */\01259 \012MDRP[10000]	/* MoveDirectRelPt */\012PUSHW[ ]	/* 1 value pushed */\01259 \012MDAP[1]	/* MoveDirectAbsPt */\012PUSHW[ ]	/* 1 value pushed */\01247 \012SRP0[ ]	/* SetRefPoint0 */\012PUSHW[ ]	/* 1 value pushed */\01265 \012MDRP[10000]	/* MoveDirectRelPt */\012PUSHW[ ]	/* 1 value pushed */\01265 \012MDAP[1]	/* MoveDirectAbsPt */\012PUSHW[ ]	/* 1 value pushed */\01237 \012SRP0[ ]	/* SetRefPoint0 */\012PUSHW[ ]	/* 1 value pushed */\01268 \012MDRP[10000]	/* MoveDirectRelPt */\012PUSHW[ ]	/* 1 value pushed */\01268 \012MDAP[1]	/* MoveDirectAbsPt */\012PUSHW[ ]	/* 1 value pushed */\01237 \012SRP0[ ]	/* SetRefPoint0 */\012PUSHW[ ]	/* 1 value pushed */\01278 \012MDRP[10000]	/* MoveDirectRelPt */\012PUSHW[ ]	/* 1 value pushed */\01278 \012MDAP[1]	/* MoveDirectAbsPt */\012PUSHW[ ]	/* 1 value pushed */\01247 \012SRP0[ ]	/* SetRefPoint0 */\012PUSHW[ ]	/* 1 value pushed */\012108 \012MDRP[10000]	/* MoveDirectRelPt */\012PUSHW[ ]	/* 1 value pushed */\012108 \012MDAP[1]	/* MoveDirectAbsPt */\012IUP[0]	/* InterpolateUntPts */\012IUP[1]	/* InterpolateUntPts */";
};
width = 427;
}
);
note = Atilde;
unicode = 00C3;
},
{
glyphname = AE;
lastChange = "2021-11-22 23:10:22 +0000";
layers = (
{
layerId = "04A772B0-FA71-43EE-BB43-CAC7F0EBD631";
paths = (
{
closed = 1;
nodes = (
"524 0 LINE",
"524 153 LINE",
"409 153 LINE",
"401 218 LINE",
"515 218 LINE",
"515 386 LINE",
"378 386 LINE",
"376.667 397.333 OFFCURVE",
"375.333 406.333 OFFCURVE",
"374 413 CURVE SMOOTH",
"370 436 LINE",
"524 436 LINE",
"524 591 LINE",
"93 591 LINE",
"8 0 LINE"
);
},
{
closed = 1;
nodes = (
"224 184 LINE",
"217 302 LINE",
"210 184 LINE"
);
},
{
closed = 1;
nodes = (
"215 428 LINE",
"217 450 LINE",
"218 428 LINE",
"233 175 LINE",
"201 175 LINE"
);
},
{
closed = 1;
nodes = (
"108 573 LINE",
"506 573 LINE",
"506 454 LINE",
"349 454 LINE",
"351 438.667 OFFCURVE",
"353.167 424.333 OFFCURVE",
"355.5 411 CURVE SMOOTH",
"357.833 397.667 OFFCURVE",
"360 383.333 OFFCURVE",
"362 368 CURVE",
"497 368 LINE",
"497 236 LINE",
"380 236 LINE",
"382 218.667 OFFCURVE",
"384.333 202 OFFCURVE",
"387 186 CURVE SMOOTH",
"389.667 170 OFFCURVE",
"392 152.667 OFFCURVE",
"394 134 CURVE",
"506 134 LINE",
"506 18 LINE",
"232 18 LINE",
"224 96 LINE",
"209 96 LINE",
"203 18 LINE",
"29 18 LINE"
);
},
{
closed = 1;
nodes = (
"195 27 LINE",
"200 105 LINE",
"233 105 LINE",
"240 27 LINE",
"497 27 LINE",
"497 125 LINE",
"386 125 LINE",
"370 245 LINE",
"488 245 LINE",
"488 359 LINE",
"354 359 LINE",
"340 463 LINE",
"497 463 LINE",
"497 564 LINE",
"116 564 LINE",
"40 27 LINE"
);
}
);
userData = {
assembly = "SVTCA[0]	/* SetFreedomAndProjectionVectorToAxis */\012PUSHW[ ]	/* 4 values pushed */\01227 3 14 4 \012CALL[ ]	/* CallFunction */\012PUSHW[ ]	/* 1 value pushed */\01214 \012SRP0[ ]	/* SetRefPoint0 */\012PUSHW[ ]	/* 1 value pushed */\0122 \012MDRP[10000]	/* MoveDirectRelPt */\012IUP[0]	/* InterpolateUntPts */\012IUP[1]	/* InterpolateUntPts */";
};
width = 543;
}
);
note = AE;
unicode = 00C6;
},
{
glyphname = B;
lastChange = "2021-11-22 23:10:22 +0000";
layers = (
{
layerId = "04A772B0-FA71-43EE-BB43-CAC7F0EBD631";
paths = (
{
closed = 1;
nodes = (
"243 0 LINE SMOOTH",
"340.333 0 OFFCURVE",
"398 34.333 OFFCURVE",
"398 141 CURVE SMOOTH",
"398 211 LINE SMOOTH",
"398 263 OFFCURVE",
"383.333 299.333 OFFCURVE",
"354 320 CURVE",
"374.667 344 OFFCURVE",
"385 375.333 OFFCURVE",
"385 414 CURVE SMOOTH",
"385 472 LINE SMOOTH",
"385 542.667 OFFCURVE",
"345.667 591 OFFCURVE",
"251 591 CURVE SMOOTH",
"26 591 LINE",
"26 0 LINE"
);
},
{
closed = 1;
nodes = (
"194 253 LINE",
"207 253 LINE SMOOTH",
"215 253 OFFCURVE",
"219.667 245.667 OFFCURVE",
"221 231 CURVE SMOOTH",
"222.333 216.333 OFFCURVE",
"223 198.333 OFFCURVE",
"223 177 CURVE SMOOTH",
"223 155.667 OFFCURVE",
"221.833 137.667 OFFCURVE",
"219.5 123 CURVE SMOOTH",
"217.167 108.333 OFFCURVE",
"213 101 OFFCURVE",
"207 101 CURVE SMOOTH",
"194 101 LINE"
);
},
{
closed = 1;
nodes = (
"207 110 LINE SMOOTH",
"209.667 110 OFFCURVE",
"211.5 116.5 OFFCURVE",
"212.5 129.5 CURVE SMOOTH",
"213.5 142.5 OFFCURVE",
"214 158.333 OFFCURVE",
"214 177 CURVE SMOOTH",
"214 195.667 OFFCURVE",
"213.667 211.5 OFFCURVE",
"213 224.5 CURVE SMOOTH",
"212.333 237.5 OFFCURVE",
"210.333 244 OFFCURVE",
"207 244 CURVE SMOOTH",
"203 244 LINE",
"203 110 LINE"
);
},
{
closed = 1;
nodes = (
"43 573 LINE",
"251 573 LINE SMOOTH",
"333.667 573 OFFCURVE",
"367 532 OFFCURVE",
"367 472 CURVE SMOOTH",
"367 414 LINE SMOOTH",
"367 371.333 OFFCURVE",
"353.333 335.667 OFFCURVE",
"320 317 CURVE",
"358.667 305 OFFCURVE",
"380 271 OFFCURVE",
"380 211 CURVE SMOOTH",
"380 141 LINE SMOOTH",
"380 49.103 OFFCURVE",
"331.178 18 OFFCURVE",
"243 18 CURVE SMOOTH",
"43 18 LINE"
);
},
{
closed = 1;
nodes = (
"243 27 LINE SMOOTH",
"323 27 OFFCURVE",
"372 54.333 OFFCURVE",
"372 141 CURVE SMOOTH",
"372 211 LINE SMOOTH",
"372 281.667 OFFCURVE",
"332.333 314 OFFCURVE",
"283 314 CURVE",
"283 316 LINE",
"337.667 322.667 OFFCURVE",
"359 363.333 OFFCURVE",
"359 414 CURVE SMOOTH",
"359 472 LINE SMOOTH",
"359 526.667 OFFCURVE",
"327 564 OFFCURVE",
"251 564 CURVE SMOOTH",
"51 564 LINE",
"51 27 LINE"
);
},
{
closed = 1;
nodes = (
"194 488 LINE",
"207 488 LINE SMOOTH",
"215 488 OFFCURVE",
"219.667 481 OFFCURVE",
"221 467 CURVE SMOOTH",
"222.333 453 OFFCURVE",
"223 435.667 OFFCURVE",
"223 415 CURVE SMOOTH",
"223 395 OFFCURVE",
"221.5 378 OFFCURVE",
"218.5 364 CURVE SMOOTH",
"215.5 350 OFFCURVE",
"211 343 OFFCURVE",
"205 343 CURVE SMOOTH",
"194 343 LINE"
);
},
{
closed = 1;
nodes = (
"205 352 LINE SMOOTH",
"208.333 352 OFFCURVE",
"210.667 358.167 OFFCURVE",
"212 370.5 CURVE SMOOTH",
"213.333 382.833 OFFCURVE",
"214 397.667 OFFCURVE",
"214 415 CURVE SMOOTH",
"214 432.333 OFFCURVE",
"213.667 447.167 OFFCURVE",
"213 459.5 CURVE SMOOTH",
"212.333 471.833 OFFCURVE",
"210.333 478 OFFCURVE",
"207 478 CURVE SMOOTH",
"203 478 LINE",
"203 352 LINE"
);
}
);
userData = {
assembly = "SVTCA[0]	/* SetFreedomAndProjectionVectorToAxis */\012PUSHW[ ]	/* 4 values pushed */\01219 2 16 4 \012CALL[ ]	/* CallFunction */\012PUSHW[ ]	/* 4 values pushed */\01228 1 25 4 \012CALL[ ]	/* CallFunction */\012PUSHW[ ]	/* 3 values pushed */\0129 25 28 \012SRP1[ ]	/* SetRefPoint1 */\012SRP2[ ]	/* SetRefPoint2 */\012IP[ ]	/* InterpolatePts */\012PUSHW[ ]	/* 3 values pushed */\01264 25 28 \012SRP1[ ]	/* SetRefPoint1 */\012SRP2[ ]	/* SetRefPoint2 */\012IP[ ]	/* InterpolatePts */\012IUP[0]	/* InterpolateUntPts */\012IUP[1]	/* InterpolateUntPts */";
};
width = 427;
}
);
note = B;
rightKerningGroup = parenright;
unicode = 0042;
},
{
glyphname = C;
lastChange = "2021-11-22 23:10:22 +0000";
layers = (
{
layerId = "04A772B0-FA71-43EE-BB43-CAC7F0EBD631";
paths = (
{
closed = 1;
nodes = (
"325 -10 OFFCURVE",
"378 30 OFFCURVE",
"378 187 CURVE SMOOTH",
"378 280 LINE",
"215 280 LINE",
"215 298 LINE",
"378 298 LINE",
"378 450 LINE SMOOTH",
"378 559 OFFCURVE",
"312 600 OFFCURVE",
"203 600 CURVE SMOOTH",
"93 600 OFFCURVE",
"21 558 OFFCURVE",
"21 450 CURVE SMOOTH",
"21 186 LINE SMOOTH",
"21 30 OFFCURVE",
"81 -10 OFFCURVE",
"203 -10 CURVE SMOOTH"
);
},
{
closed = 1;
nodes = (
"93 8 OFFCURVE",
"38 45 OFFCURVE",
"38 186 CURVE SMOOTH",
"38 450 LINE SMOOTH",
"38 546 OFFCURVE",
"104 582 OFFCURVE",
"203 582 CURVE SMOOTH",
"302 582 OFFCURVE",
"361 546 OFFCURVE",
"361 450 CURVE SMOOTH",
"361 316 LINE",
"208 316 LINE",
"208 457 LINE SMOOTH",
"208 471 OFFCURVE",
"208 475 OFFCURVE",
"203 475 CURVE SMOOTH",
"199 475 OFFCURVE",
"197 471 OFFCURVE",
"197 457 CURVE SMOOTH",
"197 128 LINE SMOOTH",
"197 116 OFFCURVE",
"199 110 OFFCURVE",
"203 110 CURVE SMOOTH",
"206 110 OFFCURVE",
"208 116 OFFCURVE",
"208 128 CURVE SMOOTH",
"208 262 LINE",
"361 262 LINE",
"361 187 LINE SMOOTH",
"361 45 OFFCURVE",
"312 8 OFFCURVE",
"203 8 CURVE SMOOTH"
);
},
{
closed = 1;
nodes = (
"308 17 OFFCURVE",
"352 52 OFFCURVE",
"352 187 CURVE SMOOTH",
"352 253 LINE",
"216 253 LINE",
"216 128 LINE SMOOTH",
"216 118 OFFCURVE",
"215 111 OFFCURVE",
"212 107 CURVE SMOOTH",
"209 103 OFFCURVE",
"206 101 OFFCURVE",
"203 101 CURVE SMOOTH",
"198 101 OFFCURVE",
"195 103 OFFCURVE",
"193 107 CURVE SMOOTH",
"190 111 OFFCURVE",
"189 118 OFFCURVE",
"189 128 CURVE SMOOTH",
"189 457 LINE SMOOTH",
"189 472 OFFCURVE",
"191 484 OFFCURVE",
"203 484 CURVE SMOOTH",
"214 484 OFFCURVE",
"216 472 OFFCURVE",
"216 457 CURVE SMOOTH",
"216 325 LINE",
"352 325 LINE",
"352 450 LINE SMOOTH",
"352 541 OFFCURVE",
"296 573 OFFCURVE",
"203 573 CURVE SMOOTH",
"108 573 OFFCURVE",
"47 539 OFFCURVE",
"47 450 CURVE SMOOTH",
"47 186 LINE SMOOTH",
"47 51 OFFCURVE",
"97 17 OFFCURVE",
"203 17 CURVE SMOOTH"
);
}
);
width = 412;
}
);
note = C;
unicode = 0043;
},
{
color = 11;
glyphname = Cacute;
lastChange = "2021-11-22 23:10:22 +0000";
layers = (
{
layerId = "04A772B0-FA71-43EE-BB43-CAC7F0EBD631";
paths = (
{
closed = 1;
nodes = (
"324.635 -11 OFFCURVE",
"378 28.708 OFFCURVE",
"378 186 CURVE SMOOTH",
"378 280 LINE",
"215 280 LINE",
"215 298 LINE",
"378 298 LINE",
"378 451 LINE SMOOTH",
"378 560.333 OFFCURVE",
"312.333 601 OFFCURVE",
"203 601 CURVE SMOOTH",
"92.529 601 OFFCURVE",
"21 559.266 OFFCURVE",
"21 451 CURVE SMOOTH",
"21 185 LINE SMOOTH",
"21 29.06 OFFCURVE",
"80.694 -11 OFFCURVE",
"203 -11 CURVE SMOOTH"
);
},
{
closed = 1;
nodes = (
"92.964 7 OFFCURVE",
"38 44.019 OFFCURVE",
"38 185 CURVE SMOOTH",
"38 451 LINE SMOOTH",
"38 547.028 OFFCURVE",
"104.283 583 OFFCURVE",
"203 583 CURVE SMOOTH",
"301.667 583 OFFCURVE",
"361 547 OFFCURVE",
"361 451 CURVE SMOOTH",
"361 316 LINE",
"208 316 LINE",
"208 458 LINE SMOOTH",
"208 465.333 OFFCURVE",
"207.5 470.167 OFFCURVE",
"206.5 472.5 CURVE SMOOTH",
"205.5 474.833 OFFCURVE",
"204.333 476 OFFCURVE",
"203 476 CURVE SMOOTH",
"201 476 OFFCURVE",
"199.5 474.833 OFFCURVE",
"198.5 472.5 CURVE SMOOTH",
"197.5 470.167 OFFCURVE",
"197 465.333 OFFCURVE",
"197 458 CURVE SMOOTH",
"197 127 LINE SMOOTH",
"197 115 OFFCURVE",
"199 109 OFFCURVE",
"203 109 CURVE SMOOTH",
"206.333 109 OFFCURVE",
"208 115 OFFCURVE",
"208 127 CURVE SMOOTH",
"208 262 LINE",
"361 262 LINE",
"361 186 LINE SMOOTH",
"361 44.419 OFFCURVE",
"312.044 7 OFFCURVE",
"203 7 CURVE SMOOTH"
);
},
{
closed = 1;
nodes = (
"307.982 16 OFFCURVE",
"352 50.752 OFFCURVE",
"352 186 CURVE SMOOTH",
"352 253 LINE",
"216 253 LINE",
"216 127 LINE SMOOTH",
"216 117 OFFCURVE",
"214.667 110 OFFCURVE",
"212 106 CURVE SMOOTH",
"209.333 102 OFFCURVE",
"206.333 100 OFFCURVE",
"203 100 CURVE SMOOTH",
"198.333 100 OFFCURVE",
"194.833 102 OFFCURVE",
"192.5 106 CURVE SMOOTH",
"190.167 110 OFFCURVE",
"189 117 OFFCURVE",
"189 127 CURVE SMOOTH",
"189 458 LINE SMOOTH",
"189 468.667 OFFCURVE",
"190.167 475.833 OFFCURVE",
"192.5 479.5 CURVE SMOOTH",
"194.833 483.167 OFFCURVE",
"198.333 485 OFFCURVE",
"203 485 CURVE SMOOTH",
"206.333 485 OFFCURVE",
"209.333 483.167 OFFCURVE",
"212 479.5 CURVE SMOOTH",
"214.667 475.833 OFFCURVE",
"216 468.667 OFFCURVE",
"216 458 CURVE SMOOTH",
"216 325 LINE",
"352 325 LINE",
"352 451 LINE SMOOTH",
"352 541.667 OFFCURVE",
"296.333 574 OFFCURVE",
"203 574 CURVE SMOOTH",
"108.333 574 OFFCURVE",
"47 540.333 OFFCURVE",
"47 451 CURVE SMOOTH",
"47 185 LINE SMOOTH",
"47 50.346 OFFCURVE",
"97 16 OFFCURVE",
"203 16 CURVE SMOOTH"
);
},
{
closed = 1;
nodes = (
"176 737 LINE",
"302 737 LINE",
"187 658 LINE",
"90 658 LINE"
);
},
{
closed = 1;
nodes = (
"184 665 LINE",
"281 731 LINE",
"179 731 LINE",
"107 665 LINE"
);
},
{
closed = 1;
nodes = (
"193 646 LINE",
"346 750 LINE",
"169 750 LINE",
"55 646 LINE"
);
}
);
userData = {
assembly = "PUSHW[ ]	/* 4 values pushed */\01298 6 59 4 \012CALL[ ]	/* CallFunction */\012PUSHW[ ]	/* 3 values pushed */\01297 59 98 \012SRP1[ ]	/* SetRefPoint1 */\012SRP2[ ]	/* SetRefPoint2 */\012IP[ ]	/* InterpolatePts */\012PUSHW[ ]	/* 1 value pushed */\01297 \012MDAP[1]	/* MoveDirectAbsPt */\012PUSHW[ ]	/* 2 values pushed */\01299 5 \012MIRP[10100]	/* MoveIndirectRelPt */\012PUSHW[ ]	/* 3 values pushed */\012102 59 98 \012SRP1[ ]	/* SetRefPoint1 */\012SRP2[ ]	/* SetRefPoint2 */\012IP[ ]	/* InterpolatePts */\012PUSHW[ ]	/* 3 values pushed */\012105 59 98 \012SRP1[ ]	/* SetRefPoint1 */\012SRP2[ ]	/* SetRefPoint2 */\012IP[ ]	/* InterpolatePts */\012SVTCA[0]	/* SetFreedomAndProjectionVectorToAxis */\012PUSHW[ ]	/* 4 values pushed */\01298 2 96 4 \012CALL[ ]	/* CallFunction */\012PUSHW[ ]	/* 1 value pushed */\01298 \012SRP0[ ]	/* SetRefPoint0 */\012PUSHW[ ]	/* 1 value pushed */\012100 \012MDRP[10000]	/* MoveDirectRelPt */\012PUSHW[ ]	/* 1 value pushed */\012100 \012MDAP[1]	/* MoveDirectAbsPt */\012PUSHW[ ]	/* 1 value pushed */\01296 \012SRP0[ ]	/* SetRefPoint0 */\012PUSHW[ ]	/* 1 value pushed */\012102 \012MDRP[10000]	/* MoveDirectRelPt */\012PUSHW[ ]	/* 1 value pushed */\012102 \012MDAP[1]	/* MoveDirectAbsPt */\012IUP[0]	/* InterpolateUntPts */\012IUP[1]	/* InterpolateUntPts */";
};
width = 412;
}
);
note = Cacute;
unicode = 0106;
},
{
color = 11;
glyphname = Ccaron;
lastChange = "2021-11-22 23:10:22 +0000";
layers = (
{
layerId = "04A772B0-FA71-43EE-BB43-CAC7F0EBD631";
paths = (
{
closed = 1;
nodes = (
"324.635 -11 OFFCURVE",
"378 28.708 OFFCURVE",
"378 186 CURVE SMOOTH",
"378 280 LINE",
"215 280 LINE",
"215 298 LINE",
"378 298 LINE",
"378 451 LINE SMOOTH",
"378 560.333 OFFCURVE",
"312.333 601 OFFCURVE",
"203 601 CURVE SMOOTH",
"92.529 601 OFFCURVE",
"21 559.266 OFFCURVE",
"21 451 CURVE SMOOTH",
"21 185 LINE SMOOTH",
"21 29.06 OFFCURVE",
"80.694 -11 OFFCURVE",
"203 -11 CURVE SMOOTH"
);
},
{
closed = 1;
nodes = (
"92.964 7 OFFCURVE",
"38 44.019 OFFCURVE",
"38 185 CURVE SMOOTH",
"38 451 LINE SMOOTH",
"38 547.028 OFFCURVE",
"104.283 583 OFFCURVE",
"203 583 CURVE SMOOTH",
"301.667 583 OFFCURVE",
"361 547 OFFCURVE",
"361 451 CURVE SMOOTH",
"361 316 LINE",
"208 316 LINE",
"208 458 LINE SMOOTH",
"208 465.333 OFFCURVE",
"207.5 470.167 OFFCURVE",
"206.5 472.5 CURVE SMOOTH",
"205.5 474.833 OFFCURVE",
"204.333 476 OFFCURVE",
"203 476 CURVE SMOOTH",
"201 476 OFFCURVE",
"199.5 474.833 OFFCURVE",
"198.5 472.5 CURVE SMOOTH",
"197.5 470.167 OFFCURVE",
"197 465.333 OFFCURVE",
"197 458 CURVE SMOOTH",
"197 127 LINE SMOOTH",
"197 115 OFFCURVE",
"199 109 OFFCURVE",
"203 109 CURVE SMOOTH",
"206.333 109 OFFCURVE",
"208 115 OFFCURVE",
"208 127 CURVE SMOOTH",
"208 262 LINE",
"361 262 LINE",
"361 186 LINE SMOOTH",
"361 44.419 OFFCURVE",
"312.044 7 OFFCURVE",
"203 7 CURVE SMOOTH"
);
},
{
closed = 1;
nodes = (
"307.982 16 OFFCURVE",
"352 50.752 OFFCURVE",
"352 186 CURVE SMOOTH",
"352 253 LINE",
"216 253 LINE",
"216 127 LINE SMOOTH",
"216 117 OFFCURVE",
"214.667 110 OFFCURVE",
"212 106 CURVE SMOOTH",
"209.333 102 OFFCURVE",
"206.333 100 OFFCURVE",
"203 100 CURVE SMOOTH",
"198.333 100 OFFCURVE",
"194.833 102 OFFCURVE",
"192.5 106 CURVE SMOOTH",
"190.167 110 OFFCURVE",
"189 117 OFFCURVE",
"189 127 CURVE SMOOTH",
"189 458 LINE SMOOTH",
"189 468.667 OFFCURVE",
"190.167 475.833 OFFCURVE",
"192.5 479.5 CURVE SMOOTH",
"194.833 483.167 OFFCURVE",
"198.333 485 OFFCURVE",
"203 485 CURVE SMOOTH",
"206.333 485 OFFCURVE",
"209.333 483.167 OFFCURVE",
"212 479.5 CURVE SMOOTH",
"214.667 475.833 OFFCURVE",
"216 468.667 OFFCURVE",
"216 458 CURVE SMOOTH",
"216 325 LINE",
"352 325 LINE",
"352 451 LINE SMOOTH",
"352 541.667 OFFCURVE",
"296.333 574 OFFCURVE",
"203 574 CURVE SMOOTH",
"108.333 574 OFFCURVE",
"47 540.333 OFFCURVE",
"47 451 CURVE SMOOTH",
"47 185 LINE SMOOTH",
"47 50.346 OFFCURVE",
"97 16 OFFCURVE",
"203 16 CURVE SMOOTH"
);
},
{
closed = 1;
nodes = (
"245 633 LINE",
"382 750 LINE",
"233 750 LINE",
"202 718 LINE",
"170 750 LINE",
"23 750 LINE",
"159 633 LINE"
);
},
{
closed = 1;
nodes = (
"61 737 LINE",
"162 737 LINE",
"202 695 LINE",
"241 737 LINE",
"345 737 LINE",
"238 646 LINE",
"167 646 LINE"
);
},
{
closed = 1;
nodes = (
"234 653 LINE",
"326 730 LINE",
"245 730 LINE",
"202 684 LINE",
"158 730 LINE",
"80 730 LINE",
"170 653 LINE"
);
}
);
userData = {
assembly = "PUSHW[ ]	/* 4 values pushed */\012101 5 97 4 \012CALL[ ]	/* CallFunction */\012PUSHW[ ]	/* 1 value pushed */\012101 \012SRP0[ ]	/* SetRefPoint0 */\012PUSHW[ ]	/* 1 value pushed */\012118 \012MDRP[11100]	/* MoveDirectRelPt */\012SVTCA[0]	/* SetFreedomAndProjectionVectorToAxis */\012PUSHW[ ]	/* 4 values pushed */\01298 2 96 4 \012CALL[ ]	/* CallFunction */\012PUSHW[ ]	/* 1 value pushed */\01298 \012SRP0[ ]	/* SetRefPoint0 */\012PUSHW[ ]	/* 1 value pushed */\012100 \012MDRP[10000]	/* MoveDirectRelPt */\012PUSHW[ ]	/* 1 value pushed */\01296 \012SRP0[ ]	/* SetRefPoint0 */\012PUSHW[ ]	/* 1 value pushed */\012103 \012MDRP[10000]	/* MoveDirectRelPt */\012PUSHW[ ]	/* 1 value pushed */\012103 \012MDAP[1]	/* MoveDirectAbsPt */\012PUSHW[ ]	/* 1 value pushed */\01298 \012SRP0[ ]	/* SetRefPoint0 */\012PUSHW[ ]	/* 1 value pushed */\012104 \012MDRP[10000]	/* MoveDirectRelPt */\012PUSHW[ ]	/* 1 value pushed */\012104 \012MDAP[1]	/* MoveDirectAbsPt */\012PUSHW[ ]	/* 1 value pushed */\01298 \012SRP0[ ]	/* SetRefPoint0 */\012PUSHW[ ]	/* 1 value pushed */\012107 \012MDRP[10000]	/* MoveDirectRelPt */\012PUSHW[ ]	/* 1 value pushed */\012107 \012MDAP[1]	/* MoveDirectAbsPt */\012IUP[0]	/* InterpolateUntPts */\012IUP[1]	/* InterpolateUntPts */";
};
width = 412;
}
);
note = Ccaron;
unicode = 010C;
},
{
color = 11;
glyphname = Ccedilla;
lastChange = "2021-11-22 23:10:22 +0000";
layers = (
{
layerId = "04A772B0-FA71-43EE-BB43-CAC7F0EBD631";
paths = (
{
closed = 1;
nodes = (
"273.915 -234 OFFCURVE",
"318 -178.207 OFFCURVE",
"318 -105 CURVE SMOOTH",
"318 -64.479 OFFCURVE",
"296.829 -22.276 OFFCURVE",
"251 -7 CURVE",
"337.899 4.986 OFFCURVE",
"378 62.831 OFFCURVE",
"378 191 CURVE SMOOTH",
"378 288 LINE",
"215 288 LINE",
"215 305 LINE",
"378 305 LINE",
"378 462 LINE SMOOTH",
"378 575.333 OFFCURVE",
"312.333 616 OFFCURVE",
"203 616 CURVE SMOOTH",
"91.729 616 OFFCURVE",
"21 573.539 OFFCURVE",
"21 462 CURVE SMOOTH",
"21 190 LINE SMOOTH",
"21 77.027 OFFCURVE",
"51.157 18.662 OFFCURVE",
"122 -2 CURVE",
"87 -74 LINE",
"116 -88 LINE",
"78 -196 LINE",
"112.667 -214.667 OFFCURVE",
"150 -234 OFFCURVE",
"186 -234 CURVE SMOOTH"
);
},
{
closed = 1;
nodes = (
"175 -119 OFFCURVE",
"169.667 -115.667 OFFCURVE",
"163 -109 CURVE",
"167.667 -105.667 OFFCURVE",
"172.167 -103 OFFCURVE",
"176.5 -101 CURVE SMOOTH",
"180.833 -99 OFFCURVE",
"183.667 -98 OFFCURVE",
"185 -98 CURVE SMOOTH",
"187.667 -98 OFFCURVE",
"189 -103 OFFCURVE",
"189 -107 CURVE SMOOTH",
"189 -113.667 OFFCURVE",
"185.667 -119 OFFCURVE",
"179 -119 CURVE SMOOTH"
);
},
{
closed = 1;
nodes = (
"154 -215 OFFCURVE",
"126.333 -200.333 OFFCURVE",
"101 -187 CURVE",
"130 -102 LINE",
"142 -123.333 OFFCURVE",
"167 -137 OFFCURVE",
"179 -137 CURVE SMOOTH",
"197.667 -137 OFFCURVE",
"206 -121.667 OFFCURVE",
"206 -107 CURVE SMOOTH",
"206 -92.333 OFFCURVE",
"198.333 -79 OFFCURVE",
"185 -79 CURVE SMOOTH",
"179.667 -79 OFFCURVE",
"168.667 -83.667 OFFCURVE",
"162 -89 CURVE",
"111 -64 LINE",
"149 12 LINE",
"76.87 27.027 OFFCURVE",
"38 80.855 OFFCURVE",
"38 190 CURVE SMOOTH",
"38 462 LINE SMOOTH",
"38 559.469 OFFCURVE",
"103.266 598 OFFCURVE",
"203 598 CURVE SMOOTH",
"300.333 598 OFFCURVE",
"361 560.667 OFFCURVE",
"361 462 CURVE SMOOTH",
"361 324 LINE",
"208 324 LINE",
"208 470 LINE SMOOTH",
"208 482.667 OFFCURVE",
"206.333 489 OFFCURVE",
"203 489 CURVE SMOOTH",
"199 489 OFFCURVE",
"197 482.667 OFFCURVE",
"197 470 CURVE SMOOTH",
"197 131 LINE SMOOTH",
"197 118.333 OFFCURVE",
"199 112 OFFCURVE",
"203 112 CURVE SMOOTH",
"206.333 112 OFFCURVE",
"208 118.333 OFFCURVE",
"208 131 CURVE SMOOTH",
"208 269 LINE",
"361 269 LINE",
"361 191 LINE SMOOTH",
"361 62.557 OFFCURVE",
"320.923 13.995 OFFCURVE",
"228 8 CURVE",
"209 -21 LINE",
"217 -21 LINE SMOOTH",
"272.641 -21 OFFCURVE",
"301 -63.98 OFFCURVE",
"301 -105 CURVE SMOOTH",
"301 -167.363 OFFCURVE",
"262.856 -215 OFFCURVE",
"186 -215 CURVE SMOOTH"
);
},
{
closed = 1;
nodes = (
"257.177 -205 OFFCURVE",
"293 -161.536 OFFCURVE",
"293 -105 CURVE SMOOTH",
"293 -67.764 OFFCURVE",
"265.847 -31 OFFCURVE",
"217 -31 CURVE SMOOTH",
"211.667 -31 OFFCURVE",
"207.333 -31.5 OFFCURVE",
"204 -32.5 CURVE SMOOTH",
"200.667 -33.5 OFFCURVE",
"196.333 -34.333 OFFCURVE",
"191 -35 CURVE",
"224 18 LINE",
"312.541 20.951 OFFCURVE",
"352 64.034 OFFCURVE",
"352 191 CURVE SMOOTH",
"352 260 LINE",
"216 260 LINE",
"216 131 LINE SMOOTH",
"216 119.667 OFFCURVE",
"214.667 112.167 OFFCURVE",
"212 108.5 CURVE SMOOTH",
"209.333 104.833 OFFCURVE",
"206.333 103 OFFCURVE",
"203 103 CURVE SMOOTH",
"198.333 103 OFFCURVE",
"194.833 104.833 OFFCURVE",
"192.5 108.5 CURVE SMOOTH",
"190.167 112.167 OFFCURVE",
"189 119.667 OFFCURVE",
"189 131 CURVE SMOOTH",
"189 470 LINE SMOOTH",
"189 480.667 OFFCURVE",
"190.167 488 OFFCURVE",
"192.5 492 CURVE SMOOTH",
"194.833 496 OFFCURVE",
"198.333 498 OFFCURVE",
"203 498 CURVE SMOOTH",
"206.333 498 OFFCURVE",
"209.333 496 OFFCURVE",
"212 492 CURVE SMOOTH",
"214.667 488 OFFCURVE",
"216 480.667 OFFCURVE",
"216 470 CURVE SMOOTH",
"216 333 LINE",
"352 333 LINE",
"352 462 LINE SMOOTH",
"352 555.333 OFFCURVE",
"296.333 588 OFFCURVE",
"203 588 CURVE SMOOTH",
"107.897 588 OFFCURVE",
"47 554.588 OFFCURVE",
"47 462 CURVE SMOOTH",
"47 190 LINE SMOOTH",
"47 75.264 OFFCURVE",
"82.319 29.079 OFFCURVE",
"161 20 CURVE",
"123 -60 LINE",
"161 -78 LINE",
"167.667 -74 OFFCURVE",
"179.667 -70 OFFCURVE",
"185 -70 CURVE SMOOTH",
"224.571 -70 OFFCURVE",
"225.033 -147 OFFCURVE",
"179 -147 CURVE SMOOTH",
"164.333 -147 OFFCURVE",
"138.667 -137.667 OFFCURVE",
"132 -123 CURVE",
"111 -182 LINE",
"132.333 -192.667 OFFCURVE",
"155.333 -205 OFFCURVE",
"186 -205 CURVE SMOOTH"
);
}
);
userData = {
assembly = "PUSHW[ ]	/* 4 values pushed */\012178 6 126 4 \012CALL[ ]	/* CallFunction */\012PUSHW[ ]	/* 4 values pushed */\012103 6 38 4 \012CALL[ ]	/* CallFunction */\012PUSHW[ ]	/* 3 values pushed */\0120 126 178 \012SRP1[ ]	/* SetRefPoint1 */\012SRP2[ ]	/* SetRefPoint2 */\012IP[ ]	/* InterpolatePts */\012PUSHW[ ]	/* 3 values pushed */\01247 38 103 \012SRP1[ ]	/* SetRefPoint1 */\012SRP2[ ]	/* SetRefPoint2 */\012IP[ ]	/* InterpolatePts */\012PUSHW[ ]	/* 1 value pushed */\01247 \012MDAP[1]	/* MoveDirectAbsPt */\012PUSHW[ ]	/* 2 values pushed */\012150 6 \012MIRP[10100]	/* MoveIndirectRelPt */\012PUSHW[ ]	/* 1 value pushed */\01216 \012MDRP[10000]	/* MoveDirectRelPt */\012PUSHW[ ]	/* 1 value pushed */\01216 \012MDAP[1]	/* MoveDirectAbsPt */\012PUSHW[ ]	/* 1 value pushed */\012150 \012SRP0[ ]	/* SetRefPoint0 */\012PUSHW[ ]	/* 1 value pushed */\01230 \012MDRP[10000]	/* MoveDirectRelPt */\012PUSHW[ ]	/* 1 value pushed */\01230 \012MDAP[1]	/* MoveDirectAbsPt */\012PUSHW[ ]	/* 3 values pushed */\01256 126 178 \012SRP1[ ]	/* SetRefPoint1 */\012SRP2[ ]	/* SetRefPoint2 */\012IP[ ]	/* InterpolatePts */\012PUSHW[ ]	/* 3 values pushed */\01282 126 178 \012SRP1[ ]	/* SetRefPoint1 */\012SRP2[ ]	/* SetRefPoint2 */\012IP[ ]	/* InterpolatePts */\012PUSHW[ ]	/* 1 value pushed */\012150 \012SRP0[ ]	/* SetRefPoint0 */\012PUSHW[ ]	/* 1 value pushed */\012105 \012MDRP[10000]	/* MoveDirectRelPt */\012PUSHW[ ]	/* 1 value pushed */\012105 \012MDAP[1]	/* MoveDirectAbsPt */\012PUSHW[ ]	/* 3 values pushed */\01297 150 105 \012SRP1[ ]	/* SetRefPoint1 */\012SRP2[ ]	/* SetRefPoint2 */\012IP[ ]	/* InterpolatePts */\012PUSHW[ ]	/* 1 value pushed */\012150 \012SRP0[ ]	/* SetRefPoint0 */\012PUSHW[ ]	/* 1 value pushed */\012115 \012MDRP[10000]	/* MoveDirectRelPt */\012PUSHW[ ]	/* 1 value pushed */\012115 \012MDAP[1]	/* MoveDirectAbsPt */\012PUSHW[ ]	/* 1 value pushed */\012103 \012SRP0[ ]	/* SetRefPoint0 */\012PUSHW[ ]	/* 1 value pushed */\012117 \012MDRP[10000]	/* MoveDirectRelPt */\012PUSHW[ ]	/* 3 values pushed */\012132 126 178 \012SRP1[ ]	/* SetRefPoint1 */\012SRP2[ ]	/* SetRefPoint2 */\012IP[ ]	/* InterpolatePts */\012PUSHW[ ]	/* 3 values pushed */\012157 38 103 \012SRP1[ ]	/* SetRefPoint1 */\012SRP2[ ]	/* SetRefPoint2 */\012IP[ ]	/* InterpolatePts */\012PUSHW[ ]	/* 1 value pushed */\012103 \012SRP0[ ]	/* SetRefPoint0 */\012PUSHW[ ]	/* 1 value pushed */\012185 \012MDRP[11100]	/* MoveDirectRelPt */\012SVTCA[0]	/* SetFreedomAndProjectionVectorToAxis */\012PUSHW[ ]	/* 4 values pushed */\01259 2 52 4 \012CALL[ ]	/* CallFunction */\012PUSHW[ ]	/* 3 values pushed */\01242 64 3 \012CALL[ ]	/* CallFunction */\012PUSHW[ ]	/* 4 values pushed */\01227 2 0 4 \012CALL[ ]	/* CallFunction */\012PUSHW[ ]	/* 1 value pushed */\0120 \012SRP0[ ]	/* SetRefPoint0 */\012PUSHW[ ]	/* 1 value pushed */\01238 \012MDRP[10000]	/* MoveDirectRelPt */\012PUSHW[ ]	/* 1 value pushed */\01238 \012MDAP[1]	/* MoveDirectAbsPt */\012PUSHW[ ]	/* 3 values pushed */\01239 64 42 \012SRP1[ ]	/* SetRefPoint1 */\012SRP2[ ]	/* SetRefPoint2 */\012IP[ ]	/* InterpolatePts */\012IUP[0]	/* InterpolateUntPts */\012IUP[1]	/* InterpolateUntPts */";
};
width = 412;
}
);
note = Ccedilla;
unicode = 00C7;
},
{
color = 11;
glyphname = Ccircumflex;
lastChange = "2021-11-22 23:10:22 +0000";
layers = (
{
layerId = "04A772B0-FA71-43EE-BB43-CAC7F0EBD631";
paths = (
{
closed = 1;
nodes = (
"324.635 -11 OFFCURVE",
"378 28.708 OFFCURVE",
"378 186 CURVE SMOOTH",
"378 280 LINE",
"215 280 LINE",
"215 298 LINE",
"378 298 LINE",
"378 451 LINE SMOOTH",
"378 560.333 OFFCURVE",
"312.333 601 OFFCURVE",
"203 601 CURVE SMOOTH",
"92.529 601 OFFCURVE",
"21 559.266 OFFCURVE",
"21 451 CURVE SMOOTH",
"21 185 LINE SMOOTH",
"21 29.06 OFFCURVE",
"80.694 -11 OFFCURVE",
"203 -11 CURVE SMOOTH"
);
},
{
closed = 1;
nodes = (
"92.964 7 OFFCURVE",
"38 44.019 OFFCURVE",
"38 185 CURVE SMOOTH",
"38 451 LINE SMOOTH",
"38 547.028 OFFCURVE",
"104.283 583 OFFCURVE",
"203 583 CURVE SMOOTH",
"301.667 583 OFFCURVE",
"361 547 OFFCURVE",
"361 451 CURVE SMOOTH",
"361 316 LINE",
"208 316 LINE",
"208 458 LINE SMOOTH",
"208 465.333 OFFCURVE",
"207.5 470.167 OFFCURVE",
"206.5 472.5 CURVE SMOOTH",
"205.5 474.833 OFFCURVE",
"204.333 476 OFFCURVE",
"203 476 CURVE SMOOTH",
"201 476 OFFCURVE",
"199.5 474.833 OFFCURVE",
"198.5 472.5 CURVE SMOOTH",
"197.5 470.167 OFFCURVE",
"197 465.333 OFFCURVE",
"197 458 CURVE SMOOTH",
"197 127 LINE SMOOTH",
"197 115 OFFCURVE",
"199 109 OFFCURVE",
"203 109 CURVE SMOOTH",
"206.333 109 OFFCURVE",
"208 115 OFFCURVE",
"208 127 CURVE SMOOTH",
"208 262 LINE",
"361 262 LINE",
"361 186 LINE SMOOTH",
"361 44.419 OFFCURVE",
"312.044 7 OFFCURVE",
"203 7 CURVE SMOOTH"
);
},
{
closed = 1;
nodes = (
"307.982 16 OFFCURVE",
"352 50.752 OFFCURVE",
"352 186 CURVE SMOOTH",
"352 253 LINE",
"216 253 LINE",
"216 127 LINE SMOOTH",
"216 117 OFFCURVE",
"214.667 110 OFFCURVE",
"212 106 CURVE SMOOTH",
"209.333 102 OFFCURVE",
"206.333 100 OFFCURVE",
"203 100 CURVE SMOOTH",
"198.333 100 OFFCURVE",
"194.833 102 OFFCURVE",
"192.5 106 CURVE SMOOTH",
"190.167 110 OFFCURVE",
"189 117 OFFCURVE",
"189 127 CURVE SMOOTH",
"189 458 LINE SMOOTH",
"189 468.667 OFFCURVE",
"190.167 475.833 OFFCURVE",
"192.5 479.5 CURVE SMOOTH",
"194.833 483.167 OFFCURVE",
"198.333 485 OFFCURVE",
"203 485 CURVE SMOOTH",
"206.333 485 OFFCURVE",
"209.333 483.167 OFFCURVE",
"212 479.5 CURVE SMOOTH",
"214.667 475.833 OFFCURVE",
"216 468.667 OFFCURVE",
"216 458 CURVE SMOOTH",
"216 325 LINE",
"352 325 LINE",
"352 451 LINE SMOOTH",
"352 541.667 OFFCURVE",
"296.333 574 OFFCURVE",
"203 574 CURVE SMOOTH",
"108.333 574 OFFCURVE",
"47 540.333 OFFCURVE",
"47 451 CURVE SMOOTH",
"47 185 LINE SMOOTH",
"47 50.346 OFFCURVE",
"97 16 OFFCURVE",
"203 16 CURVE SMOOTH"
);
},
{
closed = 1;
nodes = (
"167 632 LINE",
"199 664 LINE",
"230 632 LINE",
"379 632 LINE",
"242 749 LINE",
"156 749 LINE",
"20 632 LINE"
);
},
{
closed = 1;
nodes = (
"164 736 LINE",
"235 736 LINE",
"342 645 LINE",
"238 645 LINE",
"199 687 LINE",
"159 645 LINE",
"58 645 LINE"
);
},
{
closed = 1;
nodes = (
"155 652 LINE",
"199 698 LINE",
"242 652 LINE",
"323 652 LINE",
"231 729 LINE",
"167 729 LINE",
"77 652 LINE"
);
}
);
userData = {
assembly = "PUSHW[ ]	/* 4 values pushed */\01297 5 101 4 \012CALL[ ]	/* CallFunction */\012PUSHW[ ]	/* 1 value pushed */\01297 \012SRP0[ ]	/* SetRefPoint0 */\012PUSHW[ ]	/* 1 value pushed */\012118 \012MDRP[11100]	/* MoveDirectRelPt */\012SVTCA[0]	/* SetFreedomAndProjectionVectorToAxis */\012PUSHW[ ]	/* 4 values pushed */\01296 2 98 4 \012CALL[ ]	/* CallFunction */\012PUSHW[ ]	/* 1 value pushed */\01298 \012SRP0[ ]	/* SetRefPoint0 */\012PUSHW[ ]	/* 1 value pushed */\012100 \012MDRP[10000]	/* MoveDirectRelPt */\012PUSHW[ ]	/* 1 value pushed */\01296 \012SRP0[ ]	/* SetRefPoint0 */\012PUSHW[ ]	/* 1 value pushed */\012103 \012MDRP[10000]	/* MoveDirectRelPt */\012PUSHW[ ]	/* 1 value pushed */\012103 \012MDAP[1]	/* MoveDirectAbsPt */\012PUSHW[ ]	/* 1 value pushed */\01298 \012SRP0[ ]	/* SetRefPoint0 */\012PUSHW[ ]	/* 1 value pushed */\012104 \012MDRP[10000]	/* MoveDirectRelPt */\012PUSHW[ ]	/* 1 value pushed */\012104 \012MDAP[1]	/* MoveDirectAbsPt */\012PUSHW[ ]	/* 1 value pushed */\01298 \012SRP0[ ]	/* SetRefPoint0 */\012PUSHW[ ]	/* 1 value pushed */\012107 \012MDRP[10000]	/* MoveDirectRelPt */\012PUSHW[ ]	/* 1 value pushed */\012107 \012MDAP[1]	/* MoveDirectAbsPt */\012IUP[0]	/* InterpolateUntPts */\012IUP[1]	/* InterpolateUntPts */";
};
width = 412;
}
);
note = Ccircumflex;
unicode = 0108;
},
{
color = 11;
glyphname = Cdotaccent;
lastChange = "2021-11-22 23:10:22 +0000";
layers = (
{
layerId = "04A772B0-FA71-43EE-BB43-CAC7F0EBD631";
paths = (
{
closed = 1;
nodes = (
"324.635 -11 OFFCURVE",
"378 28.708 OFFCURVE",
"378 186 CURVE SMOOTH",
"378 280 LINE",
"215 280 LINE",
"215 298 LINE",
"378 298 LINE",
"378 451 LINE SMOOTH",
"378 560.333 OFFCURVE",
"312.333 601 OFFCURVE",
"203 601 CURVE SMOOTH",
"92.529 601 OFFCURVE",
"21 559.266 OFFCURVE",
"21 451 CURVE SMOOTH",
"21 185 LINE SMOOTH",
"21 29.06 OFFCURVE",
"80.694 -11 OFFCURVE",
"203 -11 CURVE SMOOTH"
);
},
{
closed = 1;
nodes = (
"92.964 7 OFFCURVE",
"38 44.019 OFFCURVE",
"38 185 CURVE SMOOTH",
"38 451 LINE SMOOTH",
"38 547.028 OFFCURVE",
"104.283 583 OFFCURVE",
"203 583 CURVE SMOOTH",
"301.667 583 OFFCURVE",
"361 547 OFFCURVE",
"361 451 CURVE SMOOTH",
"361 316 LINE",
"208 316 LINE",
"208 458 LINE SMOOTH",
"208 465.333 OFFCURVE",
"207.5 470.167 OFFCURVE",
"206.5 472.5 CURVE SMOOTH",
"205.5 474.833 OFFCURVE",
"204.333 476 OFFCURVE",
"203 476 CURVE SMOOTH",
"201 476 OFFCURVE",
"199.5 474.833 OFFCURVE",
"198.5 472.5 CURVE SMOOTH",
"197.5 470.167 OFFCURVE",
"197 465.333 OFFCURVE",
"197 458 CURVE SMOOTH",
"197 127 LINE SMOOTH",
"197 115 OFFCURVE",
"199 109 OFFCURVE",
"203 109 CURVE SMOOTH",
"206.333 109 OFFCURVE",
"208 115 OFFCURVE",
"208 127 CURVE SMOOTH",
"208 262 LINE",
"361 262 LINE",
"361 186 LINE SMOOTH",
"361 44.419 OFFCURVE",
"312.044 7 OFFCURVE",
"203 7 CURVE SMOOTH"
);
},
{
closed = 1;
nodes = (
"307.982 16 OFFCURVE",
"352 50.752 OFFCURVE",
"352 186 CURVE SMOOTH",
"352 253 LINE",
"216 253 LINE",
"216 127 LINE SMOOTH",
"216 117 OFFCURVE",
"214.667 110 OFFCURVE",
"212 106 CURVE SMOOTH",
"209.333 102 OFFCURVE",
"206.333 100 OFFCURVE",
"203 100 CURVE SMOOTH",
"198.333 100 OFFCURVE",
"194.833 102 OFFCURVE",
"192.5 106 CURVE SMOOTH",
"190.167 110 OFFCURVE",
"189 117 OFFCURVE",
"189 127 CURVE SMOOTH",
"189 458 LINE SMOOTH",
"189 468.667 OFFCURVE",
"190.167 475.833 OFFCURVE",
"192.5 479.5 CURVE SMOOTH",
"194.833 483.167 OFFCURVE",
"198.333 485 OFFCURVE",
"203 485 CURVE SMOOTH",
"206.333 485 OFFCURVE",
"209.333 483.167 OFFCURVE",
"212 479.5 CURVE SMOOTH",
"214.667 475.833 OFFCURVE",
"216 468.667 OFFCURVE",
"216 458 CURVE SMOOTH",
"216 325 LINE",
"352 325 LINE",
"352 451 LINE SMOOTH",
"352 541.667 OFFCURVE",
"296.333 574 OFFCURVE",
"203 574 CURVE SMOOTH",
"108.333 574 OFFCURVE",
"47 540.333 OFFCURVE",
"47 451 CURVE SMOOTH",
"47 185 LINE SMOOTH",
"47 50.346 OFFCURVE",
"97 16 OFFCURVE",
"203 16 CURVE SMOOTH"
);
},
{
closed = 1;
nodes = (
"230 636 OFFCURVE",
"257 661.333 OFFCURVE",
"257 692 CURVE SMOOTH",
"257 724 OFFCURVE",
"230 749 OFFCURVE",
"198 749 CURVE SMOOTH",
"164.667 749 OFFCURVE",
"139 724 OFFCURVE",
"139 692 CURVE SMOOTH",
"139 661.333 OFFCURVE",
"164.667 636 OFFCURVE",
"198 636 CURVE SMOOTH"
);
},
{
closed = 1;
nodes = (
"171.333 649 OFFCURVE",
"153 669.333 OFFCURVE",
"153 692 CURVE SMOOTH",
"153 717.333 OFFCURVE",
"171.333 736 OFFCURVE",
"198 736 CURVE SMOOTH",
"223.333 736 OFFCURVE",
"244 717.333 OFFCURVE",
"244 692 CURVE SMOOTH",
"244 669.333 OFFCURVE",
"223.333 649 OFFCURVE",
"198 649 CURVE SMOOTH"
);
},
{
closed = 1;
nodes = (
"220.667 656 OFFCURVE",
"238 672 OFFCURVE",
"238 692 CURVE SMOOTH",
"238 713.333 OFFCURVE",
"220.667 730 OFFCURVE",
"198 730 CURVE SMOOTH",
"175.333 730 OFFCURVE",
"159 713.333 OFFCURVE",
"159 692 CURVE SMOOTH",
"159 672 OFFCURVE",
"175.333 656 OFFCURVE",
"198 656 CURVE SMOOTH"
);
}
);
userData = {
assembly = "PUSHW[ ]	/* 4 values pushed */\012102 6 96 4 \012CALL[ ]	/* CallFunction */\012NPUSHW[ ]	/* 9 values pushed */\0126 102 22 102 38 102 54 102 4 \012DELTAP1[ ]	/* DeltaExceptionP1 */\012PUSHW[ ]	/* 1 value pushed */\01296 \012SRP0[ ]	/* SetRefPoint0 */\012PUSHW[ ]	/* 1 value pushed */\012108 \012MDRP[10000]	/* MoveDirectRelPt */\012PUSHW[ ]	/* 1 value pushed */\012108 \012MDAP[1]	/* MoveDirectAbsPt */\012PUSHW[ ]	/* 1 value pushed */\012102 \012SRP0[ ]	/* SetRefPoint0 */\012PUSHW[ ]	/* 1 value pushed */\012114 \012MDRP[10000]	/* MoveDirectRelPt */\012PUSHW[ ]	/* 1 value pushed */\012114 \012MDAP[1]	/* MoveDirectAbsPt */\012SVTCA[0]	/* SetFreedomAndProjectionVectorToAxis */\012PUSHW[ ]	/* 4 values pushed */\01299 2 105 4 \012CALL[ ]	/* CallFunction */\012PUSHW[ ]	/* 1 value pushed */\012105 \012SRP0[ ]	/* SetRefPoint0 */\012PUSHW[ ]	/* 1 value pushed */\012111 \012MDRP[10000]	/* MoveDirectRelPt */\012PUSHW[ ]	/* 1 value pushed */\012111 \012MDAP[1]	/* MoveDirectAbsPt */\012PUSHW[ ]	/* 1 value pushed */\01299 \012SRP0[ ]	/* SetRefPoint0 */\012PUSHW[ ]	/* 1 value pushed */\012117 \012MDRP[10000]	/* MoveDirectRelPt */\012PUSHW[ ]	/* 1 value pushed */\012117 \012MDAP[1]	/* MoveDirectAbsPt */\012IUP[0]	/* InterpolateUntPts */\012IUP[1]	/* InterpolateUntPts */";
};
width = 412;
}
);
note = Cdotaccent;
unicode = 010A;
},
{
glyphname = D;
lastChange = "2021-11-22 23:10:22 +0000";
layers = (
{
layerId = "04A772B0-FA71-43EE-BB43-CAC7F0EBD631";
paths = (
{
closed = 1;
nodes = (
"229 0 LINE SMOOTH",
"325 0 OFFCURVE",
"382 34.333 OFFCURVE",
"382 141 CURVE SMOOTH",
"382 472 LINE SMOOTH",
"382 542.667 OFFCURVE",
"343.333 591 OFFCURVE",
"250 591 CURVE SMOOTH",
"25 591 LINE",
"25 0 LINE"
);
},
{
closed = 1;
nodes = (
"193 484 LINE",
"206 484 LINE SMOOTH",
"210.667 484 OFFCURVE",
"214.333 482.167 OFFCURVE",
"217 478.5 CURVE SMOOTH",
"219.667 474.833 OFFCURVE",
"221 467.667 OFFCURVE",
"221 457 CURVE SMOOTH",
"221 127 LINE SMOOTH",
"221 116.333 OFFCURVE",
"219.667 109.167 OFFCURVE",
"217 105.5 CURVE SMOOTH",
"214.333 101.833 OFFCURVE",
"210.667 100 OFFCURVE",
"206 100 CURVE SMOOTH",
"193 100 LINE"
);
},
{
closed = 1;
nodes = (
"206 109 LINE SMOOTH",
"207.333 109 OFFCURVE",
"208.667 110.167 OFFCURVE",
"210 112.5 CURVE SMOOTH",
"211.333 114.833 OFFCURVE",
"212 119.667 OFFCURVE",
"212 127 CURVE SMOOTH",
"212 457 LINE SMOOTH",
"212 469 OFFCURVE",
"210 475 OFFCURVE",
"206 475 CURVE SMOOTH",
"202 475 LINE",
"202 109 LINE"
);
},
{
closed = 1;
nodes = (
"43 573 LINE",
"250 573 LINE SMOOTH",
"331.333 573 OFFCURVE",
"365 532 OFFCURVE",
"365 472 CURVE SMOOTH",
"365 141 LINE SMOOTH",
"365 49.677 OFFCURVE",
"316.261 18 OFFCURVE",
"229 18 CURVE SMOOTH",
"43 18 LINE"
);
},
{
closed = 1;
nodes = (
"229 27 LINE SMOOTH",
"309 27 OFFCURVE",
"357 54.333 OFFCURVE",
"357 141 CURVE SMOOTH",
"357 472 LINE SMOOTH",
"357 526.667 OFFCURVE",
"326 564 OFFCURVE",
"250 564 CURVE SMOOTH",
"51 564 LINE",
"51 27 LINE"
);
}
);
userData = {
assembly = "PUSHW[ ]	/* 4 values pushed */\01235 6 8 4 \012CALL[ ]	/* CallFunction */\012PUSHW[ ]	/* 1 value pushed */\01235 \012SRP0[ ]	/* SetRefPoint0 */\012PUSHW[ ]	/* 1 value pushed */\01252 \012MDRP[11100]	/* MoveDirectRelPt */\012SVTCA[0]	/* SetFreedomAndProjectionVectorToAxis */\012PUSHW[ ]	/* 4 values pushed */\01216 2 8 4 \012CALL[ ]	/* CallFunction */\012IUP[0]	/* InterpolateUntPts */\012IUP[1]	/* InterpolateUntPts */";
};
width = 412;
}
);
note = D;
unicode = 0044;
},
{
glyphname = Eth;
lastChange = "2021-11-22 23:10:22 +0000";
layers = (
{
layerId = "04A772B0-FA71-43EE-BB43-CAC7F0EBD631";
paths = (
{
closed = 1;
nodes = (
"251 0 LINE SMOOTH",
"408.338 0 OFFCURVE",
"419 63.675 OFFCURVE",
"419 232 CURVE SMOOTH",
"419 380 LINE SMOOTH",
"419 543.544 OFFCURVE",
"414.227 591 OFFCURVE",
"258 591 CURVE SMOOTH",
"35 591 LINE",
"35 300 LINE",
"3 300 LINE",
"3 163 LINE",
"35 163 LINE",
"35 0 LINE"
);
},
{
closed = 1;
nodes = (
"52 182 LINE",
"21 182 LINE",
"21 282 LINE",
"52 282 LINE",
"52 573 LINE",
"258 573 LINE SMOOTH",
"399.414 573 OFFCURVE",
"402 526.899 OFFCURVE",
"402 380 CURVE SMOOTH",
"402 232 LINE SMOOTH",
"402 76.527 OFFCURVE",
"391.177 18 OFFCURVE",
"251 18 CURVE SMOOTH",
"52 18 LINE"
);
},
{
closed = 1;
nodes = (
"251 27 LINE SMOOTH",
"383.984 27 OFFCURVE",
"393 84.527 OFFCURVE",
"393 232 CURVE SMOOTH",
"393 380 LINE SMOOTH",
"393 520.816 OFFCURVE",
"390.118 564 OFFCURVE",
"258 564 CURVE SMOOTH",
"61 564 LINE",
"61 273 LINE",
"29 273 LINE",
"29 191 LINE",
"61 191 LINE",
"61 27 LINE"
);
},
{
closed = 1;
nodes = (
"208 191 LINE",
"225 191 LINE",
"225 273 LINE",
"208 273 LINE",
"208 488 LINE",
"228 488 LINE SMOOTH",
"241.333 488 OFFCURVE",
"250 482.333 OFFCURVE",
"250 461 CURVE SMOOTH",
"250 129 LINE SMOOTH",
"250 106.333 OFFCURVE",
"241.333 101 OFFCURVE",
"228 101 CURVE SMOOTH",
"208 101 LINE"
);
},
{
closed = 1;
nodes = (
"228 110 LINE SMOOTH",
"236 110 OFFCURVE",
"241 114.333 OFFCURVE",
"241 129 CURVE SMOOTH",
"241 326 LINE SMOOTH",
"241 342 OFFCURVE",
"241.167 362 OFFCURVE",
"241.5 386 CURVE SMOOTH",
"242 461 LINE SMOOTH",
"242 475.667 OFFCURVE",
"236 479 OFFCURVE",
"228 479 CURVE SMOOTH",
"216 479 LINE",
"216 282 LINE",
"234 282 LINE",
"234 182 LINE",
"216 182 LINE",
"216 110 LINE"
);
}
);
userData = {
assembly = "PUSHW[ ]	/* 4 values pushed */\0127 6 18 4 \012CALL[ ]	/* CallFunction */\012PUSHW[ ]	/* 1 value pushed */\01218 \012SRP0[ ]	/* SetRefPoint0 */\012PUSHW[ ]	/* 1 value pushed */\01231 \012MDRP[10000]	/* MoveDirectRelPt */\012PUSHW[ ]	/* 1 value pushed */\0127 \012SRP0[ ]	/* SetRefPoint0 */\012PUSHW[ ]	/* 1 value pushed */\01287 \012MDRP[11100]	/* MoveDirectRelPt */\012SVTCA[0]	/* SetFreedomAndProjectionVectorToAxis */\012PUSHW[ ]	/* 4 values pushed */\01228 2 13 4 \012CALL[ ]	/* CallFunction */\012PUSHW[ ]	/* 4 values pushed */\0120 2 15 4 \012CALL[ ]	/* CallFunction */\012PUSHW[ ]	/* 1 value pushed */\0120 \012SRP0[ ]	/* SetRefPoint0 */\012PUSHW[ ]	/* 1 value pushed */\01223 \012MDRP[10000]	/* MoveDirectRelPt */\012PUSHW[ ]	/* 1 value pushed */\01215 \012SRP0[ ]	/* SetRefPoint0 */\012PUSHW[ ]	/* 1 value pushed */\01225 \012MDRP[10000]	/* MoveDirectRelPt */\012IUP[0]	/* InterpolateUntPts */\012IUP[1]	/* InterpolateUntPts */";
};
width = 448;
}
);
note = Eth;
rightKerningGroup = parenright;
unicode = 00D0;
},
{
color = 11;
glyphname = Dcaron;
lastChange = "2021-11-22 23:10:22 +0000";
layers = (
{
layerId = "04A772B0-FA71-43EE-BB43-CAC7F0EBD631";
paths = (
{
closed = 1;
nodes = (
"229 0 LINE SMOOTH",
"325 0 OFFCURVE",
"382 34.333 OFFCURVE",
"382 141 CURVE SMOOTH",
"382 472 LINE SMOOTH",
"382 542.667 OFFCURVE",
"343.333 591 OFFCURVE",
"250 591 CURVE SMOOTH",
"25 591 LINE",
"25 0 LINE"
);
},
{
closed = 1;
nodes = (
"193 484 LINE",
"206 484 LINE SMOOTH",
"210.667 484 OFFCURVE",
"214.333 482.167 OFFCURVE",
"217 478.5 CURVE SMOOTH",
"219.667 474.833 OFFCURVE",
"221 467.667 OFFCURVE",
"221 457 CURVE SMOOTH",
"221 127 LINE SMOOTH",
"221 116.333 OFFCURVE",
"219.667 109.167 OFFCURVE",
"217 105.5 CURVE SMOOTH",
"214.333 101.833 OFFCURVE",
"210.667 100 OFFCURVE",
"206 100 CURVE SMOOTH",
"193 100 LINE"
);
},
{
closed = 1;
nodes = (
"206 109 LINE SMOOTH",
"207.333 109 OFFCURVE",
"208.667 110.167 OFFCURVE",
"210 112.5 CURVE SMOOTH",
"211.333 114.833 OFFCURVE",
"212 119.667 OFFCURVE",
"212 127 CURVE SMOOTH",
"212 457 LINE SMOOTH",
"212 469 OFFCURVE",
"210 475 OFFCURVE",
"206 475 CURVE SMOOTH",
"202 475 LINE",
"202 109 LINE"
);
},
{
closed = 1;
nodes = (
"43 573 LINE",
"250 573 LINE SMOOTH",
"331.333 573 OFFCURVE",
"365 532 OFFCURVE",
"365 472 CURVE SMOOTH",
"365 141 LINE SMOOTH",
"365 49.677 OFFCURVE",
"316.261 18 OFFCURVE",
"229 18 CURVE SMOOTH",
"43 18 LINE"
);
},
{
closed = 1;
nodes = (
"229 27 LINE SMOOTH",
"309 27 OFFCURVE",
"357 54.333 OFFCURVE",
"357 141 CURVE SMOOTH",
"357 472 LINE SMOOTH",
"357 526.667 OFFCURVE",
"326 564 OFFCURVE",
"250 564 CURVE SMOOTH",
"51 564 LINE",
"51 27 LINE"
);
},
{
closed = 1;
nodes = (
"233 633 LINE",
"370 750 LINE",
"221 750 LINE",
"190 718 LINE",
"158 750 LINE",
"11 750 LINE",
"147 633 LINE"
);
},
{
closed = 1;
nodes = (
"49 737 LINE",
"150 737 LINE",
"190 695 LINE",
"229 737 LINE",
"333 737 LINE",
"226 646 LINE",
"155 646 LINE"
);
},
{
closed = 1;
nodes = (
"222 653 LINE",
"314 730 LINE",
"233 730 LINE",
"190 684 LINE",
"146 730 LINE",
"68 730 LINE",
"158 653 LINE"
);
}
);
userData = {
assembly = "PUSHW[ ]	/* 4 values pushed */\01236 6 58 4 \012CALL[ ]	/* CallFunction */\012PUSHW[ ]	/* 1 value pushed */\01258 \012SRP0[ ]	/* SetRefPoint0 */\012PUSHW[ ]	/* 1 value pushed */\01210 \012MDRP[10000]	/* MoveDirectRelPt */\012PUSHW[ ]	/* 1 value pushed */\01210 \012MDAP[1]	/* MoveDirectAbsPt */\012PUSHW[ ]	/* 3 values pushed */\01256 58 36 \012SRP1[ ]	/* SetRefPoint1 */\012SRP2[ ]	/* SetRefPoint2 */\012IP[ ]	/* InterpolatePts */\012PUSHW[ ]	/* 1 value pushed */\01236 \012SRP0[ ]	/* SetRefPoint0 */\012PUSHW[ ]	/* 1 value pushed */\01273 \012MDRP[11100]	/* MoveDirectRelPt */\012SVTCA[0]	/* SetFreedomAndProjectionVectorToAxis */\012PUSHW[ ]	/* 4 values pushed */\01216 2 8 4 \012CALL[ ]	/* CallFunction */\012IUP[0]	/* InterpolateUntPts */\012IUP[1]	/* InterpolateUntPts */";
};
width = 412;
}
);
note = Dcaron;
unicode = 010E;
},
{
color = 11;
glyphname = Dcroat;
lastChange = "2021-11-22 23:10:22 +0000";
layers = (
{
layerId = "04A772B0-FA71-43EE-BB43-CAC7F0EBD631";
paths = (
{
closed = 1;
nodes = (
"251 0 LINE SMOOTH",
"408.338 0 OFFCURVE",
"419 63.675 OFFCURVE",
"419 232 CURVE SMOOTH",
"419 380 LINE SMOOTH",
"419 543.544 OFFCURVE",
"414.227 591 OFFCURVE",
"258 591 CURVE SMOOTH",
"35 591 LINE",
"35 300 LINE",
"3 300 LINE",
"3 163 LINE",
"35 163 LINE",
"35 0 LINE"
);
},
{
closed = 1;
nodes = (
"52 182 LINE",
"21 182 LINE",
"21 282 LINE",
"52 282 LINE",
"52 573 LINE",
"258 573 LINE SMOOTH",
"399.414 573 OFFCURVE",
"402 526.899 OFFCURVE",
"402 380 CURVE SMOOTH",
"402 232 LINE SMOOTH",
"402 76.527 OFFCURVE",
"391.177 18 OFFCURVE",
"251 18 CURVE SMOOTH",
"52 18 LINE"
);
},
{
closed = 1;
nodes = (
"251 27 LINE SMOOTH",
"383.984 27 OFFCURVE",
"393 84.527 OFFCURVE",
"393 232 CURVE SMOOTH",
"393 380 LINE SMOOTH",
"393 520.816 OFFCURVE",
"390.118 564 OFFCURVE",
"258 564 CURVE SMOOTH",
"61 564 LINE",
"61 273 LINE",
"29 273 LINE",
"29 191 LINE",
"61 191 LINE",
"61 27 LINE"
);
},
{
closed = 1;
nodes = (
"208 191 LINE",
"225 191 LINE",
"225 273 LINE",
"208 273 LINE",
"208 488 LINE",
"228 488 LINE SMOOTH",
"241.333 488 OFFCURVE",
"250 482.333 OFFCURVE",
"250 461 CURVE SMOOTH",
"250 129 LINE SMOOTH",
"250 106.333 OFFCURVE",
"241.333 101 OFFCURVE",
"228 101 CURVE SMOOTH",
"208 101 LINE"
);
},
{
closed = 1;
nodes = (
"228 110 LINE SMOOTH",
"236 110 OFFCURVE",
"241 114.333 OFFCURVE",
"241 129 CURVE SMOOTH",
"241 326 LINE SMOOTH",
"241 342 OFFCURVE",
"241.167 362 OFFCURVE",
"241.5 386 CURVE SMOOTH",
"242 461 LINE SMOOTH",
"242 475.667 OFFCURVE",
"236 479 OFFCURVE",
"228 479 CURVE SMOOTH",
"216 479 LINE",
"216 282 LINE",
"234 282 LINE",
"234 182 LINE",
"216 182 LINE",
"216 110 LINE"
);
}
);
userData = {
assembly = "PUSHW[ ]	/* 4 values pushed */\0127 6 18 4 \012CALL[ ]	/* CallFunction */\012PUSHW[ ]	/* 1 value pushed */\01218 \012SRP0[ ]	/* SetRefPoint0 */\012PUSHW[ ]	/* 1 value pushed */\01231 \012MDRP[10000]	/* MoveDirectRelPt */\012PUSHW[ ]	/* 1 value pushed */\0127 \012SRP0[ ]	/* SetRefPoint0 */\012PUSHW[ ]	/* 1 value pushed */\01287 \012MDRP[11100]	/* MoveDirectRelPt */\012SVTCA[0]	/* SetFreedomAndProjectionVectorToAxis */\012PUSHW[ ]	/* 4 values pushed */\01228 2 13 4 \012CALL[ ]	/* CallFunction */\012PUSHW[ ]	/* 4 values pushed */\0120 2 15 4 \012CALL[ ]	/* CallFunction */\012PUSHW[ ]	/* 1 value pushed */\0120 \012SRP0[ ]	/* SetRefPoint0 */\012PUSHW[ ]	/* 1 value pushed */\01223 \012MDRP[10000]	/* MoveDirectRelPt */\012PUSHW[ ]	/* 1 value pushed */\01215 \012SRP0[ ]	/* SetRefPoint0 */\012PUSHW[ ]	/* 1 value pushed */\01225 \012MDRP[10000]	/* MoveDirectRelPt */\012IUP[0]	/* InterpolateUntPts */\012IUP[1]	/* InterpolateUntPts */";
};
width = 448;
}
);
note = Dcroat;
rightKerningGroup = parenright;
unicode = 0110;
},
{
glyphname = E;
lastChange = "2021-11-22 23:10:22 +0000";
layers = (
{
layerId = "04A772B0-FA71-43EE-BB43-CAC7F0EBD631";
paths = (
{
closed = 1;
nodes = (
"311 0 LINE",
"311 153 LINE",
"211 153 LINE",
"211 218 LINE",
"302 218 LINE",
"302 386 LINE",
"211 386 LINE",
"211 436 LINE",
"311 436 LINE",
"311 591 LINE",
"25 591 LINE",
"25 0 LINE"
);
},
{
closed = 1;
nodes = (
"41 573 LINE",
"294 573 LINE",
"294 454 LINE",
"195 454 LINE",
"195 368 LINE",
"286 368 LINE",
"286 236 LINE",
"195 236 LINE",
"195 134 LINE",
"294 134 LINE",
"294 18 LINE",
"41 18 LINE"
);
},
{
closed = 1;
nodes = (
"286 27 LINE",
"286 125 LINE",
"187 125 LINE",
"187 245 LINE",
"278 245 LINE",
"278 359 LINE",
"187 359 LINE",
"187 463 LINE",
"286 463 LINE",
"286 564 LINE",
"49 564 LINE",
"49 27 LINE"
);
}
);
userData = {
assembly = "SVTCA[0]	/* SetFreedomAndProjectionVectorToAxis */\012PUSHW[ ]	/* 4 values pushed */\0129 3 10 4 \012CALL[ ]	/* CallFunction */\012IUP[0]	/* InterpolateUntPts */\012IUP[1]	/* InterpolateUntPts */";
};
width = 342;
}
);
note = E;
unicode = 0045;
},
{
color = 11;
glyphname = Eacute;
lastChange = "2021-11-22 23:10:22 +0000";
layers = (
{
layerId = "04A772B0-FA71-43EE-BB43-CAC7F0EBD631";
paths = (
{
closed = 1;
nodes = (
"311 0 LINE",
"311 153 LINE",
"211 153 LINE",
"211 218 LINE",
"302 218 LINE",
"302 386 LINE",
"211 386 LINE",
"211 436 LINE",
"311 436 LINE",
"311 591 LINE",
"25 591 LINE",
"25 0 LINE"
);
},
{
closed = 1;
nodes = (
"41 573 LINE",
"294 573 LINE",
"294 454 LINE",
"195 454 LINE",
"195 368 LINE",
"286 368 LINE",
"286 236 LINE",
"195 236 LINE",
"195 134 LINE",
"294 134 LINE",
"294 18 LINE",
"41 18 LINE"
);
},
{
closed = 1;
nodes = (
"286 27 LINE",
"286 125 LINE",
"187 125 LINE",
"187 245 LINE",
"278 245 LINE",
"278 359 LINE",
"187 359 LINE",
"187 463 LINE",
"286 463 LINE",
"286 564 LINE",
"49 564 LINE",
"49 27 LINE"
);
},
{
closed = 1;
nodes = (
"135 737 LINE",
"261 737 LINE",
"146 658 LINE",
"49 658 LINE"
);
},
{
closed = 1;
nodes = (
"143 665 LINE",
"240 731 LINE",
"138 731 LINE",
"66 665 LINE"
);
},
{
closed = 1;
nodes = (
"152 646 LINE",
"305 750 LINE",
"128 750 LINE",
"14 646 LINE"
);
}
);
userData = {
assembly = "PUSHW[ ]	/* 4 values pushed */\01239 5 37 4 \012CALL[ ]	/* CallFunction */\012SVTCA[0]	/* SetFreedomAndProjectionVectorToAxis */\012PUSHW[ ]	/* 4 values pushed */\0129 3 10 4 \012CALL[ ]	/* CallFunction */\012PUSHW[ ]	/* 4 values pushed */\01238 2 36 4 \012CALL[ ]	/* CallFunction */\012PUSHW[ ]	/* 4 values pushed */\0125 4 6 4 \012CALL[ ]	/* CallFunction */\012PUSHW[ ]	/* 1 value pushed */\01238 \012SRP0[ ]	/* SetRefPoint0 */\012PUSHW[ ]	/* 1 value pushed */\01240 \012MDRP[10000]	/* MoveDirectRelPt */\012PUSHW[ ]	/* 1 value pushed */\01240 \012MDAP[1]	/* MoveDirectAbsPt */\012PUSHW[ ]	/* 1 value pushed */\01236 \012SRP0[ ]	/* SetRefPoint0 */\012PUSHW[ ]	/* 1 value pushed */\01242 \012MDRP[10000]	/* MoveDirectRelPt */\012PUSHW[ ]	/* 1 value pushed */\01242 \012MDAP[1]	/* MoveDirectAbsPt */\012IUP[0]	/* InterpolateUntPts */\012IUP[1]	/* InterpolateUntPts */";
};
width = 342;
}
);
note = Eacute;
unicode = 00C9;
},
{
color = 11;
glyphname = Ecaron;
lastChange = "2021-11-22 23:10:22 +0000";
layers = (
{
layerId = "04A772B0-FA71-43EE-BB43-CAC7F0EBD631";
paths = (
{
closed = 1;
nodes = (
"311 0 LINE",
"311 153 LINE",
"211 153 LINE",
"211 218 LINE",
"302 218 LINE",
"302 386 LINE",
"211 386 LINE",
"211 436 LINE",
"311 436 LINE",
"311 591 LINE",
"25 591 LINE",
"25 0 LINE"
);
},
{
closed = 1;
nodes = (
"41 573 LINE",
"294 573 LINE",
"294 454 LINE",
"195 454 LINE",
"195 368 LINE",
"286 368 LINE",
"286 236 LINE",
"195 236 LINE",
"195 134 LINE",
"294 134 LINE",
"294 18 LINE",
"41 18 LINE"
);
},
{
closed = 1;
nodes = (
"286 27 LINE",
"286 125 LINE",
"187 125 LINE",
"187 245 LINE",
"278 245 LINE",
"278 359 LINE",
"187 359 LINE",
"187 463 LINE",
"286 463 LINE",
"286 564 LINE",
"49 564 LINE",
"49 27 LINE"
);
},
{
closed = 1;
nodes = (
"215 633 LINE",
"352 750 LINE",
"203 750 LINE",
"172 718 LINE",
"140 750 LINE",
"-7 750 LINE",
"129 633 LINE"
);
},
{
closed = 1;
nodes = (
"31 737 LINE",
"132 737 LINE",
"172 695 LINE",
"211 737 LINE",
"315 737 LINE",
"208 646 LINE",
"137 646 LINE"
);
},
{
closed = 1;
nodes = (
"204 653 LINE",
"296 730 LINE",
"215 730 LINE",
"172 684 LINE",
"128 730 LINE",
"50 730 LINE",
"140 653 LINE"
);
}
);
userData = {
assembly = "SVTCA[0]	/* SetFreedomAndProjectionVectorToAxis */\012PUSHW[ ]	/* 4 values pushed */\0129 3 10 4 \012CALL[ ]	/* CallFunction */\012PUSHW[ ]	/* 4 values pushed */\01238 2 36 4 \012CALL[ ]	/* CallFunction */\012PUSHW[ ]	/* 4 values pushed */\0125 4 6 4 \012CALL[ ]	/* CallFunction */\012PUSHW[ ]	/* 1 value pushed */\01238 \012SRP0[ ]	/* SetRefPoint0 */\012PUSHW[ ]	/* 1 value pushed */\01240 \012MDRP[10000]	/* MoveDirectRelPt */\012PUSHW[ ]	/* 1 value pushed */\01236 \012SRP0[ ]	/* SetRefPoint0 */\012PUSHW[ ]	/* 1 value pushed */\01243 \012MDRP[10000]	/* MoveDirectRelPt */\012PUSHW[ ]	/* 1 value pushed */\01243 \012MDAP[1]	/* MoveDirectAbsPt */\012PUSHW[ ]	/* 1 value pushed */\01238 \012SRP0[ ]	/* SetRefPoint0 */\012PUSHW[ ]	/* 1 value pushed */\01244 \012MDRP[10000]	/* MoveDirectRelPt */\012PUSHW[ ]	/* 1 value pushed */\01244 \012MDAP[1]	/* MoveDirectAbsPt */\012PUSHW[ ]	/* 1 value pushed */\01238 \012SRP0[ ]	/* SetRefPoint0 */\012PUSHW[ ]	/* 1 value pushed */\01247 \012MDRP[10000]	/* MoveDirectRelPt */\012PUSHW[ ]	/* 1 value pushed */\01247 \012MDAP[1]	/* MoveDirectAbsPt */\012IUP[0]	/* InterpolateUntPts */\012IUP[1]	/* InterpolateUntPts */";
};
width = 342;
}
);
note = Ecaron;
unicode = 011A;
},
{
color = 11;
glyphname = Ecircumflex;
lastChange = "2021-11-22 23:10:22 +0000";
layers = (
{
layerId = "04A772B0-FA71-43EE-BB43-CAC7F0EBD631";
paths = (
{
closed = 1;
nodes = (
"311 0 LINE",
"311 153 LINE",
"211 153 LINE",
"211 218 LINE",
"302 218 LINE",
"302 386 LINE",
"211 386 LINE",
"211 436 LINE",
"311 436 LINE",
"311 591 LINE",
"25 591 LINE",
"25 0 LINE"
);
},
{
closed = 1;
nodes = (
"41 573 LINE",
"294 573 LINE",
"294 454 LINE",
"195 454 LINE",
"195 368 LINE",
"286 368 LINE",
"286 236 LINE",
"195 236 LINE",
"195 134 LINE",
"294 134 LINE",
"294 18 LINE",
"41 18 LINE"
);
},
{
closed = 1;
nodes = (
"286 27 LINE",
"286 125 LINE",
"187 125 LINE",
"187 245 LINE",
"278 245 LINE",
"278 359 LINE",
"187 359 LINE",
"187 463 LINE",
"286 463 LINE",
"286 564 LINE",
"49 564 LINE",
"49 27 LINE"
);
},
{
closed = 1;
nodes = (
"139 633 LINE",
"171 665 LINE",
"202 633 LINE",
"351 633 LINE",
"214 750 LINE",
"128 750 LINE",
"-8 633 LINE"
);
},
{
closed = 1;
nodes = (
"136 737 LINE",
"207 737 LINE",
"314 646 LINE",
"210 646 LINE",
"171 688 LINE",
"131 646 LINE",
"30 646 LINE"
);
},
{
closed = 1;
nodes = (
"127 653 LINE",
"171 699 LINE",
"214 653 LINE",
"295 653 LINE",
"203 730 LINE",
"139 730 LINE",
"49 653 LINE"
);
}
);
userData = {
assembly = "PUSHW[ ]	/* 4 values pushed */\01222 5 0 4 \012CALL[ ]	/* CallFunction */\012PUSHW[ ]	/* 1 value pushed */\01222 \012SRP0[ ]	/* SetRefPoint0 */\012PUSHW[ ]	/* 1 value pushed */\01213 \012MDRP[10000]	/* MoveDirectRelPt */\012PUSHW[ ]	/* 1 value pushed */\01222 \012SRP0[ ]	/* SetRefPoint0 */\012PUSHW[ ]	/* 1 value pushed */\01258 \012MDRP[11100]	/* MoveDirectRelPt */\012SVTCA[0]	/* SetFreedomAndProjectionVectorToAxis */\012PUSHW[ ]	/* 4 values pushed */\0129 3 10 4 \012CALL[ ]	/* CallFunction */\012PUSHW[ ]	/* 4 values pushed */\01236 2 38 4 \012CALL[ ]	/* CallFunction */\012PUSHW[ ]	/* 4 values pushed */\0125 4 6 4 \012CALL[ ]	/* CallFunction */\012PUSHW[ ]	/* 1 value pushed */\01238 \012SRP0[ ]	/* SetRefPoint0 */\012PUSHW[ ]	/* 1 value pushed */\01240 \012MDRP[10000]	/* MoveDirectRelPt */\012PUSHW[ ]	/* 1 value pushed */\01236 \012SRP0[ ]	/* SetRefPoint0 */\012PUSHW[ ]	/* 1 value pushed */\01243 \012MDRP[10000]	/* MoveDirectRelPt */\012PUSHW[ ]	/* 1 value pushed */\01243 \012MDAP[1]	/* MoveDirectAbsPt */\012PUSHW[ ]	/* 1 value pushed */\01238 \012SRP0[ ]	/* SetRefPoint0 */\012PUSHW[ ]	/* 1 value pushed */\01244 \012MDRP[10000]	/* MoveDirectRelPt */\012PUSHW[ ]	/* 1 value pushed */\01244 \012MDAP[1]	/* MoveDirectAbsPt */\012PUSHW[ ]	/* 1 value pushed */\01238 \012SRP0[ ]	/* SetRefPoint0 */\012PUSHW[ ]	/* 1 value pushed */\01247 \012MDRP[10000]	/* MoveDirectRelPt */\012PUSHW[ ]	/* 1 value pushed */\01247 \012MDAP[1]	/* MoveDirectAbsPt */\012IUP[0]	/* InterpolateUntPts */\012IUP[1]	/* InterpolateUntPts */";
};
width = 342;
}
);
note = Ecircumflex;
unicode = 00CA;
},
{
color = 11;
glyphname = Edieresis;
lastChange = "2021-11-22 23:10:22 +0000";
layers = (
{
layerId = "04A772B0-FA71-43EE-BB43-CAC7F0EBD631";
paths = (
{
closed = 1;
nodes = (
"311 0 LINE",
"311 153 LINE",
"211 153 LINE",
"211 218 LINE",
"302 218 LINE",
"302 386 LINE",
"211 386 LINE",
"211 436 LINE",
"311 436 LINE",
"311 591 LINE",
"25 591 LINE",
"25 0 LINE"
);
},
{
closed = 1;
nodes = (
"41 573 LINE",
"294 573 LINE",
"294 454 LINE",
"195 454 LINE",
"195 368 LINE",
"286 368 LINE",
"286 236 LINE",
"195 236 LINE",
"195 134 LINE",
"294 134 LINE",
"294 18 LINE",
"41 18 LINE"
);
},
{
closed = 1;
nodes = (
"286 27 LINE",
"286 125 LINE",
"187 125 LINE",
"187 245 LINE",
"278 245 LINE",
"278 359 LINE",
"187 359 LINE",
"187 463 LINE",
"286 463 LINE",
"286 564 LINE",
"49 564 LINE",
"49 27 LINE"
);
},
{
closed = 1;
nodes = (
"137.333 643 OFFCURVE",
"163 666.667 OFFCURVE",
"163 696 CURVE SMOOTH",
"163 724 OFFCURVE",
"137.333 749 OFFCURVE",
"108 749 CURVE SMOOTH",
"77.333 749 OFFCURVE",
"56 724 OFFCURVE",
"56 696 CURVE SMOOTH",
"56 666.667 OFFCURVE",
"77.333 643 OFFCURVE",
"108 643 CURVE SMOOTH"
);
},
{
closed = 1;
nodes = (
"85.333 657 OFFCURVE",
"69 674.667 OFFCURVE",
"69 696 CURVE SMOOTH",
"69 716 OFFCURVE",
"85.333 734 OFFCURVE",
"108 734 CURVE SMOOTH",
"130.667 734 OFFCURVE",
"149 716 OFFCURVE",
"149 696 CURVE SMOOTH",
"149 674.667 OFFCURVE",
"130.667 657 OFFCURVE",
"108 657 CURVE SMOOTH"
);
},
{
closed = 1;
nodes = (
"126.667 665 OFFCURVE",
"143 678.667 OFFCURVE",
"143 696 CURVE SMOOTH",
"143 712 OFFCURVE",
"126.667 727 OFFCURVE",
"108 727 CURVE SMOOTH",
"90.667 727 OFFCURVE",
"78 712 OFFCURVE",
"78 696 CURVE SMOOTH",
"78 678.667 OFFCURVE",
"90.667 665 OFFCURVE",
"108 665 CURVE SMOOTH"
);
},
{
closed = 1;
nodes = (
"256.667 643 OFFCURVE",
"280 666.667 OFFCURVE",
"280 696 CURVE SMOOTH",
"280 724 OFFCURVE",
"256.667 749 OFFCURVE",
"226 749 CURVE SMOOTH",
"195.333 749 OFFCURVE",
"173 724 OFFCURVE",
"173 696 CURVE SMOOTH",
"173 666.667 OFFCURVE",
"195.333 643 OFFCURVE",
"226 643 CURVE SMOOTH"
);
},
{
closed = 1;
nodes = (
"203.333 657 OFFCURVE",
"187 674.667 OFFCURVE",
"187 696 CURVE SMOOTH",
"187 716 OFFCURVE",
"203.333 734 OFFCURVE",
"226 734 CURVE SMOOTH",
"248.667 734 OFFCURVE",
"266 716 OFFCURVE",
"266 696 CURVE SMOOTH",
"266 674.667 OFFCURVE",
"248.667 657 OFFCURVE",
"226 657 CURVE SMOOTH"
);
},
{
closed = 1;
nodes = (
"244.667 665 OFFCURVE",
"259 678.667 OFFCURVE",
"259 696 CURVE SMOOTH",
"259 712 OFFCURVE",
"244.667 727 OFFCURVE",
"226 727 CURVE SMOOTH",
"207.333 727 OFFCURVE",
"194 712 OFFCURVE",
"194 696 CURVE SMOOTH",
"194 678.667 OFFCURVE",
"207.333 665 OFFCURVE",
"226 665 CURVE SMOOTH"
);
}
);
userData = {
assembly = "PUSHW[ ]	/* 4 values pushed */\01242 6 3 4 \012CALL[ ]	/* CallFunction */\012PUSHW[ ]	/* 1 value pushed */\0123 \012SRP0[ ]	/* SetRefPoint0 */\012PUSHW[ ]	/* 1 value pushed */\0127 \012MDRP[10000]	/* MoveDirectRelPt */\012PUSHW[ ]	/* 1 value pushed */\0123 \012SRP0[ ]	/* SetRefPoint0 */\012PUSHW[ ]	/* 1 value pushed */\01236 \012MDRP[10000]	/* MoveDirectRelPt */\012PUSHW[ ]	/* 1 value pushed */\01236 \012MDAP[1]	/* MoveDirectAbsPt */\012PUSHW[ ]	/* 1 value pushed */\0123 \012SRP0[ ]	/* SetRefPoint0 */\012PUSHW[ ]	/* 1 value pushed */\01260 \012MDRP[10000]	/* MoveDirectRelPt */\012PUSHW[ ]	/* 1 value pushed */\01242 \012SRP0[ ]	/* SetRefPoint0 */\012PUSHW[ ]	/* 1 value pushed */\01266 \012MDRP[10000]	/* MoveDirectRelPt */\012PUSHW[ ]	/* 1 value pushed */\01266 \012MDAP[1]	/* MoveDirectAbsPt */\012PUSHW[ ]	/* 1 value pushed */\01242 \012SRP0[ ]	/* SetRefPoint0 */\012PUSHW[ ]	/* 1 value pushed */\012109 \012MDRP[11100]	/* MoveDirectRelPt */\012SVTCA[0]	/* SetFreedomAndProjectionVectorToAxis */\012PUSHW[ ]	/* 4 values pushed */\0129 3 10 4 \012CALL[ ]	/* CallFunction */\012PUSHW[ ]	/* 4 values pushed */\0125 4 6 4 \012CALL[ ]	/* CallFunction */\012IUP[0]	/* InterpolateUntPts */\012IUP[1]	/* InterpolateUntPts */";
};
width = 342;
}
);
note = Edieresis;
unicode = 00CB;
},
{
color = 11;
glyphname = Edotaccent;
lastChange = "2021-11-22 23:10:22 +0000";
layers = (
{
layerId = "04A772B0-FA71-43EE-BB43-CAC7F0EBD631";
paths = (
{
closed = 1;
nodes = (
"311 0 LINE",
"311 153 LINE",
"211 153 LINE",
"211 218 LINE",
"302 218 LINE",
"302 386 LINE",
"211 386 LINE",
"211 436 LINE",
"311 436 LINE",
"311 591 LINE",
"25 591 LINE",
"25 0 LINE"
);
},
{
closed = 1;
nodes = (
"41 573 LINE",
"294 573 LINE",
"294 454 LINE",
"195 454 LINE",
"195 368 LINE",
"286 368 LINE",
"286 236 LINE",
"195 236 LINE",
"195 134 LINE",
"294 134 LINE",
"294 18 LINE",
"41 18 LINE"
);
},
{
closed = 1;
nodes = (
"286 27 LINE",
"286 125 LINE",
"187 125 LINE",
"187 245 LINE",
"278 245 LINE",
"278 359 LINE",
"187 359 LINE",
"187 463 LINE",
"286 463 LINE",
"286 564 LINE",
"49 564 LINE",
"49 27 LINE"
);
},
{
closed = 1;
nodes = (
"195 636 OFFCURVE",
"222 661.333 OFFCURVE",
"222 692 CURVE SMOOTH",
"222 724 OFFCURVE",
"195 749 OFFCURVE",
"163 749 CURVE SMOOTH",
"129.667 749 OFFCURVE",
"104 724 OFFCURVE",
"104 692 CURVE SMOOTH",
"104 661.333 OFFCURVE",
"129.667 636 OFFCURVE",
"163 636 CURVE SMOOTH"
);
},
{
closed = 1;
nodes = (
"136.333 649 OFFCURVE",
"118 669.333 OFFCURVE",
"118 692 CURVE SMOOTH",
"118 717.333 OFFCURVE",
"136.333 736 OFFCURVE",
"163 736 CURVE SMOOTH",
"188.333 736 OFFCURVE",
"209 717.333 OFFCURVE",
"209 692 CURVE SMOOTH",
"209 669.333 OFFCURVE",
"188.333 649 OFFCURVE",
"163 649 CURVE SMOOTH"
);
},
{
closed = 1;
nodes = (
"185.667 656 OFFCURVE",
"203 672 OFFCURVE",
"203 692 CURVE SMOOTH",
"203 713.333 OFFCURVE",
"185.667 730 OFFCURVE",
"163 730 CURVE SMOOTH",
"140.333 730 OFFCURVE",
"124 713.333 OFFCURVE",
"124 692 CURVE SMOOTH",
"124 672 OFFCURVE",
"140.333 656 OFFCURVE",
"163 656 CURVE SMOOTH"
);
}
);
userData = {
assembly = "PUSHW[ ]	/* 4 values pushed */\01242 6 36 4 \012CALL[ ]	/* CallFunction */\012NPUSHW[ ]	/* 9 values pushed */\0126 42 22 42 38 42 54 42 4 \012DELTAP1[ ]	/* DeltaExceptionP1 */\012PUSHW[ ]	/* 1 value pushed */\01236 \012SRP0[ ]	/* SetRefPoint0 */\012PUSHW[ ]	/* 1 value pushed */\01248 \012MDRP[10000]	/* MoveDirectRelPt */\012PUSHW[ ]	/* 1 value pushed */\01248 \012MDAP[1]	/* MoveDirectAbsPt */\012PUSHW[ ]	/* 1 value pushed */\01242 \012SRP0[ ]	/* SetRefPoint0 */\012PUSHW[ ]	/* 1 value pushed */\01254 \012MDRP[10000]	/* MoveDirectRelPt */\012PUSHW[ ]	/* 1 value pushed */\01254 \012MDAP[1]	/* MoveDirectAbsPt */\012SVTCA[0]	/* SetFreedomAndProjectionVectorToAxis */\012PUSHW[ ]	/* 4 values pushed */\0129 3 10 4 \012CALL[ ]	/* CallFunction */\012PUSHW[ ]	/* 4 values pushed */\01239 2 45 4 \012CALL[ ]	/* CallFunction */\012PUSHW[ ]	/* 4 values pushed */\0125 4 6 4 \012CALL[ ]	/* CallFunction */\012PUSHW[ ]	/* 1 value pushed */\01245 \012SRP0[ ]	/* SetRefPoint0 */\012PUSHW[ ]	/* 1 value pushed */\01251 \012MDRP[10000]	/* MoveDirectRelPt */\012PUSHW[ ]	/* 1 value pushed */\01251 \012MDAP[1]	/* MoveDirectAbsPt */\012PUSHW[ ]	/* 1 value pushed */\01239 \012SRP0[ ]	/* SetRefPoint0 */\012PUSHW[ ]	/* 1 value pushed */\01257 \012MDRP[10000]	/* MoveDirectRelPt */\012PUSHW[ ]	/* 1 value pushed */\01257 \012MDAP[1]	/* MoveDirectAbsPt */\012IUP[0]	/* InterpolateUntPts */\012IUP[1]	/* InterpolateUntPts */";
};
width = 342;
}
);
note = Edotaccent;
unicode = 0116;
},
{
color = 11;
glyphname = Egrave;
lastChange = "2021-11-22 23:10:22 +0000";
layers = (
{
layerId = "04A772B0-FA71-43EE-BB43-CAC7F0EBD631";
paths = (
{
closed = 1;
nodes = (
"311 0 LINE",
"311 153 LINE",
"211 153 LINE",
"211 218 LINE",
"302 218 LINE",
"302 386 LINE",
"211 386 LINE",
"211 436 LINE",
"311 436 LINE",
"311 591 LINE",
"25 591 LINE",
"25 0 LINE"
);
},
{
closed = 1;
nodes = (
"41 573 LINE",
"294 573 LINE",
"294 454 LINE",
"195 454 LINE",
"195 368 LINE",
"286 368 LINE",
"286 236 LINE",
"195 236 LINE",
"195 134 LINE",
"294 134 LINE",
"294 18 LINE",
"41 18 LINE"
);
},
{
closed = 1;
nodes = (
"286 27 LINE",
"286 125 LINE",
"187 125 LINE",
"187 245 LINE",
"278 245 LINE",
"278 359 LINE",
"187 359 LINE",
"187 463 LINE",
"286 463 LINE",
"286 564 LINE",
"49 564 LINE",
"49 27 LINE"
);
},
{
closed = 1;
nodes = (
"307 645 LINE",
"193 749 LINE",
"16 749 LINE",
"169 645 LINE"
);
},
{
closed = 1;
nodes = (
"59 736 LINE",
"186 736 LINE",
"272 657 LINE",
"175 657 LINE"
);
},
{
closed = 1;
nodes = (
"255 664 LINE",
"183 730 LINE",
"81 730 LINE",
"178 664 LINE"
);
}
);
userData = {
assembly = "PUSHW[ ]	/* 4 values pushed */\01239 6 0 4 \012CALL[ ]	/* CallFunction */\012PUSHW[ ]	/* 3 values pushed */\01236 0 39 \012SRP1[ ]	/* SetRefPoint1 */\012SRP2[ ]	/* SetRefPoint2 */\012IP[ ]	/* InterpolatePts */\012PUSHW[ ]	/* 1 value pushed */\01236 \012MDAP[1]	/* MoveDirectAbsPt */\012PUSHW[ ]	/* 2 values pushed */\01238 5 \012MIRP[10100]	/* MoveIndirectRelPt */\012PUSHW[ ]	/* 3 values pushed */\01243 0 39 \012SRP1[ ]	/* SetRefPoint1 */\012SRP2[ ]	/* SetRefPoint2 */\012IP[ ]	/* InterpolatePts */\012SVTCA[0]	/* SetFreedomAndProjectionVectorToAxis */\012PUSHW[ ]	/* 4 values pushed */\0129 3 10 4 \012CALL[ ]	/* CallFunction */\012PUSHW[ ]	/* 4 values pushed */\01237 2 39 4 \012CALL[ ]	/* CallFunction */\012PUSHW[ ]	/* 4 values pushed */\0125 4 6 4 \012CALL[ ]	/* CallFunction */\012PUSHW[ ]	/* 1 value pushed */\01239 \012SRP0[ ]	/* SetRefPoint0 */\012PUSHW[ ]	/* 1 value pushed */\01240 \012MDRP[10000]	/* MoveDirectRelPt */\012PUSHW[ ]	/* 1 value pushed */\01240 \012MDAP[1]	/* MoveDirectAbsPt */\012PUSHW[ ]	/* 1 value pushed */\01237 \012SRP0[ ]	/* SetRefPoint0 */\012PUSHW[ ]	/* 1 value pushed */\01242 \012MDRP[10000]	/* MoveDirectRelPt */\012PUSHW[ ]	/* 1 value pushed */\01242 \012MDAP[1]	/* MoveDirectAbsPt */\012IUP[0]	/* InterpolateUntPts */\012IUP[1]	/* InterpolateUntPts */";
};
width = 342;
}
);
note = Egrave;
unicode = 00C8;
},
{
color = 11;
glyphname = Emacron;
lastChange = "2021-11-22 23:10:22 +0000";
layers = (
{
layerId = "04A772B0-FA71-43EE-BB43-CAC7F0EBD631";
paths = (
{
closed = 1;
nodes = (
"311 0 LINE",
"311 153 LINE",
"211 153 LINE",
"211 218 LINE",
"302 218 LINE",
"302 386 LINE",
"211 386 LINE",
"211 436 LINE",
"311 436 LINE",
"311 591 LINE",
"25 591 LINE",
"25 0 LINE"
);
},
{
closed = 1;
nodes = (
"41 573 LINE",
"294 573 LINE",
"294 454 LINE",
"195 454 LINE",
"195 368 LINE",
"286 368 LINE",
"286 236 LINE",
"195 236 LINE",
"195 134 LINE",
"294 134 LINE",
"294 18 LINE",
"41 18 LINE"
);
},
{
closed = 1;
nodes = (
"286 27 LINE",
"286 125 LINE",
"187 125 LINE",
"187 245 LINE",
"278 245 LINE",
"278 359 LINE",
"187 359 LINE",
"187 463 LINE",
"286 463 LINE",
"286 564 LINE",
"49 564 LINE",
"49 27 LINE"
);
},
{
closed = 1;
nodes = (
"275 679 LINE",
"275 749 LINE",
"57 749 LINE",
"57 679 LINE"
);
},
{
closed = 1;
nodes = (
"73 738 LINE",
"259 738 LINE",
"259 689 LINE",
"73 689 LINE"
);
},
{
closed = 1;
nodes = (
"251 695 LINE",
"251 732 LINE",
"80 732 LINE",
"80 695 LINE"
);
}
);
userData = {
assembly = "PUSHW[ ]	/* 4 values pushed */\01238 5 40 4 \012CALL[ ]	/* CallFunction */\012PUSHW[ ]	/* 1 value pushed */\01240 \012SRP0[ ]	/* SetRefPoint0 */\012PUSHW[ ]	/* 1 value pushed */\01236 \012MDRP[10000]	/* MoveDirectRelPt */\012PUSHW[ ]	/* 1 value pushed */\01236 \012MDAP[1]	/* MoveDirectAbsPt */\012SVTCA[0]	/* SetFreedomAndProjectionVectorToAxis */\012PUSHW[ ]	/* 4 values pushed */\0129 3 10 4 \012CALL[ ]	/* CallFunction */\012PUSHW[ ]	/* 3 values pushed */\01237 38 3 \012CALL[ ]	/* CallFunction */\012PUSHW[ ]	/* 4 values pushed */\0125 4 6 4 \012CALL[ ]	/* CallFunction */\012PUSHW[ ]	/* 4 values pushed */\0121 3 2 4 \012CALL[ ]	/* CallFunction */\012PUSHW[ ]	/* 1 value pushed */\01238 \012SRP0[ ]	/* SetRefPoint0 */\012PUSHW[ ]	/* 1 value pushed */\01240 \012MDRP[10000]	/* MoveDirectRelPt */\012PUSHW[ ]	/* 1 value pushed */\01240 \012MDAP[1]	/* MoveDirectAbsPt */\012PUSHW[ ]	/* 1 value pushed */\01237 \012SRP0[ ]	/* SetRefPoint0 */\012PUSHW[ ]	/* 1 value pushed */\01242 \012MDRP[10000]	/* MoveDirectRelPt */\012PUSHW[ ]	/* 1 value pushed */\01242 \012MDAP[1]	/* MoveDirectAbsPt */\012IUP[0]	/* InterpolateUntPts */\012IUP[1]	/* InterpolateUntPts */";
};
width = 342;
}
);
note = Emacron;
unicode = 0112;
},
{
color = 11;
glyphname = Eogonek;
lastChange = "2021-11-22 23:10:22 +0000";
layers = (
{
layerId = "04A772B0-FA71-43EE-BB43-CAC7F0EBD631";
paths = (
{
closed = 1;
nodes = (
"196.895 -227 OFFCURVE",
"254.66 -200.67 OFFCURVE",
"274 -191 CURVE",
"242 -91 LINE",
"207.333 -109.667 OFFCURVE",
"189 -118 OFFCURVE",
"173 -118 CURVE SMOOTH",
"159.667 -118 OFFCURVE",
"153 -109 OFFCURVE",
"153 -97 CURVE SMOOTH",
"153 -60.378 OFFCURVE",
"187.415 -13.16 OFFCURVE",
"219 0 CURVE",
"311 0 LINE",
"311 157 LINE",
"211 157 LINE",
"211 224 LINE",
"302 224 LINE",
"302 396 LINE",
"211 396 LINE",
"211 448 LINE",
"311 448 LINE",
"311 607 LINE",
"25 607 LINE",
"25 0 LINE",
"69 0 LINE",
"64.333 -6 OFFCURVE",
"60.667 -13 OFFCURVE",
"58 -21 CURVE",
"58 -20 LINE",
"43.333 -46 OFFCURVE",
"36 -73.333 OFFCURVE",
"36 -102 CURVE SMOOTH",
"36 -127.333 OFFCURVE",
"44.333 -153.667 OFFCURVE",
"59 -175 CURVE SMOOTH",
"79 -203 OFFCURVE",
"117 -227 OFFCURVE",
"161 -227 CURVE SMOOTH"
);
},
{
closed = 1;
nodes = (
"121 -208 OFFCURVE",
"89.333 -190.667 OFFCURVE",
"72 -164 CURVE SMOOTH",
"58.667 -145.333 OFFCURVE",
"53 -124.667 OFFCURVE",
"53 -102 CURVE SMOOTH",
"53 -78 OFFCURVE",
"60 -51.333 OFFCURVE",
"72 -30 CURVE SMOOTH",
"80 -12.667 OFFCURVE",
"92.333 4.333 OFFCURVE",
"111 19 CURVE",
"41 19 LINE",
"41 589 LINE",
"294 589 LINE",
"294 466 LINE",
"195 466 LINE",
"195 378 LINE",
"286 378 LINE",
"286 243 LINE",
"195 243 LINE",
"195 138 LINE",
"294 138 LINE",
"294 19 LINE",
"217 19 LINE",
"176.703 5.568 OFFCURVE",
"136 -52.899 OFFCURVE",
"136 -97 CURVE SMOOTH",
"136 -119.667 OFFCURVE",
"149 -136 OFFCURVE",
"173 -136 CURVE SMOOTH",
"193 -136 OFFCURVE",
"206.667 -131.333 OFFCURVE",
"232 -118 CURVE",
"254 -180 LINE",
"240.884 -187.87 OFFCURVE",
"189.207 -208 OFFCURVE",
"161 -208 CURVE SMOOTH"
);
},
{
closed = 1;
nodes = (
"195.667 -199 OFFCURVE",
"231 -181.667 OFFCURVE",
"243 -175 CURVE",
"228 -130 LINE",
"206.667 -140.667 OFFCURVE",
"194.333 -146 OFFCURVE",
"173 -146 CURVE SMOOTH",
"145 -146 OFFCURVE",
"128 -125 OFFCURVE",
"128 -97 CURVE SMOOTH",
"128 -49.173 OFFCURVE",
"171.304 14.345 OFFCURVE",
"215 28 CURVE",
"286 28 LINE",
"286 129 LINE",
"187 129 LINE",
"187 252 LINE",
"278 252 LINE",
"278 368 LINE",
"187 368 LINE",
"187 476 LINE",
"286 476 LINE",
"286 579 LINE",
"49 579 LINE",
"49 28 LINE",
"146 28 LINE",
"111.333 14.667 OFFCURVE",
"92.333 -8.333 OFFCURVE",
"79 -35 CURVE SMOOTH",
"57.667 -75 OFFCURVE",
"54 -124.333 OFFCURVE",
"78 -159 CURVE SMOOTH",
"94 -183 OFFCURVE",
"122.333 -199 OFFCURVE",
"161 -199 CURVE SMOOTH"
);
}
);
userData = {
assembly = "SVTCA[0]	/* SetFreedomAndProjectionVectorToAxis */\012PUSHW[ ]	/* 1 value pushed */\01210 \012MDAP[1]	/* MoveDirectAbsPt */\012PUSHW[ ]	/* 1 value pushed */\01235 \012MDAP[1]	/* MoveDirectAbsPt */\012PUSHW[ ]	/* 4 values pushed */\01219 2 26 4 \012CALL[ ]	/* CallFunction */\012PUSHW[ ]	/* 1 value pushed */\01210 \012SRP0[ ]	/* SetRefPoint0 */\012PUSHW[ ]	/* 2 values pushed */\0129 3 \012MIRP[10100]	/* MoveIndirectRelPt */\012PUSHW[ ]	/* 1 value pushed */\01210 \012SRP0[ ]	/* SetRefPoint0 */\012PUSHW[ ]	/* 1 value pushed */\01236 \012MDRP[10000]	/* MoveDirectRelPt */\012IUP[0]	/* InterpolateUntPts */\012IUP[1]	/* InterpolateUntPts */";
};
width = 333;
}
);
note = Eogonek;
unicode = 0118;
},
{
glyphname = F;
lastChange = "2021-11-22 23:10:22 +0000";
layers = (
{
layerId = "04A772B0-FA71-43EE-BB43-CAC7F0EBD631";
paths = (
{
closed = 1;
nodes = (
"211 0 LINE",
"211 218 LINE",
"302 218 LINE",
"302 386 LINE",
"211 386 LINE",
"211 436 LINE",
"311 436 LINE",
"311 591 LINE",
"25 591 LINE",
"25 0 LINE"
);
},
{
closed = 1;
nodes = (
"41 573 LINE",
"294 573 LINE",
"294 454 LINE",
"195 454 LINE",
"195 368 LINE",
"286 368 LINE",
"286 236 LINE",
"195 236 LINE",
"195 18 LINE",
"41 18 LINE"
);
},
{
closed = 1;
nodes = (
"187 27 LINE",
"187 245 LINE",
"278 245 LINE",
"278 359 LINE",
"187 359 LINE",
"187 463 LINE",
"286 463 LINE",
"286 564 LINE",
"49 564 LINE",
"49 27 LINE"
);
}
);
userData = {
assembly = "SVTCA[0]	/* SetFreedomAndProjectionVectorToAxis */\012PUSHW[ ]	/* 1 value pushed */\0128 \012MDAP[1]	/* MoveDirectAbsPt */\012IUP[0]	/* InterpolateUntPts */\012IUP[1]	/* InterpolateUntPts */";
};
width = 333;
}
);
note = F;
unicode = 0046;
},
{
glyphname = G;
lastChange = "2021-11-22 23:10:22 +0000";
layers = (
{
anchors = (
{
name = bottom;
position = "{229, 0}";
},
{
name = top;
position = "{206, 591}";
}
);
layerId = "04A772B0-FA71-43EE-BB43-CAC7F0EBD631";
paths = (
{
closed = 1;
nodes = (
"187.667 -9 OFFCURVE",
"208.667 1.333 OFFCURVE",
"226 16 CURVE",
"229 0 LINE",
"378 0 LINE",
"378 339 LINE",
"378 449 LINE SMOOTH",
"378 557.051 OFFCURVE",
"306.25 599 OFFCURVE",
"197 599 CURVE SMOOTH",
"90.333 599 OFFCURVE",
"21 558.333 OFFCURVE",
"21 449 CURVE SMOOTH",
"21 165 LINE SMOOTH",
"21 32.504 OFFCURVE",
"76.01 -9 OFFCURVE",
"157 -9 CURVE SMOOTH"
);
},
{
closed = 1;
nodes = (
"208.667 109 OFFCURVE",
"212 115 OFFCURVE",
"212 127 CURVE SMOOTH",
"212 221 LINE",
"191 221 LINE",
"191 127 LINE SMOOTH",
"191 115 OFFCURVE",
"194.667 109 OFFCURVE",
"202 109 CURVE SMOOTH"
);
},
{
closed = 1;
nodes = (
"85.537 9 OFFCURVE",
"38 46.899 OFFCURVE",
"38 165 CURVE SMOOTH",
"38 449 LINE SMOOTH",
"38 543.779 OFFCURVE",
"101.316 581 OFFCURVE",
"197 581 CURVE SMOOTH",
"293.964 581 OFFCURVE",
"361 543.825 OFFCURVE",
"361 449 CURVE SMOOTH",
"361 358 LINE",
"212 358 LINE",
"212 458 LINE SMOOTH",
"212 470 OFFCURVE",
"208.667 476 OFFCURVE",
"202 476 CURVE SMOOTH",
"194.667 476 OFFCURVE",
"191 470 OFFCURVE",
"191 458 CURVE SMOOTH",
"191 320 LINE",
"361 320 LINE",
"361 18 LINE",
"243 18 LINE",
"234 55 LINE",
"222 31 OFFCURVE",
"199.667 9 OFFCURVE",
"157 9 CURVE SMOOTH"
);
},
{
closed = 1;
nodes = (
"205.767 18 OFFCURVE",
"226.863 54.301 OFFCURVE",
"238 84 CURVE",
"250 27 LINE",
"352 27 LINE",
"352 311 LINE",
"199 311 LINE",
"199 230 LINE",
"221 230 LINE",
"221 127 LINE SMOOTH",
"221 105.667 OFFCURVE",
"212.667 100 OFFCURVE",
"202 100 CURVE SMOOTH",
"191.333 100 OFFCURVE",
"183 105.667 OFFCURVE",
"183 127 CURVE SMOOTH",
"183 458 LINE SMOOTH",
"183 479.333 OFFCURVE",
"191.333 485 OFFCURVE",
"202 485 CURVE SMOOTH",
"212.667 485 OFFCURVE",
"221 479.333 OFFCURVE",
"221 458 CURVE SMOOTH",
"221 367 LINE",
"352 367 LINE",
"352 449 LINE SMOOTH",
"352 538.463 OFFCURVE",
"288.716 572 OFFCURVE",
"197 572 CURVE SMOOTH",
"106.333 572 OFFCURVE",
"47 538.333 OFFCURVE",
"47 449 CURVE SMOOTH",
"47 165 LINE SMOOTH",
"47 55.587 OFFCURVE",
"89.242 18 OFFCURVE",
"157 18 CURVE SMOOTH"
);
}
);
userData = {
assembly = "PUSHW[ ]	/* 4 values pushed */\01231 6 66 4 \012CALL[ ]	/* CallFunction */\012SVTCA[0]	/* SetFreedomAndProjectionVectorToAxis */\012PUSHW[ ]	/* 1 value pushed */\0121 \012MDAP[1]	/* MoveDirectAbsPt */\012PUSHW[ ]	/* 4 values pushed */\01235 2 8 4 \012CALL[ ]	/* CallFunction */\012PUSHW[ ]	/* 3 values pushed */\0123 8 35 \012SRP1[ ]	/* SetRefPoint1 */\012SRP2[ ]	/* SetRefPoint2 */\012IP[ ]	/* InterpolatePts */\012PUSHW[ ]	/* 3 values pushed */\01275 8 35 \012SRP1[ ]	/* SetRefPoint1 */\012SRP2[ ]	/* SetRefPoint2 */\012IP[ ]	/* InterpolatePts */\012PUSHW[ ]	/* 1 value pushed */\0128 \012SRP0[ ]	/* SetRefPoint0 */\012PUSHW[ ]	/* 1 value pushed */\01276 \012MDRP[10000]	/* MoveDirectRelPt */\012IUP[0]	/* InterpolateUntPts */\012IUP[1]	/* InterpolateUntPts */";
};
width = 412;
}
);
note = G;
unicode = 0047;
},
{
color = 11;
glyphname = Gcircumflex;
lastChange = "2021-11-22 23:10:22 +0000";
layers = (
{
layerId = "04A772B0-FA71-43EE-BB43-CAC7F0EBD631";
paths = (
{
closed = 1;
nodes = (
"187.667 -9 OFFCURVE",
"208.667 1.333 OFFCURVE",
"226 16 CURVE",
"229 0 LINE",
"378 0 LINE",
"378 338 LINE",
"209 338 LINE",
"209 339 LINE",
"378 339 LINE",
"378 449 LINE SMOOTH",
"378 557.051 OFFCURVE",
"306.25 599 OFFCURVE",
"197 599 CURVE SMOOTH",
"90.333 599 OFFCURVE",
"21 558.333 OFFCURVE",
"21 449 CURVE SMOOTH",
"21 165 LINE SMOOTH",
"21 32.504 OFFCURVE",
"76.01 -9 OFFCURVE",
"157 -9 CURVE SMOOTH"
);
},
{
closed = 1;
nodes = (
"208.667 109 OFFCURVE",
"212 115 OFFCURVE",
"212 127 CURVE SMOOTH",
"212 220 LINE",
"191 220 LINE",
"191 127 LINE SMOOTH",
"191 115 OFFCURVE",
"194.667 109 OFFCURVE",
"202 109 CURVE SMOOTH"
);
},
{
closed = 1;
nodes = (
"85.537 9 OFFCURVE",
"38 46.899 OFFCURVE",
"38 165 CURVE SMOOTH",
"38 449 LINE SMOOTH",
"38 543.779 OFFCURVE",
"101.316 581 OFFCURVE",
"197 581 CURVE SMOOTH",
"293.964 581 OFFCURVE",
"361 543.825 OFFCURVE",
"361 449 CURVE SMOOTH",
"361 358 LINE",
"212 358 LINE",
"212 458 LINE SMOOTH",
"212 470 OFFCURVE",
"208.667 476 OFFCURVE",
"202 476 CURVE SMOOTH",
"194.667 476 OFFCURVE",
"191 470 OFFCURVE",
"191 458 CURVE SMOOTH",
"191 319 LINE",
"361 319 LINE",
"361 18 LINE",
"243 18 LINE",
"234 55 LINE",
"222 31 OFFCURVE",
"199.667 9 OFFCURVE",
"157 9 CURVE SMOOTH"
);
},
{
closed = 1;
nodes = (
"205.767 18 OFFCURVE",
"226.863 54.301 OFFCURVE",
"238 84 CURVE",
"250 27 LINE",
"352 27 LINE",
"352 310 LINE",
"199 310 LINE",
"199 229 LINE",
"221 229 LINE",
"221 127 LINE SMOOTH",
"221 105.667 OFFCURVE",
"212.667 100 OFFCURVE",
"202 100 CURVE SMOOTH",
"191.333 100 OFFCURVE",
"183 105.667 OFFCURVE",
"183 127 CURVE SMOOTH",
"183 458 LINE SMOOTH",
"183 479.333 OFFCURVE",
"191.333 485 OFFCURVE",
"202 485 CURVE SMOOTH",
"212.667 485 OFFCURVE",
"221 479.333 OFFCURVE",
"221 458 CURVE SMOOTH",
"221 367 LINE",
"352 367 LINE",
"352 449 LINE SMOOTH",
"352 538.463 OFFCURVE",
"288.716 572 OFFCURVE",
"197 572 CURVE SMOOTH",
"106.333 572 OFFCURVE",
"47 538.333 OFFCURVE",
"47 449 CURVE SMOOTH",
"47 165 LINE SMOOTH",
"47 55.587 OFFCURVE",
"89.242 18 OFFCURVE",
"157 18 CURVE SMOOTH"
);
},
{
closed = 1;
nodes = (
"168 632 LINE",
"200 664 LINE",
"231 632 LINE",
"380 632 LINE",
"243 749 LINE",
"157 749 LINE",
"21 632 LINE"
);
},
{
closed = 1;
nodes = (
"165 736 LINE",
"236 736 LINE",
"343 645 LINE",
"239 645 LINE",
"200 687 LINE",
"160 645 LINE",
"59 645 LINE"
);
},
{
closed = 1;
nodes = (
"156 652 LINE",
"200 698 LINE",
"243 652 LINE",
"324 652 LINE",
"232 729 LINE",
"168 729 LINE",
"78 652 LINE"
);
}
);
userData = {
assembly = "PUSHW[ ]	/* 4 values pushed */\01231 6 66 4 \012CALL[ ]	/* CallFunction */\012PUSHW[ ]	/* 3 values pushed */\012109 66 31 \012SRP1[ ]	/* SetRefPoint1 */\012SRP2[ ]	/* SetRefPoint2 */\012IP[ ]	/* InterpolatePts */\012PUSHW[ ]	/* 1 value pushed */\012109 \012MDAP[1]	/* MoveDirectAbsPt */\012PUSHW[ ]	/* 2 values pushed */\012105 5 \012MIRP[10100]	/* MoveIndirectRelPt */\012PUSHW[ ]	/* 3 values pushed */\0123 109 105 \012SRP1[ ]	/* SetRefPoint1 */\012SRP2[ ]	/* SetRefPoint2 */\012IP[ ]	/* InterpolatePts */\012PUSHW[ ]	/* 3 values pushed */\01275 109 105 \012SRP1[ ]	/* SetRefPoint1 */\012SRP2[ ]	/* SetRefPoint2 */\012IP[ ]	/* InterpolatePts */\012PUSHW[ ]	/* 3 values pushed */\01281 109 105 \012SRP1[ ]	/* SetRefPoint1 */\012SRP2[ ]	/* SetRefPoint2 */\012IP[ ]	/* InterpolatePts */\012PUSHW[ ]	/* 3 values pushed */\01285 109 105 \012SRP1[ ]	/* SetRefPoint1 */\012SRP2[ ]	/* SetRefPoint2 */\012IP[ ]	/* InterpolatePts */\012PUSHW[ ]	/* 3 values pushed */\012112 66 31 \012SRP1[ ]	/* SetRefPoint1 */\012SRP2[ ]	/* SetRefPoint2 */\012IP[ ]	/* InterpolatePts */\012PUSHW[ ]	/* 1 value pushed */\012126 \012MDRP[11100]	/* MoveDirectRelPt */\012SVTCA[0]	/* SetFreedomAndProjectionVectorToAxis */\012PUSHW[ ]	/* 1 value pushed */\0121 \012MDAP[1]	/* MoveDirectAbsPt */\012PUSHW[ ]	/* 4 values pushed */\01235 2 8 4 \012CALL[ ]	/* CallFunction */\012PUSHW[ ]	/* 4 values pushed */\012104 2 106 4 \012CALL[ ]	/* CallFunction */\012PUSHW[ ]	/* 4 values pushed */\01241 2 40 4 \012CALL[ ]	/* CallFunction */\012PUSHW[ ]	/* 3 values pushed */\0123 8 35 \012SRP1[ ]	/* SetRefPoint1 */\012SRP2[ ]	/* SetRefPoint2 */\012IP[ ]	/* InterpolatePts */\012PUSHW[ ]	/* 3 values pushed */\01275 8 35 \012SRP1[ ]	/* SetRefPoint1 */\012SRP2[ ]	/* SetRefPoint2 */\012IP[ ]	/* InterpolatePts */\012PUSHW[ ]	/* 1 value pushed */\0128 \012SRP0[ ]	/* SetRefPoint0 */\012PUSHW[ ]	/* 1 value pushed */\01276 \012MDRP[10000]	/* MoveDirectRelPt */\012PUSHW[ ]	/* 1 value pushed */\012106 \012SRP0[ ]	/* SetRefPoint0 */\012PUSHW[ ]	/* 1 value pushed */\012108 \012MDRP[10000]	/* MoveDirectRelPt */\012PUSHW[ ]	/* 1 value pushed */\012104 \012SRP0[ ]	/* SetRefPoint0 */\012PUSHW[ ]	/* 1 value pushed */\012111 \012MDRP[10000]	/* MoveDirectRelPt */\012PUSHW[ ]	/* 1 value pushed */\012111 \012MDAP[1]	/* MoveDirectAbsPt */\012PUSHW[ ]	/* 1 value pushed */\012106 \012SRP0[ ]	/* SetRefPoint0 */\012PUSHW[ ]	/* 1 value pushed */\012112 \012MDRP[10000]	/* MoveDirectRelPt */\012PUSHW[ ]	/* 1 value pushed */\012112 \012MDAP[1]	/* MoveDirectAbsPt */\012PUSHW[ ]	/* 1 value pushed */\012106 \012SRP0[ ]	/* SetRefPoint0 */\012PUSHW[ ]	/* 1 value pushed */\012115 \012MDRP[10000]	/* MoveDirectRelPt */\012PUSHW[ ]	/* 1 value pushed */\012115 \012MDAP[1]	/* MoveDirectAbsPt */\012IUP[0]	/* InterpolateUntPts */\012IUP[1]	/* InterpolateUntPts */";
};
width = 412;
}
);
note = Gcircumflex;
unicode = 011C;
},
{
color = 11;
glyphname = Gdotaccent;
lastChange = "2021-11-22 23:10:22 +0000";
layers = (
{
layerId = "04A772B0-FA71-43EE-BB43-CAC7F0EBD631";
paths = (
{
closed = 1;
nodes = (
"187.667 -9 OFFCURVE",
"208.667 1.333 OFFCURVE",
"226 16 CURVE",
"229 0 LINE",
"378 0 LINE",
"378 338 LINE",
"209 338 LINE",
"209 339 LINE",
"378 339 LINE",
"378 449 LINE SMOOTH",
"378 557.051 OFFCURVE",
"306.25 599 OFFCURVE",
"197 599 CURVE SMOOTH",
"90.333 599 OFFCURVE",
"21 558.333 OFFCURVE",
"21 449 CURVE SMOOTH",
"21 165 LINE SMOOTH",
"21 32.504 OFFCURVE",
"76.01 -9 OFFCURVE",
"157 -9 CURVE SMOOTH"
);
},
{
closed = 1;
nodes = (
"208.667 109 OFFCURVE",
"212 115 OFFCURVE",
"212 127 CURVE SMOOTH",
"212 220 LINE",
"191 220 LINE",
"191 127 LINE SMOOTH",
"191 115 OFFCURVE",
"194.667 109 OFFCURVE",
"202 109 CURVE SMOOTH"
);
},
{
closed = 1;
nodes = (
"85.537 9 OFFCURVE",
"38 46.899 OFFCURVE",
"38 165 CURVE SMOOTH",
"38 449 LINE SMOOTH",
"38 543.779 OFFCURVE",
"101.316 581 OFFCURVE",
"197 581 CURVE SMOOTH",
"293.964 581 OFFCURVE",
"361 543.825 OFFCURVE",
"361 449 CURVE SMOOTH",
"361 358 LINE",
"212 358 LINE",
"212 458 LINE SMOOTH",
"212 470 OFFCURVE",
"208.667 476 OFFCURVE",
"202 476 CURVE SMOOTH",
"194.667 476 OFFCURVE",
"191 470 OFFCURVE",
"191 458 CURVE SMOOTH",
"191 319 LINE",
"361 319 LINE",
"361 18 LINE",
"243 18 LINE",
"234 55 LINE",
"222 31 OFFCURVE",
"199.667 9 OFFCURVE",
"157 9 CURVE SMOOTH"
);
},
{
closed = 1;
nodes = (
"205.767 18 OFFCURVE",
"226.863 54.301 OFFCURVE",
"238 84 CURVE",
"250 27 LINE",
"352 27 LINE",
"352 310 LINE",
"199 310 LINE",
"199 229 LINE",
"221 229 LINE",
"221 127 LINE SMOOTH",
"221 105.667 OFFCURVE",
"212.667 100 OFFCURVE",
"202 100 CURVE SMOOTH",
"191.333 100 OFFCURVE",
"183 105.667 OFFCURVE",
"183 127 CURVE SMOOTH",
"183 458 LINE SMOOTH",
"183 479.333 OFFCURVE",
"191.333 485 OFFCURVE",
"202 485 CURVE SMOOTH",
"212.667 485 OFFCURVE",
"221 479.333 OFFCURVE",
"221 458 CURVE SMOOTH",
"221 367 LINE",
"352 367 LINE",
"352 449 LINE SMOOTH",
"352 538.463 OFFCURVE",
"288.716 572 OFFCURVE",
"197 572 CURVE SMOOTH",
"106.333 572 OFFCURVE",
"47 538.333 OFFCURVE",
"47 449 CURVE SMOOTH",
"47 165 LINE SMOOTH",
"47 55.587 OFFCURVE",
"89.242 18 OFFCURVE",
"157 18 CURVE SMOOTH"
);
},
{
closed = 1;
nodes = (
"234 636 OFFCURVE",
"261 661.333 OFFCURVE",
"261 692 CURVE SMOOTH",
"261 724 OFFCURVE",
"234 749 OFFCURVE",
"202 749 CURVE SMOOTH",
"168.667 749 OFFCURVE",
"143 724 OFFCURVE",
"143 692 CURVE SMOOTH",
"143 661.333 OFFCURVE",
"168.667 636 OFFCURVE",
"202 636 CURVE SMOOTH"
);
},
{
closed = 1;
nodes = (
"175.333 649 OFFCURVE",
"157 669.333 OFFCURVE",
"157 692 CURVE SMOOTH",
"157 717.333 OFFCURVE",
"175.333 736 OFFCURVE",
"202 736 CURVE SMOOTH",
"227.333 736 OFFCURVE",
"248 717.333 OFFCURVE",
"248 692 CURVE SMOOTH",
"248 669.333 OFFCURVE",
"227.333 649 OFFCURVE",
"202 649 CURVE SMOOTH"
);
},
{
closed = 1;
nodes = (
"224.667 656 OFFCURVE",
"242 672 OFFCURVE",
"242 692 CURVE SMOOTH",
"242 713.333 OFFCURVE",
"224.667 730 OFFCURVE",
"202 730 CURVE SMOOTH",
"179.333 730 OFFCURVE",
"163 713.333 OFFCURVE",
"163 692 CURVE SMOOTH",
"163 672 OFFCURVE",
"179.333 656 OFFCURVE",
"202 656 CURVE SMOOTH"
);
}
);
userData = {
assembly = "PUSHW[ ]	/* 4 values pushed */\01231 6 66 4 \012CALL[ ]	/* CallFunction */\012PUSHW[ ]	/* 3 values pushed */\012104 66 31 \012SRP1[ ]	/* SetRefPoint1 */\012SRP2[ ]	/* SetRefPoint2 */\012IP[ ]	/* InterpolatePts */\012PUSHW[ ]	/* 1 value pushed */\012104 \012MDAP[1]	/* MoveDirectAbsPt */\012NPUSHW[ ]	/* 9 values pushed */\0129 104 25 104 41 104 57 104 4 \012DELTAP1[ ]	/* DeltaExceptionP1 */\012PUSHW[ ]	/* 2 values pushed */\012110 6 \012MIRP[10100]	/* MoveIndirectRelPt */\012PUSHW[ ]	/* 3 values pushed */\0123 104 110 \012SRP1[ ]	/* SetRefPoint1 */\012SRP2[ ]	/* SetRefPoint2 */\012IP[ ]	/* InterpolatePts */\012PUSHW[ ]	/* 3 values pushed */\01275 104 110 \012SRP1[ ]	/* SetRefPoint1 */\012SRP2[ ]	/* SetRefPoint2 */\012IP[ ]	/* InterpolatePts */\012PUSHW[ ]	/* 3 values pushed */\01281 104 110 \012SRP1[ ]	/* SetRefPoint1 */\012SRP2[ ]	/* SetRefPoint2 */\012IP[ ]	/* InterpolatePts */\012PUSHW[ ]	/* 3 values pushed */\01285 104 110 \012SRP1[ ]	/* SetRefPoint1 */\012SRP2[ ]	/* SetRefPoint2 */\012IP[ ]	/* InterpolatePts */\012PUSHW[ ]	/* 1 value pushed */\012104 \012SRP0[ ]	/* SetRefPoint0 */\012PUSHW[ ]	/* 1 value pushed */\012116 \012MDRP[10000]	/* MoveDirectRelPt */\012PUSHW[ ]	/* 1 value pushed */\012116 \012MDAP[1]	/* MoveDirectAbsPt */\012PUSHW[ ]	/* 1 value pushed */\012110 \012SRP0[ ]	/* SetRefPoint0 */\012PUSHW[ ]	/* 1 value pushed */\012122 \012MDRP[10000]	/* MoveDirectRelPt */\012PUSHW[ ]	/* 1 value pushed */\012122 \012MDAP[1]	/* MoveDirectAbsPt */\012SVTCA[0]	/* SetFreedomAndProjectionVectorToAxis */\012PUSHW[ ]	/* 1 value pushed */\0121 \012MDAP[1]	/* MoveDirectAbsPt */\012PUSHW[ ]	/* 4 values pushed */\01235 2 8 4 \012CALL[ ]	/* CallFunction */\012PUSHW[ ]	/* 4 values pushed */\012107 2 113 4 \012CALL[ ]	/* CallFunction */\012PUSHW[ ]	/* 4 values pushed */\01241 2 40 4 \012CALL[ ]	/* CallFunction */\012PUSHW[ ]	/* 3 values pushed */\0123 8 35 \012SRP1[ ]	/* SetRefPoint1 */\012SRP2[ ]	/* SetRefPoint2 */\012IP[ ]	/* InterpolatePts */\012PUSHW[ ]	/* 3 values pushed */\01275 8 35 \012SRP1[ ]	/* SetRefPoint1 */\012SRP2[ ]	/* SetRefPoint2 */\012IP[ ]	/* InterpolatePts */\012PUSHW[ ]	/* 1 value pushed */\0128 \012SRP0[ ]	/* SetRefPoint0 */\012PUSHW[ ]	/* 1 value pushed */\01276 \012MDRP[10000]	/* MoveDirectRelPt */\012PUSHW[ ]	/* 1 value pushed */\012113 \012SRP0[ ]	/* SetRefPoint0 */\012PUSHW[ ]	/* 1 value pushed */\012119 \012MDRP[10000]	/* MoveDirectRelPt */\012PUSHW[ ]	/* 1 value pushed */\012119 \012MDAP[1]	/* MoveDirectAbsPt */\012PUSHW[ ]	/* 1 value pushed */\012107 \012SRP0[ ]	/* SetRefPoint0 */\012PUSHW[ ]	/* 1 value pushed */\012125 \012MDRP[10000]	/* MoveDirectRelPt */\012PUSHW[ ]	/* 1 value pushed */\012125 \012MDAP[1]	/* MoveDirectAbsPt */\012IUP[0]	/* InterpolateUntPts */\012IUP[1]	/* InterpolateUntPts */";
};
width = 412;
}
);
note = Gdotaccent;
unicode = 0120;
},
{
glyphname = H;
lastChange = "2021-11-22 23:10:22 +0000";
layers = (
{
layerId = "04A772B0-FA71-43EE-BB43-CAC7F0EBD631";
paths = (
{
closed = 1;
nodes = (
"379 0 LINE",
"379 591 LINE",
"25 591 LINE",
"25 0 LINE"
);
},
{
closed = 1;
nodes = (
"42 573 LINE",
"196 573 LINE",
"196 365 LINE",
"209 365 LINE",
"209 573 LINE",
"362 573 LINE",
"362 18 LINE",
"209 18 LINE",
"209 241 LINE",
"196 241 LINE",
"196 18 LINE",
"42 18 LINE"
);
},
{
closed = 1;
nodes = (
"187 27 LINE",
"187 250 LINE",
"218 250 LINE",
"218 27 LINE",
"354 27 LINE",
"354 564 LINE",
"218 564 LINE",
"218 356 LINE",
"187 356 LINE",
"187 564 LINE",
"51 564 LINE",
"51 27 LINE"
);
}
);
userData = {
assembly = "SVTCA[0]	/* SetFreedomAndProjectionVectorToAxis */\012PUSHW[ ]	/* 1 value pushed */\0121 \012MDAP[1]	/* MoveDirectAbsPt */\012PUSHW[ ]	/* 1 value pushed */\0129 \012MDAP[1]	/* MoveDirectAbsPt */\012PUSHW[ ]	/* 4 values pushed */\0125 3 0 4 \012CALL[ ]	/* CallFunction */\012IUP[0]	/* InterpolateUntPts */\012IUP[1]	/* InterpolateUntPts */";
};
width = 413;
}
);
note = H;
unicode = 0048;
},
{
color = 11;
glyphname = Hbar;
lastChange = "2021-11-22 23:10:22 +0000";
layers = (
{
layerId = "04A772B0-FA71-43EE-BB43-CAC7F0EBD631";
paths = (
{
closed = 1;
nodes = (
"407 0 LINE",
"407 397 LINE",
"440 397 LINE",
"440 523 LINE",
"407 523 LINE",
"407 591 LINE",
"44 591 LINE",
"44 523 LINE",
"4 523 LINE",
"4 397 LINE",
"44 397 LINE",
"44 0 LINE"
);
},
{
closed = 1;
nodes = (
"61 415 LINE",
"22 415 LINE",
"22 505 LINE",
"61 505 LINE",
"61 573 LINE",
"218 573 LINE",
"218 505 LINE",
"233 505 LINE",
"233 573 LINE",
"390 573 LINE",
"390 505 LINE",
"422 505 LINE",
"422 415 LINE",
"390 415 LINE",
"390 18 LINE",
"233 18 LINE",
"233 241 LINE",
"218 241 LINE",
"218 18 LINE",
"61 18 LINE"
);
},
{
closed = 1;
nodes = (
"210 27 LINE",
"210 250 LINE",
"241 250 LINE",
"241 27 LINE",
"381 27 LINE",
"381 424 LINE",
"414 424 LINE",
"414 496 LINE",
"381 496 LINE",
"381 564 LINE",
"241 564 LINE",
"241 496 LINE",
"210 496 LINE",
"210 564 LINE",
"70 564 LINE",
"70 496 LINE",
"30 496 LINE",
"30 424 LINE",
"70 424 LINE",
"70 27 LINE"
);
},
{
closed = 1;
nodes = (
"210 424 LINE",
"241 424 LINE",
"241 356 LINE",
"210 356 LINE"
);
},
{
closed = 1;
nodes = (
"233 365 LINE",
"233 415 LINE",
"218 415 LINE",
"218 365 LINE"
);
}
);
userData = {
assembly = "SVTCA[0]	/* SetFreedomAndProjectionVectorToAxis */\012PUSHW[ ]	/* 1 value pushed */\0121 \012MDAP[1]	/* MoveDirectAbsPt */\012PUSHW[ ]	/* 1 value pushed */\01217 \012MDAP[1]	/* MoveDirectAbsPt */\012PUSHW[ ]	/* 4 values pushed */\01223 3 0 4 \012CALL[ ]	/* CallFunction */\012IUP[0]	/* InterpolateUntPts */\012IUP[1]	/* InterpolateUntPts */";
};
width = 423;
}
);
note = Hbar;
unicode = 0126;
},
{
color = 11;
glyphname = Hcircumflex;
lastChange = "2021-11-22 23:10:22 +0000";
layers = (
{
layerId = "04A772B0-FA71-43EE-BB43-CAC7F0EBD631";
paths = (
{
closed = 1;
nodes = (
"379 0 LINE",
"379 583 LINE",
"387 583 LINE",
"379 591 LINE",
"379 603 LINE",
"370 603 LINE",
"246 747 LINE",
"158 747 LINE",
"34 603 LINE",
"25 603 LINE",
"25 591 LINE",
"18 583 LINE",
"25 583 LINE",
"25 0 LINE"
);
},
{
closed = 1;
nodes = (
"42 584 LINE",
"196 584 LINE",
"196 372 LINE",
"209 372 LINE",
"209 584 LINE",
"362 584 LINE",
"362 19 LINE",
"209 19 LINE",
"209 245 LINE",
"196 245 LINE",
"196 19 LINE",
"42 19 LINE"
);
},
{
closed = 1;
nodes = (
"187 28 LINE",
"187 255 LINE",
"218 255 LINE",
"218 28 LINE",
"354 28 LINE",
"354 575 LINE",
"218 575 LINE",
"218 363 LINE",
"187 363 LINE",
"187 575 LINE",
"51 575 LINE",
"51 28 LINE"
);
},
{
closed = 1;
nodes = (
"202 629 LINE",
"219 603 LINE",
"183 603 LINE"
);
},
{
closed = 1;
nodes = (
"166 728 LINE",
"238 728 LINE",
"349 602 LINE",
"242 602 LINE",
"202 660 LINE",
"160 602 LINE",
"56 602 LINE"
);
},
{
closed = 1;
nodes = (
"156 611 LINE",
"202 676 LINE",
"246 611 LINE",
"329 611 LINE",
"235 719 LINE",
"169 719 LINE",
"76 611 LINE"
);
}
);
userData = {
assembly = "PUSHW[ ]	/* 4 values pushed */\0124 6 20 4 \012CALL[ ]	/* CallFunction */\012PUSHW[ ]	/* 1 value pushed */\0124 \012SRP0[ ]	/* SetRefPoint0 */\012PUSHW[ ]	/* 1 value pushed */\0120 \012MDRP[10000]	/* MoveDirectRelPt */\012PUSHW[ ]	/* 1 value pushed */\01220 \012SRP0[ ]	/* SetRefPoint0 */\012PUSHW[ ]	/* 1 value pushed */\0122 \012MDRP[10000]	/* MoveDirectRelPt */\012PUSHW[ ]	/* 1 value pushed */\0122 \012MDAP[1]	/* MoveDirectAbsPt */\012PUSHW[ ]	/* 3 values pushed */\01217 20 4 \012SRP1[ ]	/* SetRefPoint1 */\012SRP2[ ]	/* SetRefPoint2 */\012IP[ ]	/* InterpolatePts */\012PUSHW[ ]	/* 1 value pushed */\01217 \012MDAP[1]	/* MoveDirectAbsPt */\012PUSHW[ ]	/* 2 values pushed */\01213 5 \012MIRP[10100]	/* MoveIndirectRelPt */\012PUSHW[ ]	/* 3 values pushed */\01215 17 13 \012SRP1[ ]	/* SetRefPoint1 */\012SRP2[ ]	/* SetRefPoint2 */\012IP[ ]	/* InterpolatePts */\012PUSHW[ ]	/* 3 values pushed */\01222 17 13 \012SRP1[ ]	/* SetRefPoint1 */\012SRP2[ ]	/* SetRefPoint2 */\012IP[ ]	/* InterpolatePts */\012PUSHW[ ]	/* 3 values pushed */\01252 20 4 \012SRP1[ ]	/* SetRefPoint1 */\012SRP2[ ]	/* SetRefPoint2 */\012IP[ ]	/* InterpolatePts */\012PUSHW[ ]	/* 3 values pushed */\01253 17 13 \012SRP1[ ]	/* SetRefPoint1 */\012SRP2[ ]	/* SetRefPoint2 */\012IP[ ]	/* InterpolatePts */\012PUSHW[ ]	/* 3 values pushed */\01254 17 13 \012SRP1[ ]	/* SetRefPoint1 */\012SRP2[ ]	/* SetRefPoint2 */\012IP[ ]	/* InterpolatePts */\012PUSHW[ ]	/* 1 value pushed */\01256 \012MDRP[11100]	/* MoveDirectRelPt */\012SVTCA[0]	/* SetFreedomAndProjectionVectorToAxis */\012PUSHW[ ]	/* 1 value pushed */\0121 \012MDAP[1]	/* MoveDirectAbsPt */\012PUSHW[ ]	/* 1 value pushed */\0129 \012MDAP[1]	/* MoveDirectAbsPt */\012PUSHW[ ]	/* 4 values pushed */\01212 4 14 4 \012CALL[ ]	/* CallFunction */\012PUSHW[ ]	/* 4 values pushed */\0125 4 0 4 \012CALL[ ]	/* CallFunction */\012PUSHW[ ]	/* 1 value pushed */\01214 \012SRP0[ ]	/* SetRefPoint0 */\012PUSHW[ ]	/* 1 value pushed */\01216 \012MDRP[10000]	/* MoveDirectRelPt */\012PUSHW[ ]	/* 3 values pushed */\01222 14 12 \012SRP1[ ]	/* SetRefPoint1 */\012SRP2[ ]	/* SetRefPoint2 */\012IP[ ]	/* InterpolatePts */\012PUSHW[ ]	/* 3 values pushed */\01254 14 12 \012SRP1[ ]	/* SetRefPoint1 */\012SRP2[ ]	/* SetRefPoint2 */\012IP[ ]	/* InterpolatePts */\012IUP[0]	/* InterpolateUntPts */\012IUP[1]	/* InterpolateUntPts */";
};
width = 413;
}
);
note = Hcircumflex;
unicode = 0124;
},
{
glyphname = I;
lastChange = "2021-11-22 23:10:22 +0000";
layers = (
{
layerId = "04A772B0-FA71-43EE-BB43-CAC7F0EBD631";
paths = (
{
closed = 1;
nodes = (
"195 0 LINE",
"195 591 LINE",
"36 591 LINE",
"36 0 LINE"
);
},
{
closed = 1;
nodes = (
"50 573 LINE",
"180 573 LINE",
"180 18 LINE",
"50 18 LINE"
);
},
{
closed = 1;
nodes = (
"173 27 LINE",
"173 564 LINE",
"58 564 LINE",
"58 27 LINE"
);
}
);
userData = {
assembly = "SVTCA[0]	/* SetFreedomAndProjectionVectorToAxis */\012PUSHW[ ]	/* 1 value pushed */\0120 \012MDAP[1]	/* MoveDirectAbsPt */\012IUP[0]	/* InterpolateUntPts */\012IUP[1]	/* InterpolateUntPts */";
};
width = 227;
}
);
note = I;
unicode = 0049;
},
{
color = 11;
glyphname = Iacute;
lastChange = "2021-11-22 23:10:22 +0000";
layers = (
{
layerId = "04A772B0-FA71-43EE-BB43-CAC7F0EBD631";
paths = (
{
closed = 1;
nodes = (
"185 0 LINE",
"185 591 LINE",
"26 591 LINE",
"26 0 LINE"
);
},
{
closed = 1;
nodes = (
"40 573 LINE",
"170 573 LINE",
"170 18 LINE",
"40 18 LINE"
);
},
{
closed = 1;
nodes = (
"163 27 LINE",
"163 564 LINE",
"48 564 LINE",
"48 27 LINE"
);
},
{
closed = 1;
nodes = (
"85 737 LINE",
"211 737 LINE",
"96 658 LINE",
"-1 658 LINE"
);
},
{
closed = 1;
nodes = (
"93 665 LINE",
"190 731 LINE",
"88 731 LINE",
"16 665 LINE"
);
},
{
closed = 1;
nodes = (
"102 646 LINE",
"255 750 LINE",
"78 750 LINE",
"-36 646 LINE"
);
}
);
userData = {
assembly = "PUSHW[ ]	/* 4 values pushed */\01215 5 13 4 \012CALL[ ]	/* CallFunction */\012PUSHW[ ]	/* 3 values pushed */\0121 13 15 \012SRP1[ ]	/* SetRefPoint1 */\012SRP2[ ]	/* SetRefPoint2 */\012IP[ ]	/* InterpolatePts */\012PUSHW[ ]	/* 1 value pushed */\0121 \012MDAP[1]	/* MoveDirectAbsPt */\012PUSHW[ ]	/* 2 values pushed */\0127 6 \012MIRP[10100]	/* MoveIndirectRelPt */\012PUSHW[ ]	/* 1 value pushed */\0123 \012MDRP[10000]	/* MoveDirectRelPt */\012PUSHW[ ]	/* 1 value pushed */\0123 \012MDAP[1]	/* MoveDirectAbsPt */\012PUSHW[ ]	/* 1 value pushed */\01215 \012SRP0[ ]	/* SetRefPoint0 */\012PUSHW[ ]	/* 1 value pushed */\0128 \012MDRP[10000]	/* MoveDirectRelPt */\012PUSHW[ ]	/* 1 value pushed */\0128 \012MDAP[1]	/* MoveDirectAbsPt */\012PUSHW[ ]	/* 1 value pushed */\01215 \012SRP0[ ]	/* SetRefPoint0 */\012PUSHW[ ]	/* 1 value pushed */\01225 \012MDRP[11100]	/* MoveDirectRelPt */\012SVTCA[0]	/* SetFreedomAndProjectionVectorToAxis */\012PUSHW[ ]	/* 1 value pushed */\0120 \012MDAP[1]	/* MoveDirectAbsPt */\012PUSHW[ ]	/* 4 values pushed */\01214 2 12 4 \012CALL[ ]	/* CallFunction */\012PUSHW[ ]	/* 1 value pushed */\01214 \012SRP0[ ]	/* SetRefPoint0 */\012PUSHW[ ]	/* 1 value pushed */\01216 \012MDRP[10000]	/* MoveDirectRelPt */\012PUSHW[ ]	/* 1 value pushed */\01216 \012MDAP[1]	/* MoveDirectAbsPt */\012PUSHW[ ]	/* 1 value pushed */\01212 \012SRP0[ ]	/* SetRefPoint0 */\012PUSHW[ ]	/* 1 value pushed */\01218 \012MDRP[10000]	/* MoveDirectRelPt */\012PUSHW[ ]	/* 1 value pushed */\01218 \012MDAP[1]	/* MoveDirectAbsPt */\012IUP[0]	/* InterpolateUntPts */\012IUP[1]	/* InterpolateUntPts */";
};
width = 227;
}
);
note = Iacute;
unicode = 00CD;
},
{
color = 11;
glyphname = Icircumflex;
lastChange = "2021-11-22 23:10:22 +0000";
layers = (
{
layerId = "04A772B0-FA71-43EE-BB43-CAC7F0EBD631";
paths = (
{
closed = 1;
nodes = (
"208 0 LINE",
"208 591 LINE",
"49 591 LINE",
"49 0 LINE"
);
},
{
closed = 1;
nodes = (
"63 573 LINE",
"193 573 LINE",
"193 18 LINE",
"63 18 LINE"
);
},
{
closed = 1;
nodes = (
"186 27 LINE",
"186 564 LINE",
"71 564 LINE",
"71 27 LINE"
);
},
{
closed = 1;
nodes = (
"95 632 LINE",
"127 664 LINE",
"158 632 LINE",
"307 632 LINE",
"170 749 LINE",
"84 749 LINE",
"-52 632 LINE"
);
},
{
closed = 1;
nodes = (
"92 736 LINE",
"163 736 LINE",
"270 645 LINE",
"166 645 LINE",
"127 687 LINE",
"87 645 LINE",
"-14 645 LINE"
);
},
{
closed = 1;
nodes = (
"83 652 LINE",
"127 698 LINE",
"170 652 LINE",
"251 652 LINE",
"159 729 LINE",
"95 729 LINE",
"5 652 LINE"
);
}
);
userData = {
assembly = "PUSHW[ ]	/* 4 values pushed */\01213 5 17 4 \012CALL[ ]	/* CallFunction */\012PUSHW[ ]	/* 3 values pushed */\0121 17 13 \012SRP1[ ]	/* SetRefPoint1 */\012SRP2[ ]	/* SetRefPoint2 */\012IP[ ]	/* InterpolatePts */\012PUSHW[ ]	/* 1 value pushed */\0121 \012MDAP[1]	/* MoveDirectAbsPt */\012PUSHW[ ]	/* 2 values pushed */\0120 6 \012MIRP[10100]	/* MoveIndirectRelPt */\012PUSHW[ ]	/* 1 value pushed */\0124 \012MDRP[10000]	/* MoveDirectRelPt */\012PUSHW[ ]	/* 1 value pushed */\0124 \012MDAP[1]	/* MoveDirectAbsPt */\012PUSHW[ ]	/* 1 value pushed */\01213 \012SRP0[ ]	/* SetRefPoint0 */\012PUSHW[ ]	/* 1 value pushed */\01234 \012MDRP[11100]	/* MoveDirectRelPt */\012SVTCA[0]	/* SetFreedomAndProjectionVectorToAxis */\012PUSHW[ ]	/* 1 value pushed */\0120 \012MDAP[1]	/* MoveDirectAbsPt */\012PUSHW[ ]	/* 4 values pushed */\01212 2 14 4 \012CALL[ ]	/* CallFunction */\012PUSHW[ ]	/* 1 value pushed */\01214 \012SRP0[ ]	/* SetRefPoint0 */\012PUSHW[ ]	/* 1 value pushed */\01216 \012MDRP[10000]	/* MoveDirectRelPt */\012PUSHW[ ]	/* 1 value pushed */\01212 \012SRP0[ ]	/* SetRefPoint0 */\012PUSHW[ ]	/* 1 value pushed */\01219 \012MDRP[10000]	/* MoveDirectRelPt */\012PUSHW[ ]	/* 1 value pushed */\01219 \012MDAP[1]	/* MoveDirectAbsPt */\012PUSHW[ ]	/* 1 value pushed */\01214 \012SRP0[ ]	/* SetRefPoint0 */\012PUSHW[ ]	/* 1 value pushed */\01220 \012MDRP[10000]	/* MoveDirectRelPt */\012PUSHW[ ]	/* 1 value pushed */\01220 \012MDAP[1]	/* MoveDirectAbsPt */\012PUSHW[ ]	/* 1 value pushed */\01214 \012SRP0[ ]	/* SetRefPoint0 */\012PUSHW[ ]	/* 1 value pushed */\01223 \012MDRP[10000]	/* MoveDirectRelPt */\012PUSHW[ ]	/* 1 value pushed */\01223 \012MDAP[1]	/* MoveDirectAbsPt */\012IUP[0]	/* InterpolateUntPts */\012IUP[1]	/* InterpolateUntPts */";
};
width = 256;
}
);
note = Icircumflex;
unicode = 00CE;
},
{
color = 11;
glyphname = Idieresis;
lastChange = "2021-11-22 23:10:22 +0000";
layers = (
{
layerId = "04A772B0-FA71-43EE-BB43-CAC7F0EBD631";
paths = (
{
closed = 1;
nodes = (
"185 0 LINE",
"185 591 LINE",
"26 591 LINE",
"26 0 LINE"
);
},
{
closed = 1;
nodes = (
"40 573 LINE",
"170 573 LINE",
"170 18 LINE",
"40 18 LINE"
);
},
{
closed = 1;
nodes = (
"163 27 LINE",
"163 564 LINE",
"48 564 LINE",
"48 27 LINE"
);
},
{
closed = 1;
nodes = (
"78.333 644 OFFCURVE",
"104 667.667 OFFCURVE",
"104 697 CURVE SMOOTH",
"104 725 OFFCURVE",
"78.333 750 OFFCURVE",
"49 750 CURVE SMOOTH",
"18.333 750 OFFCURVE",
"-3 725 OFFCURVE",
"-3 697 CURVE SMOOTH",
"-3 667.667 OFFCURVE",
"18.333 644 OFFCURVE",
"49 644 CURVE SMOOTH"
);
},
{
closed = 1;
nodes = (
"26.333 658 OFFCURVE",
"10 675.667 OFFCURVE",
"10 697 CURVE SMOOTH",
"10 717 OFFCURVE",
"26.333 735 OFFCURVE",
"49 735 CURVE SMOOTH",
"71.667 735 OFFCURVE",
"90 717 OFFCURVE",
"90 697 CURVE SMOOTH",
"90 675.667 OFFCURVE",
"71.667 658 OFFCURVE",
"49 658 CURVE SMOOTH"
);
},
{
closed = 1;
nodes = (
"67.667 666 OFFCURVE",
"84 679.667 OFFCURVE",
"84 697 CURVE SMOOTH",
"84 713 OFFCURVE",
"67.667 728 OFFCURVE",
"49 728 CURVE SMOOTH",
"31.667 728 OFFCURVE",
"19 713 OFFCURVE",
"19 697 CURVE SMOOTH",
"19 679.667 OFFCURVE",
"31.667 666 OFFCURVE",
"49 666 CURVE SMOOTH"
);
},
{
closed = 1;
nodes = (
"197.667 644 OFFCURVE",
"221 667.667 OFFCURVE",
"221 697 CURVE SMOOTH",
"221 725 OFFCURVE",
"197.667 750 OFFCURVE",
"167 750 CURVE SMOOTH",
"136.333 750 OFFCURVE",
"114 725 OFFCURVE",
"114 697 CURVE SMOOTH",
"114 667.667 OFFCURVE",
"136.333 644 OFFCURVE",
"167 644 CURVE SMOOTH"
);
},
{
closed = 1;
nodes = (
"144.333 658 OFFCURVE",
"128 675.667 OFFCURVE",
"128 697 CURVE SMOOTH",
"128 717 OFFCURVE",
"144.333 735 OFFCURVE",
"167 735 CURVE SMOOTH",
"189.667 735 OFFCURVE",
"207 717 OFFCURVE",
"207 697 CURVE SMOOTH",
"207 675.667 OFFCURVE",
"189.667 658 OFFCURVE",
"167 658 CURVE SMOOTH"
);
},
{
closed = 1;
nodes = (
"185.667 666 OFFCURVE",
"200 679.667 OFFCURVE",
"200 697 CURVE SMOOTH",
"200 713 OFFCURVE",
"185.667 728 OFFCURVE",
"167 728 CURVE SMOOTH",
"148.333 728 OFFCURVE",
"135 713 OFFCURVE",
"135 697 CURVE SMOOTH",
"135 679.667 OFFCURVE",
"148.333 666 OFFCURVE",
"167 666 CURVE SMOOTH"
);
}
);
userData = {
assembly = "PUSHW[ ]	/* 4 values pushed */\01242 6 12 4 \012CALL[ ]	/* CallFunction */\012NPUSHW[ ]	/* 9 values pushed */\0129 12 25 12 41 12 57 12 4 \012DELTAP1[ ]	/* DeltaExceptionP1 */\012PUSHW[ ]	/* 3 values pushed */\0120 12 42 \012SRP1[ ]	/* SetRefPoint1 */\012SRP2[ ]	/* SetRefPoint2 */\012IP[ ]	/* InterpolatePts */\012PUSHW[ ]	/* 1 value pushed */\0120 \012MDAP[1]	/* MoveDirectAbsPt */\012PUSHW[ ]	/* 2 values pushed */\0121 6 \012MIRP[10100]	/* MoveIndirectRelPt */\012PUSHW[ ]	/* 1 value pushed */\0120 \012SRP0[ ]	/* SetRefPoint0 */\012PUSHW[ ]	/* 1 value pushed */\0124 \012MDRP[10000]	/* MoveDirectRelPt */\012PUSHW[ ]	/* 1 value pushed */\0124 \012MDAP[1]	/* MoveDirectAbsPt */\012PUSHW[ ]	/* 1 value pushed */\01242 \012SRP0[ ]	/* SetRefPoint0 */\012PUSHW[ ]	/* 1 value pushed */\01218 \012MDRP[10000]	/* MoveDirectRelPt */\012PUSHW[ ]	/* 1 value pushed */\01218 \012MDAP[1]	/* MoveDirectAbsPt */\012PUSHW[ ]	/* 1 value pushed */\01212 \012SRP0[ ]	/* SetRefPoint0 */\012PUSHW[ ]	/* 1 value pushed */\01236 \012MDRP[10000]	/* MoveDirectRelPt */\012PUSHW[ ]	/* 1 value pushed */\01236 \012MDAP[1]	/* MoveDirectAbsPt */\012PUSHW[ ]	/* 1 value pushed */\01242 \012SRP0[ ]	/* SetRefPoint0 */\012PUSHW[ ]	/* 1 value pushed */\01285 \012MDRP[11100]	/* MoveDirectRelPt */\012SVTCA[0]	/* SetFreedomAndProjectionVectorToAxis */\012PUSHW[ ]	/* 1 value pushed */\0120 \012MDAP[1]	/* MoveDirectAbsPt */\012IUP[0]	/* InterpolateUntPts */\012IUP[1]	/* InterpolateUntPts */";
};
width = 227;
}
);
note = Idieresis;
unicode = 00CF;
},
{
color = 11;
glyphname = Idotaccent;
lastChange = "2021-11-22 23:10:22 +0000";
layers = (
{
layerId = "04A772B0-FA71-43EE-BB43-CAC7F0EBD631";
paths = (
{
closed = 1;
nodes = (
"195 0 LINE",
"195 591 LINE",
"36 591 LINE",
"36 0 LINE"
);
},
{
closed = 1;
nodes = (
"50 573 LINE",
"180 573 LINE",
"180 18 LINE",
"50 18 LINE"
);
},
{
closed = 1;
nodes = (
"173 27 LINE",
"173 564 LINE",
"58 564 LINE",
"58 27 LINE"
);
},
{
closed = 1;
nodes = (
"141 637 OFFCURVE",
"168 662.333 OFFCURVE",
"168 693 CURVE SMOOTH",
"168 725 OFFCURVE",
"141 750 OFFCURVE",
"109 750 CURVE SMOOTH",
"75.667 750 OFFCURVE",
"50 725 OFFCURVE",
"50 693 CURVE SMOOTH",
"50 662.333 OFFCURVE",
"75.667 637 OFFCURVE",
"109 637 CURVE SMOOTH"
);
},
{
closed = 1;
nodes = (
"82.333 650 OFFCURVE",
"64 670.333 OFFCURVE",
"64 693 CURVE SMOOTH",
"64 718.333 OFFCURVE",
"82.333 737 OFFCURVE",
"109 737 CURVE SMOOTH",
"134.333 737 OFFCURVE",
"155 718.333 OFFCURVE",
"155 693 CURVE SMOOTH",
"155 670.333 OFFCURVE",
"134.333 650 OFFCURVE",
"109 650 CURVE SMOOTH"
);
},
{
closed = 1;
nodes = (
"131.667 657 OFFCURVE",
"149 673 OFFCURVE",
"149 693 CURVE SMOOTH",
"149 714.333 OFFCURVE",
"131.667 731 OFFCURVE",
"109 731 CURVE SMOOTH",
"86.333 731 OFFCURVE",
"70 714.333 OFFCURVE",
"70 693 CURVE SMOOTH",
"70 673 OFFCURVE",
"86.333 657 OFFCURVE",
"109 657 CURVE SMOOTH"
);
}
);
userData = {
assembly = "PUSHW[ ]	/* 4 values pushed */\01218 6 12 4 \012CALL[ ]	/* CallFunction */\012NPUSHW[ ]	/* 9 values pushed */\0126 18 22 18 38 18 54 18 4 \012DELTAP1[ ]	/* DeltaExceptionP1 */\012PUSHW[ ]	/* 1 value pushed */\01212 \012SRP0[ ]	/* SetRefPoint0 */\012PUSHW[ ]	/* 1 value pushed */\01224 \012MDRP[10000]	/* MoveDirectRelPt */\012PUSHW[ ]	/* 1 value pushed */\01224 \012MDAP[1]	/* MoveDirectAbsPt */\012PUSHW[ ]	/* 1 value pushed */\01218 \012SRP0[ ]	/* SetRefPoint0 */\012PUSHW[ ]	/* 1 value pushed */\01230 \012MDRP[10000]	/* MoveDirectRelPt */\012PUSHW[ ]	/* 1 value pushed */\01230 \012MDAP[1]	/* MoveDirectAbsPt */\012SVTCA[0]	/* SetFreedomAndProjectionVectorToAxis */\012PUSHW[ ]	/* 1 value pushed */\0120 \012MDAP[1]	/* MoveDirectAbsPt */\012PUSHW[ ]	/* 4 values pushed */\01215 2 21 4 \012CALL[ ]	/* CallFunction */\012PUSHW[ ]	/* 1 value pushed */\01221 \012SRP0[ ]	/* SetRefPoint0 */\012PUSHW[ ]	/* 1 value pushed */\01227 \012MDRP[10000]	/* MoveDirectRelPt */\012PUSHW[ ]	/* 1 value pushed */\01227 \012MDAP[1]	/* MoveDirectAbsPt */\012PUSHW[ ]	/* 1 value pushed */\01215 \012SRP0[ ]	/* SetRefPoint0 */\012PUSHW[ ]	/* 1 value pushed */\01233 \012MDRP[10000]	/* MoveDirectRelPt */\012PUSHW[ ]	/* 1 value pushed */\01233 \012MDAP[1]	/* MoveDirectAbsPt */\012IUP[0]	/* InterpolateUntPts */\012IUP[1]	/* InterpolateUntPts */";
};
width = 227;
}
);
note = Idotaccent;
unicode = 0130;
},
{
color = 11;
glyphname = Igrave;
lastChange = "2021-11-22 23:10:22 +0000";
layers = (
{
layerId = "04A772B0-FA71-43EE-BB43-CAC7F0EBD631";
paths = (
{
closed = 1;
nodes = (
"185 0 LINE",
"185 591 LINE",
"26 591 LINE",
"26 0 LINE"
);
},
{
closed = 1;
nodes = (
"40 573 LINE",
"170 573 LINE",
"170 18 LINE",
"40 18 LINE"
);
},
{
closed = 1;
nodes = (
"163 27 LINE",
"163 564 LINE",
"48 564 LINE",
"48 27 LINE"
);
},
{
closed = 1;
nodes = (
"237 646 LINE",
"123 750 LINE",
"-54 750 LINE",
"99 646 LINE"
);
},
{
closed = 1;
nodes = (
"-11 737 LINE",
"116 737 LINE",
"202 658 LINE",
"105 658 LINE"
);
},
{
closed = 1;
nodes = (
"185 665 LINE",
"113 731 LINE",
"11 731 LINE",
"108 665 LINE"
);
}
);
userData = {
assembly = "PUSHW[ ]	/* 4 values pushed */\01214 5 12 4 \012CALL[ ]	/* CallFunction */\012PUSHW[ ]	/* 3 values pushed */\0121 12 14 \012SRP1[ ]	/* SetRefPoint1 */\012SRP2[ ]	/* SetRefPoint2 */\012IP[ ]	/* InterpolatePts */\012PUSHW[ ]	/* 1 value pushed */\0121 \012MDAP[1]	/* MoveDirectAbsPt */\012PUSHW[ ]	/* 2 values pushed */\0127 6 \012MIRP[10100]	/* MoveIndirectRelPt */\012PUSHW[ ]	/* 1 value pushed */\0123 \012MDRP[10000]	/* MoveDirectRelPt */\012PUSHW[ ]	/* 1 value pushed */\0123 \012MDAP[1]	/* MoveDirectAbsPt */\012PUSHW[ ]	/* 1 value pushed */\01214 \012SRP0[ ]	/* SetRefPoint0 */\012PUSHW[ ]	/* 1 value pushed */\0128 \012MDRP[10000]	/* MoveDirectRelPt */\012PUSHW[ ]	/* 1 value pushed */\01214 \012SRP0[ ]	/* SetRefPoint0 */\012PUSHW[ ]	/* 1 value pushed */\01225 \012MDRP[11100]	/* MoveDirectRelPt */\012SVTCA[0]	/* SetFreedomAndProjectionVectorToAxis */\012PUSHW[ ]	/* 1 value pushed */\0120 \012MDAP[1]	/* MoveDirectAbsPt */\012PUSHW[ ]	/* 4 values pushed */\01213 2 15 4 \012CALL[ ]	/* CallFunction */\012PUSHW[ ]	/* 1 value pushed */\01215 \012SRP0[ ]	/* SetRefPoint0 */\012PUSHW[ ]	/* 1 value pushed */\01216 \012MDRP[10000]	/* MoveDirectRelPt */\012PUSHW[ ]	/* 1 value pushed */\01216 \012MDAP[1]	/* MoveDirectAbsPt */\012PUSHW[ ]	/* 1 value pushed */\01213 \012SRP0[ ]	/* SetRefPoint0 */\012PUSHW[ ]	/* 1 value pushed */\01218 \012MDRP[10000]	/* MoveDirectRelPt */\012PUSHW[ ]	/* 1 value pushed */\01218 \012MDAP[1]	/* MoveDirectAbsPt */\012IUP[0]	/* InterpolateUntPts */\012IUP[1]	/* InterpolateUntPts */";
};
width = 227;
}
);
note = Igrave;
unicode = 00CC;
},
{
color = 11;
glyphname = Imacron;
lastChange = "2021-11-22 23:10:22 +0000";
layers = (
{
layerId = "04A772B0-FA71-43EE-BB43-CAC7F0EBD631";
paths = (
{
closed = 1;
nodes = (
"195 0 LINE",
"195 580 LINE",
"219 580 LINE",
"219 700 LINE",
"1 700 LINE",
"1 580 LINE",
"24 580 LINE",
"24 0 LINE"
);
},
{
closed = 1;
nodes = (
"39 581 LINE",
"180 581 LINE",
"180 18 LINE",
"39 18 LINE"
);
},
{
closed = 1;
nodes = (
"172 28 LINE",
"172 572 LINE",
"47 572 LINE",
"47 28 LINE"
);
},
{
closed = 1;
nodes = (
"17 682 LINE",
"203 682 LINE",
"203 599 LINE",
"17 599 LINE"
);
},
{
closed = 1;
nodes = (
"195 608 LINE",
"195 672 LINE",
"24 672 LINE",
"24 608 LINE"
);
}
);
userData = {
assembly = "PUSHW[ ]	/* 4 values pushed */\0125 5 4 4 \012CALL[ ]	/* CallFunction */\012PUSHW[ ]	/* 3 values pushed */\0121 4 5 \012SRP1[ ]	/* SetRefPoint1 */\012SRP2[ ]	/* SetRefPoint2 */\012IP[ ]	/* InterpolatePts */\012PUSHW[ ]	/* 1 value pushed */\0121 \012MDAP[1]	/* MoveDirectAbsPt */\012PUSHW[ ]	/* 2 values pushed */\0120 6 \012MIRP[10100]	/* MoveIndirectRelPt */\012PUSHW[ ]	/* 1 value pushed */\0124 \012SRP0[ ]	/* SetRefPoint0 */\012PUSHW[ ]	/* 1 value pushed */\0128 \012MDRP[10000]	/* MoveDirectRelPt */\012PUSHW[ ]	/* 1 value pushed */\0128 \012MDAP[1]	/* MoveDirectAbsPt */\012PUSHW[ ]	/* 1 value pushed */\0125 \012SRP0[ ]	/* SetRefPoint0 */\012PUSHW[ ]	/* 1 value pushed */\01219 \012MDRP[10000]	/* MoveDirectRelPt */\012PUSHW[ ]	/* 1 value pushed */\0124 \012SRP0[ ]	/* SetRefPoint0 */\012PUSHW[ ]	/* 1 value pushed */\01221 \012MDRP[10000]	/* MoveDirectRelPt */\012PUSHW[ ]	/* 1 value pushed */\0125 \012SRP0[ ]	/* SetRefPoint0 */\012PUSHW[ ]	/* 1 value pushed */\01225 \012MDRP[11100]	/* MoveDirectRelPt */\012SVTCA[0]	/* SetFreedomAndProjectionVectorToAxis */\012PUSHW[ ]	/* 1 value pushed */\0120 \012MDAP[1]	/* MoveDirectAbsPt */\012PUSHW[ ]	/* 4 values pushed */\0125 2 6 4 \012CALL[ ]	/* CallFunction */\012IUP[0]	/* InterpolateUntPts */\012IUP[1]	/* InterpolateUntPts */";
};
width = 232;
}
);
note = Imacron;
unicode = 012A;
},
{
color = 11;
glyphname = Iogonek;
lastChange = "2021-11-22 23:10:22 +0000";
layers = (
{
layerId = "04A772B0-FA71-43EE-BB43-CAC7F0EBD631";
paths = (
{
closed = 1;
nodes = (
"128.055 -227 OFFCURVE",
"182.417 -200.792 OFFCURVE",
"202 -191 CURVE",
"171 -91 LINE",
"137.667 -109.667 OFFCURVE",
"121 -118 OFFCURVE",
"105 -118 CURVE SMOOTH",
"94.333 -118 OFFCURVE",
"86 -109 OFFCURVE",
"86 -97 CURVE SMOOTH",
"86 -60.273 OFFCURVE",
"118.08 -14.055 OFFCURVE",
"149 0 CURVE",
"196 0 LINE",
"196 607 LINE",
"24 607 LINE",
"24 21 LINE",
"12.667 9 OFFCURVE",
"3.333 -5 OFFCURVE",
"-4 -21 CURVE",
"-4 -20 LINE",
"-17.333 -45.333 OFFCURVE",
"-24 -72.667 OFFCURVE",
"-24 -102 CURVE SMOOTH",
"-24 -127.333 OFFCURVE",
"-16.333 -153.667 OFFCURVE",
"-3 -175 CURVE SMOOTH",
"17 -203 OFFCURVE",
"52.667 -227 OFFCURVE",
"94 -227 CURVE SMOOTH"
);
},
{
closed = 1;
nodes = (
"127.333 -199 OFFCURVE",
"161.333 -181.667 OFFCURVE",
"172 -175 CURVE",
"158 -130 LINE",
"138 -140.667 OFFCURVE",
"126.333 -146 OFFCURVE",
"105 -146 CURVE SMOOTH",
"78.333 -146 OFFCURVE",
"63 -125 OFFCURVE",
"63 -97 CURVE SMOOTH",
"63 -49.396 OFFCURVE",
"103.761 14.254 OFFCURVE",
"145 28 CURVE",
"172 28 LINE",
"172 579 LINE",
"47 579 LINE",
"47 28 LINE",
"80 28 LINE",
"48 14.667 OFFCURVE",
"27.667 -8.333 OFFCURVE",
"17 -35 CURVE",
"-4.333 -75 OFFCURVE",
"-8 -124.333 OFFCURVE",
"16 -159 CURVE SMOOTH",
"30.667 -183 OFFCURVE",
"58 -199 OFFCURVE",
"94 -199 CURVE SMOOTH"
);
},
{
closed = 1;
nodes = (
"55.333 -208 OFFCURVE",
"26.333 -190.667 OFFCURVE",
"9 -164 CURVE SMOOTH",
"-3 -144.667 OFFCURVE",
"-9 -124 OFFCURVE",
"-9 -102 CURVE SMOOTH",
"-9 -78 OFFCURVE",
"-1.667 -51.333 OFFCURVE",
"9 -30 CURVE SMOOTH",
"17.667 -11.333 OFFCURVE",
"30 5 OFFCURVE",
"46 19 CURVE",
"39 19 LINE",
"39 589 LINE",
"180 589 LINE",
"180 19 LINE",
"148 19 LINE",
"111.215 5.862 OFFCURVE",
"71 -53.904 OFFCURVE",
"71 -97 CURVE SMOOTH",
"71 -119.667 OFFCURVE",
"82.333 -136 OFFCURVE",
"105 -136 CURVE SMOOTH",
"125 -136 OFFCURVE",
"138 -131.333 OFFCURVE",
"162 -118 CURVE",
"182 -180 LINE",
"168.266 -188.24 OFFCURVE",
"122.998 -208 OFFCURVE",
"94 -208 CURVE SMOOTH"
);
}
);
userData = {
assembly = "PUSHW[ ]	/* 4 values pushed */\01292 6 13 4 \012CALL[ ]	/* CallFunction */\012PUSHW[ ]	/* 1 value pushed */\01292 \012SRP0[ ]	/* SetRefPoint0 */\012PUSHW[ ]	/* 1 value pushed */\01215 \012MDRP[10000]	/* MoveDirectRelPt */\012PUSHW[ ]	/* 1 value pushed */\01215 \012MDAP[1]	/* MoveDirectAbsPt */\012PUSHW[ ]	/* 3 values pushed */\01222 13 92 \012SRP1[ ]	/* SetRefPoint1 */\012SRP2[ ]	/* SetRefPoint2 */\012IP[ ]	/* InterpolatePts */\012PUSHW[ ]	/* 1 value pushed */\01222 \012MDAP[1]	/* MoveDirectAbsPt */\012PUSHW[ ]	/* 1 value pushed */\01269 \012MDRP[11100]	/* MoveDirectRelPt */\012PUSHW[ ]	/* 3 values pushed */\01245 22 69 \012SRP1[ ]	/* SetRefPoint1 */\012SRP2[ ]	/* SetRefPoint2 */\012IP[ ]	/* InterpolatePts */\012PUSHW[ ]	/* 1 value pushed */\01250 \012MDRP[10000]	/* MoveDirectRelPt */\012PUSHW[ ]	/* 1 value pushed */\01250 \012MDAP[1]	/* MoveDirectAbsPt */\012SVTCA[0]	/* SetFreedomAndProjectionVectorToAxis */\012PUSHW[ ]	/* 1 value pushed */\01212 \012MDAP[1]	/* MoveDirectAbsPt */\012PUSHW[ ]	/* 1 value pushed */\01216 \012MDAP[1]	/* MoveDirectAbsPt */\012PUSHW[ ]	/* 1 value pushed */\01277 \012MDAP[1]	/* MoveDirectAbsPt */\012PUSHW[ ]	/* 4 values pushed */\01225 2 3 4 \012CALL[ ]	/* CallFunction */\012IUP[0]	/* InterpolateUntPts */\012IUP[1]	/* InterpolateUntPts */";
};
width = 232;
}
);
note = Iogonek;
unicode = 012E;
},
{
color = 11;
glyphname = Itilde;
lastChange = "2021-11-22 23:10:22 +0000";
layers = (
{
layerId = "04A772B0-FA71-43EE-BB43-CAC7F0EBD631";
paths = (
{
closed = 1;
nodes = (
"195 0 LINE",
"195 591 LINE",
"36 591 LINE",
"36 0 LINE"
);
},
{
closed = 1;
nodes = (
"50 573 LINE",
"180 573 LINE",
"180 18 LINE",
"50 18 LINE"
);
},
{
closed = 1;
nodes = (
"173 27 LINE",
"173 564 LINE",
"58 564 LINE",
"58 27 LINE"
);
},
{
closed = 1;
nodes = (
"203.072 632.121 OFFCURVE",
"248 678.915 OFFCURVE",
"248 744 CURVE",
"165 744 LINE",
"161 727.5 LINE SMOOTH",
"159.667 722.5 OFFCURVE",
"158 720 OFFCURVE",
"156 720 CURVE SMOOTH",
"152.667 720 OFFCURVE",
"148.5 721 OFFCURVE",
"143.5 723 CURVE SMOOTH",
"128 729 LINE SMOOTH",
"113.333 735.667 OFFCURVE",
"93 743.333 OFFCURVE",
"73 746 CURVE SMOOTH",
"17 750 OFFCURVE",
"-17 701 OFFCURVE",
"-17 637 CURVE",
"65 637 LINE",
"65 643.667 OFFCURVE",
"65.333 649.833 OFFCURVE",
"66 655.5 CURVE SMOOTH",
"66.667 661.167 OFFCURVE",
"67.333 664 OFFCURVE",
"68 664 CURVE SMOOTH",
"78.667 662.667 OFFCURVE",
"90 657.333 OFFCURVE",
"102 652 CURVE SMOOTH",
"118 644 OFFCURVE",
"134.333 635 OFFCURVE",
"157 635 CURVE SMOOTH"
);
},
{
closed = 1;
nodes = (
"139.333 648 OFFCURVE",
"125.667 656.333 OFFCURVE",
"111 663 CURVE SMOOTH",
"96.333 669.667 OFFCURVE",
"83.667 675.667 OFFCURVE",
"69 677 CURVE SMOOTH",
"58.333 678.333 OFFCURVE",
"50.333 664.667 OFFCURVE",
"49 650 CURVE",
"-1 650 LINE",
"-1 699.333 OFFCURVE",
"25.333 735.667 OFFCURVE",
"72 733 CURVE SMOOTH",
"88 731.667 OFFCURVE",
"106.667 724.667 OFFCURVE",
"120 718 CURVE SMOOTH",
"130.667 712.667 OFFCURVE",
"145.667 707.333 OFFCURVE",
"155 706 CURVE SMOOTH",
"172.333 704.667 OFFCURVE",
"176.333 717.667 OFFCURVE",
"179 731 CURVE",
"232 731 LINE",
"232 681.264 OFFCURVE",
"194.896 645.162 OFFCURVE",
"158 648 CURVE SMOOTH"
);
},
{
closed = 1;
nodes = (
"192.189 654 OFFCURVE",
"224 679.489 OFFCURVE",
"224 724 CURVE",
"186 724 LINE",
"183.333 712 OFFCURVE",
"179.333 698.667 OFFCURVE",
"154 700 CURVE SMOOTH",
"129.395 700 OFFCURVE",
"100.177 724.569 OFFCURVE",
"71 727 CURVE SMOOTH",
"31 729.667 OFFCURVE",
"8 698.667 OFFCURVE",
"8 656 CURVE",
"41 656 LINE",
"42.333 670.667 OFFCURVE",
"54 685.333 OFFCURVE",
"70 684 CURVE SMOOTH",
"86 682.667 OFFCURVE",
"100.833 677.667 OFFCURVE",
"114.5 669 CURVE SMOOTH",
"128.167 660.333 OFFCURVE",
"142.667 655.333 OFFCURVE",
"158 654 CURVE SMOOTH"
);
}
);
userData = {
assembly = "PUSHW[ ]	/* 4 values pushed */\01236 6 49 4 \012CALL[ ]	/* CallFunction */\012PUSHW[ ]	/* 3 values pushed */\01223 24 3 \012CALL[ ]	/* CallFunction */\012PUSHW[ ]	/* 1 value pushed */\01236 \012SRP0[ ]	/* SetRefPoint0 */\012PUSHW[ ]	/* 1 value pushed */\0120 \012MDRP[10000]	/* MoveDirectRelPt */\012PUSHW[ ]	/* 1 value pushed */\0120 \012MDAP[1]	/* MoveDirectAbsPt */\012PUSHW[ ]	/* 1 value pushed */\01236 \012SRP0[ ]	/* SetRefPoint0 */\012PUSHW[ ]	/* 1 value pushed */\0124 \012MDRP[10000]	/* MoveDirectRelPt */\012PUSHW[ ]	/* 1 value pushed */\0124 \012MDAP[1]	/* MoveDirectAbsPt */\012PUSHW[ ]	/* 1 value pushed */\01249 \012SRP0[ ]	/* SetRefPoint0 */\012PUSHW[ ]	/* 1 value pushed */\0125 \012MDRP[10000]	/* MoveDirectRelPt */\012PUSHW[ ]	/* 1 value pushed */\0125 \012MDAP[1]	/* MoveDirectAbsPt */\012PUSHW[ ]	/* 1 value pushed */\01223 \012SRP0[ ]	/* SetRefPoint0 */\012PUSHW[ ]	/* 1 value pushed */\0129 \012MDRP[10000]	/* MoveDirectRelPt */\012PUSHW[ ]	/* 1 value pushed */\0129 \012MDAP[1]	/* MoveDirectAbsPt */\012PUSHW[ ]	/* 1 value pushed */\01249 \012SRP0[ ]	/* SetRefPoint0 */\012PUSHW[ ]	/* 2 values pushed */\01291 6 \012MIRP[10100]	/* MoveIndirectRelPt */\012PUSHW[ ]	/* 1 value pushed */\01236 \012SRP0[ ]	/* SetRefPoint0 */\012PUSHW[ ]	/* 1 value pushed */\01293 \012MDRP[11100]	/* MoveDirectRelPt */\012SVTCA[0]	/* SetFreedomAndProjectionVectorToAxis */\012PUSHW[ ]	/* 1 value pushed */\0120 \012MDAP[1]	/* MoveDirectAbsPt */\012PUSHW[ ]	/* 4 values pushed */\01227 2 20 4 \012CALL[ ]	/* CallFunction */\012PUSHW[ ]	/* 4 values pushed */\01242 2 17 4 \012CALL[ ]	/* CallFunction */\012PUSHW[ ]	/* 1 value pushed */\01227 \012SRP0[ ]	/* SetRefPoint0 */\012PUSHW[ ]	/* 1 value pushed */\01212 \012MDRP[10000]	/* MoveDirectRelPt */\012PUSHW[ ]	/* 1 value pushed */\01212 \012MDAP[1]	/* MoveDirectAbsPt */\012PUSHW[ ]	/* 1 value pushed */\01217 \012SRP0[ ]	/* SetRefPoint0 */\012PUSHW[ ]	/* 1 value pushed */\01223 \012MDRP[10000]	/* MoveDirectRelPt */\012PUSHW[ ]	/* 1 value pushed */\01223 \012MDAP[1]	/* MoveDirectAbsPt */\012PUSHW[ ]	/* 1 value pushed */\01217 \012SRP0[ ]	/* SetRefPoint0 */\012PUSHW[ ]	/* 2 values pushed */\01232 2 \012MIRP[10100]	/* MoveIndirectRelPt */\012PUSHW[ ]	/* 1 value pushed */\01242 \012SRP0[ ]	/* SetRefPoint0 */\012PUSHW[ ]	/* 1 value pushed */\01235 \012MDRP[10000]	/* MoveDirectRelPt */\012PUSHW[ ]	/* 1 value pushed */\01235 \012MDAP[1]	/* MoveDirectAbsPt */\012PUSHW[ ]	/* 1 value pushed */\01227 \012SRP0[ ]	/* SetRefPoint0 */\012PUSHW[ ]	/* 1 value pushed */\01236 \012MDRP[10000]	/* MoveDirectRelPt */\012PUSHW[ ]	/* 1 value pushed */\01236 \012MDAP[1]	/* MoveDirectAbsPt */\012PUSHW[ ]	/* 1 value pushed */\01232 \012SRP0[ ]	/* SetRefPoint0 */\012PUSHW[ ]	/* 1 value pushed */\01239 \012MDRP[10000]	/* MoveDirectRelPt */\012PUSHW[ ]	/* 1 value pushed */\01239 \012MDAP[1]	/* MoveDirectAbsPt */\012PUSHW[ ]	/* 1 value pushed */\01227 \012SRP0[ ]	/* SetRefPoint0 */\012PUSHW[ ]	/* 1 value pushed */\01245 \012MDRP[10000]	/* MoveDirectRelPt */\012PUSHW[ ]	/* 1 value pushed */\01245 \012MDAP[1]	/* MoveDirectAbsPt */\012PUSHW[ ]	/* 1 value pushed */\01217 \012SRP0[ ]	/* SetRefPoint0 */\012PUSHW[ ]	/* 1 value pushed */\01248 \012MDRP[10000]	/* MoveDirectRelPt */\012PUSHW[ ]	/* 1 value pushed */\01248 \012MDAP[1]	/* MoveDirectAbsPt */\012PUSHW[ ]	/* 1 value pushed */\01217 \012SRP0[ ]	/* SetRefPoint0 */\012PUSHW[ ]	/* 1 value pushed */\01258 \012MDRP[10000]	/* MoveDirectRelPt */\012PUSHW[ ]	/* 1 value pushed */\01258 \012MDAP[1]	/* MoveDirectAbsPt */\012PUSHW[ ]	/* 1 value pushed */\01227 \012SRP0[ ]	/* SetRefPoint0 */\012PUSHW[ ]	/* 1 value pushed */\01288 \012MDRP[10000]	/* MoveDirectRelPt */\012PUSHW[ ]	/* 1 value pushed */\01288 \012MDAP[1]	/* MoveDirectAbsPt */\012IUP[0]	/* InterpolateUntPts */\012IUP[1]	/* InterpolateUntPts */";
};
width = 227;
}
);
note = Itilde;
unicode = 0128;
},
{
glyphname = J;
lastChange = "2021-11-22 23:10:22 +0000";
layers = (
{
layerId = "04A772B0-FA71-43EE-BB43-CAC7F0EBD631";
paths = (
{
closed = 1;
nodes = (
"196.571 -1 OFFCURVE",
"242 40.553 OFFCURVE",
"242 172 CURVE SMOOTH",
"242 591 LINE",
"68 591 LINE",
"68 169 LINE SMOOTH",
"68 154.333 OFFCURVE",
"65.667 153 OFFCURVE",
"55 153 CURVE SMOOTH",
"8 153 LINE",
"8 3 LINE",
"40 -1 OFFCURVE",
"65.667 -1 OFFCURVE",
"75 -1 CURVE SMOOTH"
);
},
{
closed = 1;
nodes = (
"41.333 17 OFFCURVE",
"32 17.667 OFFCURVE",
"24 19 CURVE",
"24 134 LINE",
"55 134 LINE SMOOTH",
"79 134 OFFCURVE",
"84 141 OFFCURVE",
"84 169 CURVE SMOOTH",
"84 573 LINE",
"226 573 LINE",
"226 172 LINE SMOOTH",
"226 53.307 OFFCURVE",
"185.09 17 OFFCURVE",
"75 17 CURVE SMOOTH",
"52 17 LINE SMOOTH"
);
},
{
closed = 1;
nodes = (
"75 26 LINE SMOOTH",
"179.904 26 OFFCURVE",
"218 59.618 OFFCURVE",
"218 172 CURVE SMOOTH",
"218 564 LINE",
"92 564 LINE",
"92 169 LINE SMOOTH",
"92 133 OFFCURVE",
"85.667 125 OFFCURVE",
"55 125 CURVE SMOOTH",
"32 125 LINE",
"32 27 LINE",
"36 26.333 OFFCURVE",
"43 26 OFFCURVE",
"53 26 CURVE SMOOTH"
);
}
);
width = 278;
}
);
note = J;
unicode = 004A;
},
{
color = 11;
glyphname = Jcircumflex;
lastChange = "2021-11-22 23:10:22 +0000";
layers = (
{
layerId = "04A772B0-FA71-43EE-BB43-CAC7F0EBD631";
paths = (
{
closed = 1;
nodes = (
"205.189 -1 OFFCURVE",
"254 39.524 OFFCURVE",
"254 175 CURVE SMOOTH",
"254 583 LINE",
"343 583 LINE",
"205 747 LINE",
"119 747 LINE",
"-18 583 LINE",
"71 583 LINE",
"71 172 LINE SMOOTH",
"71 157.333 OFFCURVE",
"67.667 156 OFFCURVE",
"57 156 CURVE SMOOTH",
"8 156 LINE",
"8 3 LINE",
"25.333 1 OFFCURVE",
"40.167 -0.167 OFFCURVE",
"52.5 -0.5 CURVE SMOOTH",
"78 -1 LINE SMOOTH"
);
},
{
closed = 1;
nodes = (
"43.5 18 OFFCURVE",
"33.667 18.333 OFFCURVE",
"25 19 CURVE",
"25 137 LINE",
"57 137 LINE SMOOTH",
"82.333 137 OFFCURVE",
"87 142.667 OFFCURVE",
"87 172 CURVE SMOOTH",
"87 584 LINE",
"237 584 LINE",
"237 175 LINE SMOOTH",
"237 53.376 OFFCURVE",
"192.573 18 OFFCURVE",
"78 18 CURVE SMOOTH",
"54.5 18 LINE SMOOTH"
);
},
{
closed = 1;
nodes = (
"78 27 LINE SMOOTH",
"186.878 27 OFFCURVE",
"229 60.137 OFFCURVE",
"229 175 CURVE SMOOTH",
"229 575 LINE",
"96 575 LINE",
"96 172 LINE SMOOTH",
"96 136 OFFCURVE",
"89 128 OFFCURVE",
"57 128 CURVE SMOOTH",
"33 128 LINE",
"33 28 LINE",
"37.667 27.333 OFFCURVE",
"45.167 27 OFFCURVE",
"55.5 27 CURVE SMOOTH"
);
},
{
closed = 1;
nodes = (
"162 629 LINE",
"179 603 LINE",
"143 603 LINE"
);
},
{
closed = 1;
nodes = (
"127 729 LINE",
"198 729 LINE",
"305 602 LINE",
"201 602 LINE",
"162 660 LINE",
"122 602 LINE",
"20 602 LINE"
);
},
{
closed = 1;
nodes = (
"118 611 LINE",
"162 676 LINE",
"205 611 LINE",
"286 611 LINE",
"194 719 LINE",
"130 719 LINE",
"39 611 LINE"
);
}
);
userData = {
assembly = "PUSHW[ ]	/* 4 values pushed */\01217 5 21 4 \012CALL[ ]	/* CallFunction */\012PUSHW[ ]	/* 1 value pushed */\01221 \012SRP0[ ]	/* SetRefPoint0 */\012PUSHW[ ]	/* 1 value pushed */\0120 \012MDRP[10000]	/* MoveDirectRelPt */\012PUSHW[ ]	/* 1 value pushed */\0120 \012MDAP[1]	/* MoveDirectAbsPt */\012PUSHW[ ]	/* 3 values pushed */\01219 21 17 \012SRP1[ ]	/* SetRefPoint1 */\012SRP2[ ]	/* SetRefPoint2 */\012IP[ ]	/* InterpolatePts */\012PUSHW[ ]	/* 3 values pushed */\01226 21 17 \012SRP1[ ]	/* SetRefPoint1 */\012SRP2[ ]	/* SetRefPoint2 */\012IP[ ]	/* InterpolatePts */\012PUSHW[ ]	/* 3 values pushed */\01266 21 17 \012SRP1[ ]	/* SetRefPoint1 */\012SRP2[ ]	/* SetRefPoint2 */\012IP[ ]	/* InterpolatePts */\012PUSHW[ ]	/* 3 values pushed */\01267 21 17 \012SRP1[ ]	/* SetRefPoint1 */\012SRP2[ ]	/* SetRefPoint2 */\012IP[ ]	/* InterpolatePts */\012PUSHW[ ]	/* 3 values pushed */\01268 21 17 \012SRP1[ ]	/* SetRefPoint1 */\012SRP2[ ]	/* SetRefPoint2 */\012IP[ ]	/* InterpolatePts */\012PUSHW[ ]	/* 1 value pushed */\01217 \012SRP0[ ]	/* SetRefPoint0 */\012PUSHW[ ]	/* 1 value pushed */\01270 \012MDRP[11100]	/* MoveDirectRelPt */\012SVTCA[0]	/* SetFreedomAndProjectionVectorToAxis */\012PUSHW[ ]	/* 4 values pushed */\01216 4 18 4 \012CALL[ ]	/* CallFunction */\012PUSHW[ ]	/* 1 value pushed */\01218 \012SRP0[ ]	/* SetRefPoint0 */\012PUSHW[ ]	/* 1 value pushed */\01220 \012MDRP[10000]	/* MoveDirectRelPt */\012PUSHW[ ]	/* 3 values pushed */\01226 18 16 \012SRP1[ ]	/* SetRefPoint1 */\012SRP2[ ]	/* SetRefPoint2 */\012IP[ ]	/* InterpolatePts */\012PUSHW[ ]	/* 3 values pushed */\01268 18 16 \012SRP1[ ]	/* SetRefPoint1 */\012SRP2[ ]	/* SetRefPoint2 */\012IP[ ]	/* InterpolatePts */\012IUP[0]	/* InterpolateUntPts */\012IUP[1]	/* InterpolateUntPts */";
};
width = 288;
}
);
note = Jcircumflex;
unicode = 0134;
},
{
glyphname = K;
lastChange = "2021-11-22 23:10:22 +0000";
layers = (
{
layerId = "04A772B0-FA71-43EE-BB43-CAC7F0EBD631";
paths = (
{
closed = 1;
nodes = (
"216 0 LINE",
"216 17 LINE",
"219 0 LINE",
"429 0 LINE",
"332 306 LINE",
"428 591 LINE",
"26 591 LINE",
"26 0 LINE"
);
},
{
closed = 1;
nodes = (
"43 573 LINE",
"198 573 LINE",
"198 436 LINE",
"226 573 LINE",
"404 573 LINE",
"314 306 LINE",
"359 161.5 LINE SMOOTH",
"374.333 111.833 OFFCURVE",
"389.667 64 OFFCURVE",
"405 18 CURVE",
"233 18 LINE",
"198 182 LINE",
"198 18 LINE",
"43 18 LINE"
);
},
{
closed = 1;
nodes = (
"190 27 LINE",
"190 269 LINE",
"240 27 LINE",
"394 27 LINE",
"305 306 LINE",
"392 564 LINE",
"233 564 LINE",
"190 345 LINE",
"190 564 LINE",
"52 564 LINE",
"52 27 LINE"
);
}
);
userData = {
assembly = "PUSHW[ ]	/* 4 values pushed */\0127 6 8 4 \012CALL[ ]	/* CallFunction */\012PUSHW[ ]	/* 1 value pushed */\0127 \012SRP0[ ]	/* SetRefPoint0 */\012PUSHW[ ]	/* 1 value pushed */\0120 \012MDRP[10000]	/* MoveDirectRelPt */\012SVTCA[0]	/* SetFreedomAndProjectionVectorToAxis */\012PUSHW[ ]	/* 1 value pushed */\0124 \012MDAP[1]	/* MoveDirectAbsPt */\012PUSHW[ ]	/* 1 value pushed */\0127 \012MDAP[1]	/* MoveDirectAbsPt */\012IUP[0]	/* InterpolateUntPts */\012IUP[1]	/* InterpolateUntPts */";
};
width = 440;
}
);
note = K;
unicode = 004B;
},
{
glyphname = L;
lastChange = "2021-11-22 23:10:22 +0000";
layers = (
{
layerId = "04A772B0-FA71-43EE-BB43-CAC7F0EBD631";
paths = (
{
closed = 1;
nodes = (
"290 0 LINE",
"290 153 LINE",
"201 153 LINE",
"201 591 LINE",
"24 591 LINE",
"24 0 LINE"
);
},
{
closed = 1;
nodes = (
"41 573 LINE",
"185 573 LINE",
"185 134 LINE",
"274 134 LINE",
"274 18 LINE",
"41 18 LINE"
);
},
{
closed = 1;
nodes = (
"266 27 LINE",
"266 125 LINE",
"177 125 LINE",
"177 564 LINE",
"49 564 LINE",
"49 27 LINE"
);
}
);
userData = {
assembly = "PUSHW[ ]	/* 4 values pushed */\0121 6 0 4 \012CALL[ ]	/* CallFunction */\012SVTCA[0]	/* SetFreedomAndProjectionVectorToAxis */\012PUSHW[ ]	/* 4 values pushed */\0123 3 4 4 \012CALL[ ]	/* CallFunction */\012IUP[0]	/* InterpolateUntPts */\012IUP[1]	/* InterpolateUntPts */";
};
width = 314;
}
);
note = L;
rightKerningGroup = L;
unicode = 004C;
},
{
color = 11;
glyphname = Lacute;
lastChange = "2021-11-22 23:10:22 +0000";
layers = (
{
layerId = "04A772B0-FA71-43EE-BB43-CAC7F0EBD631";
paths = (
{
closed = 1;
nodes = (
"290 0 LINE",
"290 153 LINE",
"201 153 LINE",
"201 591 LINE",
"24 591 LINE",
"24 0 LINE"
);
},
{
closed = 1;
nodes = (
"41 573 LINE",
"185 573 LINE",
"185 134 LINE",
"274 134 LINE",
"274 18 LINE",
"41 18 LINE"
);
},
{
closed = 1;
nodes = (
"266 27 LINE",
"266 125 LINE",
"177 125 LINE",
"177 564 LINE",
"49 564 LINE",
"49 27 LINE"
);
},
{
closed = 1;
nodes = (
"127 737 LINE",
"253 737 LINE",
"138 658 LINE",
"41 658 LINE"
);
},
{
closed = 1;
nodes = (
"135 665 LINE",
"232 731 LINE",
"130 731 LINE",
"58 665 LINE"
);
},
{
closed = 1;
nodes = (
"144 646 LINE",
"297 750 LINE",
"120 750 LINE",
"6 646 LINE"
);
}
);
userData = {
assembly = "PUSHW[ ]	/* 4 values pushed */\0121 6 0 4 \012CALL[ ]	/* CallFunction */\012PUSHW[ ]	/* 3 values pushed */\01219 0 1 \012SRP1[ ]	/* SetRefPoint1 */\012SRP2[ ]	/* SetRefPoint2 */\012IP[ ]	/* InterpolatePts */\012PUSHW[ ]	/* 1 value pushed */\01219 \012MDAP[1]	/* MoveDirectAbsPt */\012PUSHW[ ]	/* 2 values pushed */\01221 5 \012MIRP[10100]	/* MoveIndirectRelPt */\012SVTCA[0]	/* SetFreedomAndProjectionVectorToAxis */\012PUSHW[ ]	/* 4 values pushed */\0123 3 4 4 \012CALL[ ]	/* CallFunction */\012PUSHW[ ]	/* 4 values pushed */\01220 2 18 4 \012CALL[ ]	/* CallFunction */\012PUSHW[ ]	/* 1 value pushed */\01220 \012SRP0[ ]	/* SetRefPoint0 */\012PUSHW[ ]	/* 1 value pushed */\01222 \012MDRP[10000]	/* MoveDirectRelPt */\012PUSHW[ ]	/* 1 value pushed */\01222 \012MDAP[1]	/* MoveDirectAbsPt */\012PUSHW[ ]	/* 1 value pushed */\01218 \012SRP0[ ]	/* SetRefPoint0 */\012PUSHW[ ]	/* 1 value pushed */\01224 \012MDRP[10000]	/* MoveDirectRelPt */\012PUSHW[ ]	/* 1 value pushed */\01224 \012MDAP[1]	/* MoveDirectAbsPt */\012IUP[0]	/* InterpolateUntPts */\012IUP[1]	/* InterpolateUntPts */";
};
width = 314;
}
);
note = Lacute;
rightKerningGroup = L;
unicode = 0139;
},
{
color = 11;
glyphname = Lcaron;
lastChange = "2021-11-22 23:10:22 +0000";
layers = (
{
layerId = "04A772B0-FA71-43EE-BB43-CAC7F0EBD631";
paths = (
{
closed = 1;
nodes = (
"298 0 LINE",
"298 153 LINE",
"207 153 LINE",
"207 383 LINE",
"220.333 376.333 OFFCURVE",
"228.333 374 OFFCURVE",
"235 374 CURVE SMOOTH",
"292.968 374 OFFCURVE",
"337.803 464.752 OFFCURVE",
"335 518 CURVE SMOOTH",
"335 555.333 OFFCURVE",
"317 591 OFFCURVE",
"265 591 CURVE SMOOTH",
"238.333 591 OFFCURVE",
"217.667 580.333 OFFCURVE",
"207 563 CURVE",
"207 591 LINE",
"25 591 LINE",
"25 0 LINE"
);
},
{
closed = 1;
nodes = (
"42 573 LINE",
"190 573 LINE",
"190 134 LINE",
"281 134 LINE",
"281 18 LINE",
"42 18 LINE"
);
},
{
closed = 1;
nodes = (
"273 27 LINE",
"273 125 LINE",
"182 125 LINE",
"182 564 LINE",
"50 564 LINE",
"50 27 LINE"
);
},
{
closed = 1;
nodes = (
"207 488 LINE",
"209 484 OFFCURVE",
"212 480.667 OFFCURVE",
"216 478 CURVE",
"217.333 476 OFFCURVE",
"218.667 474.333 OFFCURVE",
"220 473 CURVE SMOOTH",
"223 469 LINE",
"221.667 461.667 OFFCURVE",
"216.333 452.333 OFFCURVE",
"207 441 CURVE"
);
},
{
closed = 1;
nodes = (
"227 392 OFFCURVE",
"216.667 395 OFFCURVE",
"198 407 CURVE",
"220.667 421.667 OFFCURVE",
"238.667 449 OFFCURVE",
"240 469 CURVE SMOOTH",
"240 478.333 OFFCURVE",
"234.667 483.333 OFFCURVE",
"228 490 CURVE SMOOTH",
"218.667 498 OFFCURVE",
"212 506.667 OFFCURVE",
"212 524 CURVE SMOOTH",
"212 550.667 OFFCURVE",
"230.333 573 OFFCURVE",
"265 573 CURVE SMOOTH",
"303.667 573 OFFCURVE",
"318 546 OFFCURVE",
"318 518 CURVE SMOOTH",
"320.747 471.299 OFFCURVE",
"282.835 392 OFFCURVE",
"235 392 CURVE SMOOTH"
);
},
{
closed = 1;
nodes = (
"278.864 401 OFFCURVE",
"312.872 474.923 OFFCURVE",
"310 518 CURVE SMOOTH",
"310 540.667 OFFCURVE",
"298.333 564 OFFCURVE",
"265 564 CURVE SMOOTH",
"235.667 564 OFFCURVE",
"220 546.667 OFFCURVE",
"220 524 CURVE SMOOTH",
"220 501.127 OFFCURVE",
"248 491.873 OFFCURVE",
"248 469 CURVE SMOOTH",
"246.667 446.333 OFFCURVE",
"231.333 419 OFFCURVE",
"214 407 CURVE",
"220.667 401.667 OFFCURVE",
"228.333 401 OFFCURVE",
"235 401 CURVE SMOOTH"
);
}
);
userData = {
assembly = "PUSHW[ ]	/* 1 value pushed */\01286 \012MDAP[1]	/* MoveDirectAbsPt */\012PUSHW[ ]	/* 1 value pushed */\01211 \012MDAP[1]	/* MoveDirectAbsPt */\012PUSHW[ ]	/* 1 value pushed */\01286 \012SRP0[ ]	/* SetRefPoint0 */\012PUSHW[ ]	/* 1 value pushed */\0120 \012MDRP[10000]	/* MoveDirectRelPt */\012PUSHW[ ]	/* 1 value pushed */\0120 \012MDAP[1]	/* MoveDirectAbsPt */\012PUSHW[ ]	/* 2 values pushed */\0121 6 \012MIRP[10100]	/* MoveIndirectRelPt */\012NPUSHW[ ]	/* 9 values pushed */\0129 11 25 11 41 11 57 11 4 \012DELTAP1[ ]	/* DeltaExceptionP1 */\012PUSHW[ ]	/* 1 value pushed */\01211 \012SRP0[ ]	/* SetRefPoint0 */\012PUSHW[ ]	/* 2 values pushed */\01217 6 \012MIRP[10100]	/* MoveIndirectRelPt */\012PUSHW[ ]	/* 1 value pushed */\01211 \012SRP0[ ]	/* SetRefPoint0 */\012PUSHW[ ]	/* 1 value pushed */\01225 \012MDRP[10000]	/* MoveDirectRelPt */\012PUSHW[ ]	/* 1 value pushed */\01225 \012MDAP[1]	/* MoveDirectAbsPt */\012PUSHW[ ]	/* 3 values pushed */\01231 0 17 \012SRP1[ ]	/* SetRefPoint1 */\012SRP2[ ]	/* SetRefPoint2 */\012IP[ ]	/* InterpolatePts */\012PUSHW[ ]	/* 3 values pushed */\01259 0 17 \012SRP1[ ]	/* SetRefPoint1 */\012SRP2[ ]	/* SetRefPoint2 */\012IP[ ]	/* InterpolatePts */\012PUSHW[ ]	/* 3 values pushed */\01273 0 17 \012SRP1[ ]	/* SetRefPoint1 */\012SRP2[ ]	/* SetRefPoint2 */\012IP[ ]	/* InterpolatePts */\012PUSHW[ ]	/* 3 values pushed */\01278 0 17 \012SRP1[ ]	/* SetRefPoint1 */\012SRP2[ ]	/* SetRefPoint2 */\012IP[ ]	/* InterpolatePts */\012PUSHW[ ]	/* 1 value pushed */\01211 \012SRP0[ ]	/* SetRefPoint0 */\012PUSHW[ ]	/* 1 value pushed */\01280 \012MDRP[10000]	/* MoveDirectRelPt */\012PUSHW[ ]	/* 1 value pushed */\01280 \012MDAP[1]	/* MoveDirectAbsPt */\012PUSHW[ ]	/* 1 value pushed */\01211 \012SRP0[ ]	/* SetRefPoint0 */\012PUSHW[ ]	/* 1 value pushed */\01283 \012MDRP[10000]	/* MoveDirectRelPt */\012PUSHW[ ]	/* 1 value pushed */\01283 \012MDAP[1]	/* MoveDirectAbsPt */\012PUSHW[ ]	/* 3 values pushed */\01285 0 17 \012SRP1[ ]	/* SetRefPoint1 */\012SRP2[ ]	/* SetRefPoint2 */\012IP[ ]	/* InterpolatePts */\012PUSHW[ ]	/* 1 value pushed */\01217 \012SRP0[ ]	/* SetRefPoint0 */\012PUSHW[ ]	/* 1 value pushed */\01287 \012MDRP[11100]	/* MoveDirectRelPt */\012SVTCA[0]	/* SetFreedomAndProjectionVectorToAxis */\012PUSHW[ ]	/* 4 values pushed */\0123 3 4 4 \012CALL[ ]	/* CallFunction */\012PUSHW[ ]	/* 3 values pushed */\01225 22 3 \012CALL[ ]	/* CallFunction */\012IUP[0]	/* InterpolateUntPts */\012IUP[1]	/* InterpolateUntPts */";
};
width = 350;
}
);
note = Lcaron;
unicode = 013D;
},
{
color = 11;
glyphname = Lslash;
lastChange = "2021-11-22 23:10:22 +0000";
layers = (
{
layerId = "04A772B0-FA71-43EE-BB43-CAC7F0EBD631";
paths = (
{
closed = 1;
nodes = (
"333 0 LINE",
"333 152 LINE",
"241 152 LINE",
"241 214 LINE",
"293 239 LINE",
"293 356 LINE",
"241 331 LINE",
"241 585 LINE",
"59 585 LINE",
"59 244 LINE",
"15 223 LINE",
"15 106 LINE",
"59 126 LINE",
"59 0 LINE"
);
},
{
closed = 1;
nodes = (
"76 155 LINE",
"32 133 LINE",
"32 211 LINE",
"76 232 LINE",
"76 567 LINE",
"224 567 LINE",
"224 304 LINE",
"232.667 308 OFFCURVE",
"241.667 312 OFFCURVE",
"251 316 CURVE SMOOTH",
"276 327 LINE",
"276 251 LINE",
"224 226 LINE",
"224 134 LINE",
"316 134 LINE",
"316 18 LINE",
"76 18 LINE"
);
},
{
closed = 1;
nodes = (
"308 27 LINE",
"308 125 LINE",
"216 125 LINE",
"216 231 LINE",
"267 257 LINE",
"267 314 LINE",
"216 289 LINE",
"216 558 LINE",
"84 558 LINE",
"84 226 LINE",
"40 205 LINE",
"40 147 LINE",
"84 168 LINE",
"84 27 LINE"
);
}
);
userData = {
assembly = "SVTCA[0]	/* SetFreedomAndProjectionVectorToAxis */\012PUSHW[ ]	/* 1 value pushed */\0129 \012MDAP[1]	/* MoveDirectAbsPt */\012PUSHW[ ]	/* 4 values pushed */\0122 3 3 4 \012CALL[ ]	/* CallFunction */\012PUSHW[ ]	/* 3 values pushed */\01236 3 2 \012SRP1[ ]	/* SetRefPoint1 */\012SRP2[ ]	/* SetRefPoint2 */\012IP[ ]	/* InterpolatePts */\012IUP[0]	/* InterpolateUntPts */\012IUP[1]	/* InterpolateUntPts */";
};
width = 361;
}
);
note = Lslash;
unicode = 0141;
},
{
glyphname = M;
lastChange = "2021-11-22 23:10:22 +0000";
layers = (
{
layerId = "04A772B0-FA71-43EE-BB43-CAC7F0EBD631";
paths = (
{
closed = 1;
nodes = (
"516 0 LINE",
"516 591 LINE",
"286 591 LINE",
"271 483 LINE",
"256 591 LINE",
"26 591 LINE",
"26 0 LINE"
);
},
{
closed = 1;
nodes = (
"44 573 LINE",
"241 573 LINE",
"271 357 LINE",
"302 573 LINE",
"498 573 LINE",
"498 18 LINE",
"357 18 LINE",
"357 255 LINE",
"327 18 LINE",
"216 18 LINE",
"186 255 LINE",
"186 18 LINE",
"44 18 LINE"
);
},
{
closed = 1;
nodes = (
"177 27 LINE",
"177 401 LINE",
"224 27 LINE",
"318 27 LINE",
"366 401 LINE",
"366 27 LINE",
"490 27 LINE",
"490 564 LINE",
"310 564 LINE",
"271 290 LINE",
"233 564 LINE",
"53 564 LINE",
"53 27 LINE"
);
}
);
userData = {
assembly = "SVTCA[0]	/* SetFreedomAndProjectionVectorToAxis */\012PUSHW[ ]	/* 1 value pushed */\0121 \012MDAP[1]	/* MoveDirectAbsPt */\012PUSHW[ ]	/* 1 value pushed */\0128 \012MDAP[1]	/* MoveDirectAbsPt */\012PUSHW[ ]	/* 1 value pushed */\01211 \012MDAP[1]	/* MoveDirectAbsPt */\012IUP[0]	/* InterpolateUntPts */\012IUP[1]	/* InterpolateUntPts */";
};
width = 549;
}
);
note = M;
unicode = 004D;
},
{
glyphname = N;
lastChange = "2021-11-22 23:10:22 +0000";
layers = (
{
layerId = "04A772B0-FA71-43EE-BB43-CAC7F0EBD631";
paths = (
{
closed = 1;
nodes = (
"195 0 LINE",
"195 63 LINE",
"212 0 LINE",
"374 0 LINE",
"374 591 LINE",
"205 591 LINE",
"205 527 LINE",
"188 591 LINE",
"25 591 LINE",
"25 0 LINE"
);
},
{
closed = 1;
nodes = (
"42 573 LINE",
"176 573 LINE",
"222 384 LINE",
"222 573 LINE",
"357 573 LINE",
"357 18 LINE",
"225 18 LINE",
"178 184 LINE",
"178 18 LINE",
"42 18 LINE"
);
},
{
closed = 1;
nodes = (
"170 27 LINE",
"170 250 LINE",
"232 27 LINE",
"349 27 LINE",
"349 564 LINE",
"230 564 LINE",
"230 314 LINE",
"169 564 LINE",
"51 564 LINE",
"51 27 LINE"
);
}
);
userData = {
assembly = "PUSHW[ ]	/* 4 values pushed */\01224 6 3 4 \012CALL[ ]	/* CallFunction */\012PUSHW[ ]	/* 3 values pushed */\0120 3 24 \012SRP1[ ]	/* SetRefPoint1 */\012SRP2[ ]	/* SetRefPoint2 */\012IP[ ]	/* InterpolatePts */\012PUSHW[ ]	/* 3 values pushed */\01219 3 24 \012SRP1[ ]	/* SetRefPoint1 */\012SRP2[ ]	/* SetRefPoint2 */\012IP[ ]	/* InterpolatePts */\012PUSHW[ ]	/* 1 value pushed */\01224 \012SRP0[ ]	/* SetRefPoint0 */\012PUSHW[ ]	/* 1 value pushed */\01220 \012MDRP[10000]	/* MoveDirectRelPt */\012PUSHW[ ]	/* 1 value pushed */\01220 \012MDAP[1]	/* MoveDirectAbsPt */\012SVTCA[0]	/* SetFreedomAndProjectionVectorToAxis */\012PUSHW[ ]	/* 1 value pushed */\0121 \012MDAP[1]	/* MoveDirectAbsPt */\012PUSHW[ ]	/* 1 value pushed */\0128 \012MDAP[1]	/* MoveDirectAbsPt */\012IUP[0]	/* InterpolateUntPts */\012IUP[1]	/* InterpolateUntPts */";
};
width = 408;
}
);
note = N;
unicode = 004E;
},
{
color = 11;
glyphname = Nacute;
lastChange = "2021-11-22 23:10:22 +0000";
layers = (
{
layerId = "04A772B0-FA71-43EE-BB43-CAC7F0EBD631";
paths = (
{
closed = 1;
nodes = (
"195 0 LINE",
"195 63 LINE",
"212 0 LINE",
"374 0 LINE",
"374 591 LINE",
"205 591 LINE",
"205 527 LINE",
"188 591 LINE",
"25 591 LINE",
"25 0 LINE"
);
},
{
closed = 1;
nodes = (
"42 573 LINE",
"176 573 LINE",
"222 384 LINE",
"222 573 LINE",
"357 573 LINE",
"357 18 LINE",
"225 18 LINE",
"178 184 LINE",
"178 18 LINE",
"42 18 LINE"
);
},
{
closed = 1;
nodes = (
"170 27 LINE",
"170 250 LINE",
"232 27 LINE",
"349 27 LINE",
"349 564 LINE",
"230 564 LINE",
"230 314 LINE",
"169 564 LINE",
"51 564 LINE",
"51 27 LINE"
);
},
{
closed = 1;
nodes = (
"178 737 LINE",
"304 737 LINE",
"189 658 LINE",
"92 658 LINE"
);
},
{
closed = 1;
nodes = (
"186 665 LINE",
"283 731 LINE",
"181 731 LINE",
"109 665 LINE"
);
},
{
closed = 1;
nodes = (
"195 646 LINE",
"348 750 LINE",
"171 750 LINE",
"57 646 LINE"
);
}
);
userData = {
assembly = "PUSHW[ ]	/* 4 values pushed */\01230 6 3 4 \012CALL[ ]	/* CallFunction */\012PUSHW[ ]	/* 3 values pushed */\0120 3 30 \012SRP1[ ]	/* SetRefPoint1 */\012SRP2[ ]	/* SetRefPoint2 */\012IP[ ]	/* InterpolatePts */\012PUSHW[ ]	/* 3 values pushed */\01231 3 30 \012SRP1[ ]	/* SetRefPoint1 */\012SRP2[ ]	/* SetRefPoint2 */\012IP[ ]	/* InterpolatePts */\012PUSHW[ ]	/* 1 value pushed */\01231 \012MDAP[1]	/* MoveDirectAbsPt */\012PUSHW[ ]	/* 2 values pushed */\01233 5 \012MIRP[10100]	/* MoveIndirectRelPt */\012PUSHW[ ]	/* 3 values pushed */\0125 31 33 \012SRP1[ ]	/* SetRefPoint1 */\012SRP2[ ]	/* SetRefPoint2 */\012IP[ ]	/* InterpolatePts */\012PUSHW[ ]	/* 3 values pushed */\01214 31 33 \012SRP1[ ]	/* SetRefPoint1 */\012SRP2[ ]	/* SetRefPoint2 */\012IP[ ]	/* InterpolatePts */\012PUSHW[ ]	/* 3 values pushed */\01219 3 30 \012SRP1[ ]	/* SetRefPoint1 */\012SRP2[ ]	/* SetRefPoint2 */\012IP[ ]	/* InterpolatePts */\012PUSHW[ ]	/* 3 values pushed */\01220 31 33 \012SRP1[ ]	/* SetRefPoint1 */\012SRP2[ ]	/* SetRefPoint2 */\012IP[ ]	/* InterpolatePts */\012PUSHW[ ]	/* 3 values pushed */\01225 31 33 \012SRP1[ ]	/* SetRefPoint1 */\012SRP2[ ]	/* SetRefPoint2 */\012IP[ ]	/* InterpolatePts */\012PUSHW[ ]	/* 3 values pushed */\01236 3 30 \012SRP1[ ]	/* SetRefPoint1 */\012SRP2[ ]	/* SetRefPoint2 */\012IP[ ]	/* InterpolatePts */\012PUSHW[ ]	/* 3 values pushed */\01239 3 30 \012SRP1[ ]	/* SetRefPoint1 */\012SRP2[ ]	/* SetRefPoint2 */\012IP[ ]	/* InterpolatePts */\012SVTCA[0]	/* SetFreedomAndProjectionVectorToAxis */\012PUSHW[ ]	/* 1 value pushed */\0121 \012MDAP[1]	/* MoveDirectAbsPt */\012PUSHW[ ]	/* 1 value pushed */\0128 \012MDAP[1]	/* MoveDirectAbsPt */\012PUSHW[ ]	/* 4 values pushed */\01232 2 30 4 \012CALL[ ]	/* CallFunction */\012PUSHW[ ]	/* 1 value pushed */\01232 \012SRP0[ ]	/* SetRefPoint0 */\012PUSHW[ ]	/* 1 value pushed */\01234 \012MDRP[10000]	/* MoveDirectRelPt */\012PUSHW[ ]	/* 1 value pushed */\01234 \012MDAP[1]	/* MoveDirectAbsPt */\012PUSHW[ ]	/* 1 value pushed */\01230 \012SRP0[ ]	/* SetRefPoint0 */\012PUSHW[ ]	/* 1 value pushed */\01236 \012MDRP[10000]	/* MoveDirectRelPt */\012PUSHW[ ]	/* 1 value pushed */\01236 \012MDAP[1]	/* MoveDirectAbsPt */\012IUP[0]	/* InterpolateUntPts */\012IUP[1]	/* InterpolateUntPts */";
};
width = 408;
}
);
note = Nacute;
unicode = 0143;
},
{
color = 11;
glyphname = Ncaron;
lastChange = "2021-11-22 23:10:22 +0000";
layers = (
{
layerId = "04A772B0-FA71-43EE-BB43-CAC7F0EBD631";
paths = (
{
closed = 1;
nodes = (
"195 0 LINE",
"195 63 LINE",
"212 0 LINE",
"374 0 LINE",
"374 591 LINE",
"205 591 LINE",
"205 527 LINE",
"188 591 LINE",
"25 591 LINE",
"25 0 LINE"
);
},
{
closed = 1;
nodes = (
"42 573 LINE",
"176 573 LINE",
"222 384 LINE",
"222 573 LINE",
"357 573 LINE",
"357 18 LINE",
"225 18 LINE",
"178 184 LINE",
"178 18 LINE",
"42 18 LINE"
);
},
{
closed = 1;
nodes = (
"170 27 LINE",
"170 250 LINE",
"232 27 LINE",
"349 27 LINE",
"349 564 LINE",
"230 564 LINE",
"230 314 LINE",
"169 564 LINE",
"51 564 LINE",
"51 27 LINE"
);
},
{
closed = 1;
nodes = (
"242 633 LINE",
"379 750 LINE",
"230 750 LINE",
"199 718 LINE",
"167 750 LINE",
"20 750 LINE",
"156 633 LINE"
);
},
{
closed = 1;
nodes = (
"58 737 LINE",
"159 737 LINE",
"199 695 LINE",
"238 737 LINE",
"342 737 LINE",
"235 646 LINE",
"164 646 LINE"
);
},
{
closed = 1;
nodes = (
"231 653 LINE",
"323 730 LINE",
"242 730 LINE",
"199 684 LINE",
"155 730 LINE",
"77 730 LINE",
"167 653 LINE"
);
}
);
userData = {
assembly = "PUSHW[ ]	/* 4 values pushed */\01224 6 3 4 \012CALL[ ]	/* CallFunction */\012PUSHW[ ]	/* 3 values pushed */\0120 3 24 \012SRP1[ ]	/* SetRefPoint1 */\012SRP2[ ]	/* SetRefPoint2 */\012IP[ ]	/* InterpolatePts */\012PUSHW[ ]	/* 3 values pushed */\01231 3 24 \012SRP1[ ]	/* SetRefPoint1 */\012SRP2[ ]	/* SetRefPoint2 */\012IP[ ]	/* InterpolatePts */\012PUSHW[ ]	/* 1 value pushed */\01231 \012MDAP[1]	/* MoveDirectAbsPt */\012PUSHW[ ]	/* 2 values pushed */\01235 5 \012MIRP[10100]	/* MoveIndirectRelPt */\012PUSHW[ ]	/* 3 values pushed */\0125 31 35 \012SRP1[ ]	/* SetRefPoint1 */\012SRP2[ ]	/* SetRefPoint2 */\012IP[ ]	/* InterpolatePts */\012PUSHW[ ]	/* 3 values pushed */\01214 31 35 \012SRP1[ ]	/* SetRefPoint1 */\012SRP2[ ]	/* SetRefPoint2 */\012IP[ ]	/* InterpolatePts */\012PUSHW[ ]	/* 3 values pushed */\01219 3 24 \012SRP1[ ]	/* SetRefPoint1 */\012SRP2[ ]	/* SetRefPoint2 */\012IP[ ]	/* InterpolatePts */\012PUSHW[ ]	/* 1 value pushed */\01224 \012SRP0[ ]	/* SetRefPoint0 */\012PUSHW[ ]	/* 1 value pushed */\01220 \012MDRP[10000]	/* MoveDirectRelPt */\012PUSHW[ ]	/* 1 value pushed */\01220 \012MDAP[1]	/* MoveDirectAbsPt */\012PUSHW[ ]	/* 3 values pushed */\01242 3 24 \012SRP1[ ]	/* SetRefPoint1 */\012SRP2[ ]	/* SetRefPoint2 */\012IP[ ]	/* InterpolatePts */\012PUSHW[ ]	/* 1 value pushed */\01235 \012SRP0[ ]	/* SetRefPoint0 */\012PUSHW[ ]	/* 1 value pushed */\01252 \012MDRP[11100]	/* MoveDirectRelPt */\012SVTCA[0]	/* SetFreedomAndProjectionVectorToAxis */\012PUSHW[ ]	/* 1 value pushed */\0121 \012MDAP[1]	/* MoveDirectAbsPt */\012PUSHW[ ]	/* 1 value pushed */\0128 \012MDAP[1]	/* MoveDirectAbsPt */\012PUSHW[ ]	/* 4 values pushed */\01232 2 30 4 \012CALL[ ]	/* CallFunction */\012PUSHW[ ]	/* 1 value pushed */\01232 \012SRP0[ ]	/* SetRefPoint0 */\012PUSHW[ ]	/* 1 value pushed */\01234 \012MDRP[10000]	/* MoveDirectRelPt */\012PUSHW[ ]	/* 1 value pushed */\01230 \012SRP0[ ]	/* SetRefPoint0 */\012PUSHW[ ]	/* 1 value pushed */\01237 \012MDRP[10000]	/* MoveDirectRelPt */\012PUSHW[ ]	/* 1 value pushed */\01237 \012MDAP[1]	/* MoveDirectAbsPt */\012PUSHW[ ]	/* 1 value pushed */\01232 \012SRP0[ ]	/* SetRefPoint0 */\012PUSHW[ ]	/* 1 value pushed */\01238 \012MDRP[10000]	/* MoveDirectRelPt */\012PUSHW[ ]	/* 1 value pushed */\01238 \012MDAP[1]	/* MoveDirectAbsPt */\012PUSHW[ ]	/* 1 value pushed */\01232 \012SRP0[ ]	/* SetRefPoint0 */\012PUSHW[ ]	/* 1 value pushed */\01241 \012MDRP[10000]	/* MoveDirectRelPt */\012PUSHW[ ]	/* 1 value pushed */\01241 \012MDAP[1]	/* MoveDirectAbsPt */\012IUP[0]	/* InterpolateUntPts */\012IUP[1]	/* InterpolateUntPts */";
};
width = 408;
}
);
note = Ncaron;
unicode = 0147;
},
{
glyphname = Eng;
lastChange = "2021-11-22 23:10:22 +0000";
layers = (
{
layerId = "04A772B0-FA71-43EE-BB43-CAC7F0EBD631";
paths = (
{
closed = 1;
nodes = (
"322.85 -233 OFFCURVE",
"374 -193.044 OFFCURVE",
"374 -56 CURVE SMOOTH",
"374 608 LINE",
"205 608 LINE",
"205 542 LINE",
"188 608 LINE",
"25 608 LINE",
"25 0 LINE",
"187 0 LINE",
"187 -59 LINE SMOOTH",
"187 -73.667 OFFCURVE",
"184.667 -76 OFFCURVE",
"174 -76 CURVE SMOOTH",
"123 -76 LINE",
"123 -230 LINE",
"157.667 -232.667 OFFCURVE",
"185.667 -233 OFFCURVE",
"195 -233 CURVE SMOOTH"
);
},
{
closed = 1;
nodes = (
"159.667 -215 OFFCURVE",
"149.667 -214.333 OFFCURVE",
"141 -213 CURVE",
"141 -94 LINE",
"174 -94 LINE SMOOTH",
"199.333 -94 OFFCURVE",
"205 -88.333 OFFCURVE",
"205 -59 CURVE SMOOTH",
"205 94 LINE",
"178 190 LINE",
"178 19 LINE",
"42 19 LINE",
"42 589 LINE",
"176 589 LINE",
"222 395 LINE",
"222 589 LINE",
"357 589 LINE",
"357 -56 LINE SMOOTH",
"357 -177.727 OFFCURVE",
"310.782 -215 OFFCURVE",
"195 -215 CURVE SMOOTH",
"171 -215 LINE SMOOTH"
);
},
{
closed = 1;
nodes = (
"195 -205 LINE SMOOTH",
"306.987 -205 OFFCURVE",
"349 -171.938 OFFCURVE",
"349 -56 CURVE SMOOTH",
"349 580 LINE",
"230 580 LINE",
"230 323 LINE",
"169 580 LINE",
"51 580 LINE",
"51 28 LINE",
"170 28 LINE",
"170 257 LINE",
"213 97 LINE",
"213 -59 LINE SMOOTH",
"213 -95 OFFCURVE",
"206 -104 OFFCURVE",
"174 -104 CURVE SMOOTH",
"149 -104 LINE",
"149 -204 LINE",
"153.667 -204.667 OFFCURVE",
"161.333 -205 OFFCURVE",
"172 -205 CURVE SMOOTH"
);
}
);
userData = {
assembly = "PUSHW[ ]	/* 4 values pushed */\01235 6 8 4 \012CALL[ ]	/* CallFunction */\012PUSHW[ ]	/* 1 value pushed */\01235 \012SRP0[ ]	/* SetRefPoint0 */\012PUSHW[ ]	/* 1 value pushed */\0126 \012MDRP[10000]	/* MoveDirectRelPt */\012PUSHW[ ]	/* 1 value pushed */\0126 \012MDAP[1]	/* MoveDirectAbsPt */\012PUSHW[ ]	/* 1 value pushed */\01235 \012SRP0[ ]	/* SetRefPoint0 */\012PUSHW[ ]	/* 1 value pushed */\01210 \012MDRP[10000]	/* MoveDirectRelPt */\012PUSHW[ ]	/* 1 value pushed */\01210 \012MDAP[1]	/* MoveDirectAbsPt */\012PUSHW[ ]	/* 1 value pushed */\01235 \012SRP0[ ]	/* SetRefPoint0 */\012PUSHW[ ]	/* 1 value pushed */\01238 \012MDRP[10000]	/* MoveDirectRelPt */\012PUSHW[ ]	/* 1 value pushed */\01238 \012MDAP[1]	/* MoveDirectAbsPt */\012PUSHW[ ]	/* 1 value pushed */\0128 \012SRP0[ ]	/* SetRefPoint0 */\012PUSHW[ ]	/* 2 values pushed */\01251 6 \012MIRP[10100]	/* MoveIndirectRelPt */\012PUSHW[ ]	/* 3 values pushed */\01239 8 51 \012SRP1[ ]	/* SetRefPoint1 */\012SRP2[ ]	/* SetRefPoint2 */\012IP[ ]	/* InterpolatePts */\012SVTCA[0]	/* SetFreedomAndProjectionVectorToAxis */\012PUSHW[ ]	/* 1 value pushed */\0127 \012MDAP[1]	/* MoveDirectAbsPt */\012IUP[0]	/* InterpolateUntPts */\012IUP[1]	/* InterpolateUntPts */";
};
width = 408;
}
);
note = Eng;
unicode = 014A;
},
{
color = 11;
glyphname = Ntilde;
lastChange = "2021-11-22 23:10:22 +0000";
layers = (
{
layerId = "04A772B0-FA71-43EE-BB43-CAC7F0EBD631";
paths = (
{
closed = 1;
nodes = (
"195 0 LINE",
"195 63 LINE",
"212 0 LINE",
"374 0 LINE",
"374 591 LINE",
"205 591 LINE",
"205 527 LINE",
"188 591 LINE",
"25 591 LINE",
"25 0 LINE"
);
},
{
closed = 1;
nodes = (
"42 573 LINE",
"176 573 LINE",
"222 384 LINE",
"222 573 LINE",
"357 573 LINE",
"357 18 LINE",
"225 18 LINE",
"178 184 LINE",
"178 18 LINE",
"42 18 LINE"
);
},
{
closed = 1;
nodes = (
"170 27 LINE",
"170 250 LINE",
"232 27 LINE",
"349 27 LINE",
"349 564 LINE",
"230 564 LINE",
"230 314 LINE",
"169 564 LINE",
"51 564 LINE",
"51 27 LINE"
);
},
{
closed = 1;
nodes = (
"281.072 631.121 OFFCURVE",
"326 677.915 OFFCURVE",
"326 743 CURVE",
"243 743 LINE",
"239 726.5 LINE SMOOTH",
"237.667 721.5 OFFCURVE",
"236 719 OFFCURVE",
"234 719 CURVE SMOOTH",
"230.667 719 OFFCURVE",
"226.5 720 OFFCURVE",
"221.5 722 CURVE SMOOTH",
"206 728 LINE SMOOTH",
"191.333 734.667 OFFCURVE",
"171 742.333 OFFCURVE",
"151 745 CURVE SMOOTH",
"95 749 OFFCURVE",
"61 700 OFFCURVE",
"61 636 CURVE",
"143 636 LINE",
"143 642.667 OFFCURVE",
"143.333 648.833 OFFCURVE",
"144 654.5 CURVE SMOOTH",
"144.667 660.167 OFFCURVE",
"145.333 663 OFFCURVE",
"146 663 CURVE SMOOTH",
"156.667 661.667 OFFCURVE",
"168 656.333 OFFCURVE",
"180 651 CURVE SMOOTH",
"196 643 OFFCURVE",
"212.333 634 OFFCURVE",
"235 634 CURVE SMOOTH"
);
},
{
closed = 1;
nodes = (
"217.333 647 OFFCURVE",
"203.667 655.333 OFFCURVE",
"189 662 CURVE SMOOTH",
"174.333 668.667 OFFCURVE",
"161.667 674.667 OFFCURVE",
"147 676 CURVE SMOOTH",
"136.333 677.333 OFFCURVE",
"128.333 663.667 OFFCURVE",
"127 649 CURVE",
"77 649 LINE",
"77 698.333 OFFCURVE",
"103.333 734.667 OFFCURVE",
"150 732 CURVE SMOOTH",
"166 730.667 OFFCURVE",
"184.667 723.667 OFFCURVE",
"198 717 CURVE SMOOTH",
"208.667 711.667 OFFCURVE",
"223.667 706.333 OFFCURVE",
"233 705 CURVE SMOOTH",
"250.333 703.667 OFFCURVE",
"254.333 716.667 OFFCURVE",
"257 730 CURVE",
"310 730 LINE",
"310 680.264 OFFCURVE",
"272.896 644.162 OFFCURVE",
"236 647 CURVE SMOOTH"
);
},
{
closed = 1;
nodes = (
"270.189 653 OFFCURVE",
"302 678.489 OFFCURVE",
"302 723 CURVE",
"264 723 LINE",
"261.333 711 OFFCURVE",
"257.333 697.667 OFFCURVE",
"232 699 CURVE SMOOTH",
"207.395 699 OFFCURVE",
"178.177 723.569 OFFCURVE",
"149 726 CURVE SMOOTH",
"109 728.667 OFFCURVE",
"86 697.667 OFFCURVE",
"86 655 CURVE",
"119 655 LINE",
"120.333 669.667 OFFCURVE",
"132 684.333 OFFCURVE",
"148 683 CURVE SMOOTH",
"164 681.667 OFFCURVE",
"178.833 676.667 OFFCURVE",
"192.5 668 CURVE SMOOTH",
"206.167 659.333 OFFCURVE",
"220.667 654.333 OFFCURVE",
"236 653 CURVE SMOOTH"
);
}
);
userData = {
assembly = "PUSHW[ ]	/* 4 values pushed */\01224 6 3 4 \012CALL[ ]	/* CallFunction */\012PUSHW[ ]	/* 3 values pushed */\0120 3 24 \012SRP1[ ]	/* SetRefPoint1 */\012SRP2[ ]	/* SetRefPoint2 */\012IP[ ]	/* InterpolatePts */\012PUSHW[ ]	/* 3 values pushed */\01219 3 24 \012SRP1[ ]	/* SetRefPoint1 */\012SRP2[ ]	/* SetRefPoint2 */\012IP[ ]	/* InterpolatePts */\012PUSHW[ ]	/* 1 value pushed */\01224 \012SRP0[ ]	/* SetRefPoint0 */\012PUSHW[ ]	/* 1 value pushed */\01220 \012MDRP[10000]	/* MoveDirectRelPt */\012PUSHW[ ]	/* 1 value pushed */\01220 \012MDAP[1]	/* MoveDirectAbsPt */\012PUSHW[ ]	/* 3 values pushed */\01242 3 24 \012SRP1[ ]	/* SetRefPoint1 */\012SRP2[ ]	/* SetRefPoint2 */\012IP[ ]	/* InterpolatePts */\012PUSHW[ ]	/* 1 value pushed */\01242 \012MDAP[1]	/* MoveDirectAbsPt */\012PUSHW[ ]	/* 1 value pushed */\01241 \012MDRP[11100]	/* MoveDirectRelPt */\012SVTCA[0]	/* SetFreedomAndProjectionVectorToAxis */\012PUSHW[ ]	/* 1 value pushed */\0121 \012MDAP[1]	/* MoveDirectAbsPt */\012PUSHW[ ]	/* 1 value pushed */\0128 \012MDAP[1]	/* MoveDirectAbsPt */\012PUSHW[ ]	/* 4 values pushed */\01245 2 38 4 \012CALL[ ]	/* CallFunction */\012PUSHW[ ]	/* 4 values pushed */\01260 2 35 4 \012CALL[ ]	/* CallFunction */\012PUSHW[ ]	/* 1 value pushed */\01245 \012SRP0[ ]	/* SetRefPoint0 */\012PUSHW[ ]	/* 1 value pushed */\01230 \012MDRP[10000]	/* MoveDirectRelPt */\012PUSHW[ ]	/* 1 value pushed */\01230 \012MDAP[1]	/* MoveDirectAbsPt */\012PUSHW[ ]	/* 1 value pushed */\01235 \012SRP0[ ]	/* SetRefPoint0 */\012PUSHW[ ]	/* 1 value pushed */\01241 \012MDRP[10000]	/* MoveDirectRelPt */\012PUSHW[ ]	/* 1 value pushed */\01241 \012MDAP[1]	/* MoveDirectAbsPt */\012PUSHW[ ]	/* 1 value pushed */\01235 \012SRP0[ ]	/* SetRefPoint0 */\012PUSHW[ ]	/* 2 values pushed */\01250 2 \012MIRP[10100]	/* MoveIndirectRelPt */\012PUSHW[ ]	/* 1 value pushed */\01260 \012SRP0[ ]	/* SetRefPoint0 */\012PUSHW[ ]	/* 1 value pushed */\01253 \012MDRP[10000]	/* MoveDirectRelPt */\012PUSHW[ ]	/* 1 value pushed */\01253 \012MDAP[1]	/* MoveDirectAbsPt */\012PUSHW[ ]	/* 1 value pushed */\01245 \012SRP0[ ]	/* SetRefPoint0 */\012PUSHW[ ]	/* 1 value pushed */\01254 \012MDRP[10000]	/* MoveDirectRelPt */\012PUSHW[ ]	/* 1 value pushed */\01254 \012MDAP[1]	/* MoveDirectAbsPt */\012PUSHW[ ]	/* 1 value pushed */\01250 \012SRP0[ ]	/* SetRefPoint0 */\012PUSHW[ ]	/* 1 value pushed */\01257 \012MDRP[10000]	/* MoveDirectRelPt */\012PUSHW[ ]	/* 1 value pushed */\01257 \012MDAP[1]	/* MoveDirectAbsPt */\012PUSHW[ ]	/* 1 value pushed */\01245 \012SRP0[ ]	/* SetRefPoint0 */\012PUSHW[ ]	/* 1 value pushed */\01263 \012MDRP[10000]	/* MoveDirectRelPt */\012PUSHW[ ]	/* 1 value pushed */\01263 \012MDAP[1]	/* MoveDirectAbsPt */\012PUSHW[ ]	/* 1 value pushed */\01235 \012SRP0[ ]	/* SetRefPoint0 */\012PUSHW[ ]	/* 1 value pushed */\01266 \012MDRP[10000]	/* MoveDirectRelPt */\012PUSHW[ ]	/* 1 value pushed */\01266 \012MDAP[1]	/* MoveDirectAbsPt */\012PUSHW[ ]	/* 1 value pushed */\01235 \012SRP0[ ]	/* SetRefPoint0 */\012PUSHW[ ]	/* 1 value pushed */\01276 \012MDRP[10000]	/* MoveDirectRelPt */\012PUSHW[ ]	/* 1 value pushed */\01276 \012MDAP[1]	/* MoveDirectAbsPt */\012PUSHW[ ]	/* 1 value pushed */\01245 \012SRP0[ ]	/* SetRefPoint0 */\012PUSHW[ ]	/* 1 value pushed */\012106 \012MDRP[10000]	/* MoveDirectRelPt */\012PUSHW[ ]	/* 1 value pushed */\012106 \012MDAP[1]	/* MoveDirectAbsPt */\012IUP[0]	/* InterpolateUntPts */\012IUP[1]	/* InterpolateUntPts */";
};
width = 408;
}
);
note = Ntilde;
unicode = 00D1;
},
{
glyphname = O;
lastChange = "2021-11-22 23:10:22 +0000";
layers = (
{
layerId = "04A772B0-FA71-43EE-BB43-CAC7F0EBD631";
paths = (
{
closed = 1;
nodes = (
"324.635 -11 OFFCURVE",
"378 28.708 OFFCURVE",
"378 186 CURVE SMOOTH",
"378 451 LINE SMOOTH",
"378 560.333 OFFCURVE",
"312.333 601 OFFCURVE",
"203 601 CURVE SMOOTH",
"92.529 601 OFFCURVE",
"21 559.266 OFFCURVE",
"21 451 CURVE SMOOTH",
"21 185 LINE SMOOTH",
"21 29.06 OFFCURVE",
"80.694 -11 OFFCURVE",
"203 -11 CURVE SMOOTH"
);
},
{
closed = 1;
nodes = (
"92.964 7 OFFCURVE",
"38 44.019 OFFCURVE",
"38 185 CURVE SMOOTH",
"38 451 LINE SMOOTH",
"38 547.028 OFFCURVE",
"104.283 583 OFFCURVE",
"203 583 CURVE SMOOTH",
"301.667 583 OFFCURVE",
"361 547 OFFCURVE",
"361 451 CURVE SMOOTH",
"361 186 LINE SMOOTH",
"361 44.419 OFFCURVE",
"312.044 7 OFFCURVE",
"203 7 CURVE SMOOTH"
);
},
{
closed = 1;
nodes = (
"307.982 16 OFFCURVE",
"352 50.752 OFFCURVE",
"352 186 CURVE SMOOTH",
"352 451 LINE SMOOTH",
"352 541.667 OFFCURVE",
"296.333 574 OFFCURVE",
"203 574 CURVE SMOOTH",
"108.333 574 OFFCURVE",
"47 540.333 OFFCURVE",
"47 451 CURVE SMOOTH",
"47 185 LINE SMOOTH",
"47 50.346 OFFCURVE",
"97 16 OFFCURVE",
"203 16 CURVE SMOOTH"
);
},
{
closed = 1;
nodes = (
"198.333 100 OFFCURVE",
"194.833 102 OFFCURVE",
"192.5 106 CURVE SMOOTH",
"190.167 110 OFFCURVE",
"189 117 OFFCURVE",
"189 127 CURVE SMOOTH",
"189 458 LINE SMOOTH",
"189 468.667 OFFCURVE",
"190.167 475.833 OFFCURVE",
"192.5 479.5 CURVE SMOOTH",
"194.833 483.167 OFFCURVE",
"198.333 485 OFFCURVE",
"203 485 CURVE SMOOTH",
"206.333 485 OFFCURVE",
"209.333 483.167 OFFCURVE",
"212 479.5 CURVE SMOOTH",
"214.667 475.833 OFFCURVE",
"216 468.667 OFFCURVE",
"216 458 CURVE SMOOTH",
"216 127 LINE SMOOTH",
"216 117 OFFCURVE",
"214.667 110 OFFCURVE",
"212 106 CURVE SMOOTH",
"209.333 102 OFFCURVE",
"206.333 100 OFFCURVE",
"203 100 CURVE SMOOTH"
);
},
{
closed = 1;
nodes = (
"206.333 109 OFFCURVE",
"208 115 OFFCURVE",
"208 127 CURVE SMOOTH",
"208 458 LINE SMOOTH",
"208 465.333 OFFCURVE",
"207.5 470.167 OFFCURVE",
"206.5 472.5 CURVE SMOOTH",
"205.5 474.833 OFFCURVE",
"204.333 476 OFFCURVE",
"203 476 CURVE SMOOTH",
"201 476 OFFCURVE",
"199.5 474.833 OFFCURVE",
"198.5 472.5 CURVE SMOOTH",
"197.5 470.167 OFFCURVE",
"197 465.333 OFFCURVE",
"197 458 CURVE SMOOTH",
"197 127 LINE SMOOTH",
"197 115 OFFCURVE",
"199 109 OFFCURVE",
"203 109 CURVE SMOOTH"
);
}
);
width = 408;
}
);
note = O;
unicode = 004F;
},
{
color = 11;
glyphname = Oacute;
lastChange = "2021-11-22 23:10:22 +0000";
layers = (
{
layerId = "04A772B0-FA71-43EE-BB43-CAC7F0EBD631";
paths = (
{
closed = 1;
nodes = (
"324.635 -11 OFFCURVE",
"378 28.708 OFFCURVE",
"378 186 CURVE SMOOTH",
"378 451 LINE SMOOTH",
"378 560.333 OFFCURVE",
"312.333 601 OFFCURVE",
"203 601 CURVE SMOOTH",
"92.529 601 OFFCURVE",
"21 559.266 OFFCURVE",
"21 451 CURVE SMOOTH",
"21 185 LINE SMOOTH",
"21 29.06 OFFCURVE",
"80.694 -11 OFFCURVE",
"203 -11 CURVE SMOOTH"
);
},
{
closed = 1;
nodes = (
"92.964 7 OFFCURVE",
"38 44.019 OFFCURVE",
"38 185 CURVE SMOOTH",
"38 451 LINE SMOOTH",
"38 547.028 OFFCURVE",
"104.283 583 OFFCURVE",
"203 583 CURVE SMOOTH",
"301.667 583 OFFCURVE",
"361 547 OFFCURVE",
"361 451 CURVE SMOOTH",
"361 186 LINE SMOOTH",
"361 44.419 OFFCURVE",
"312.044 7 OFFCURVE",
"203 7 CURVE SMOOTH"
);
},
{
closed = 1;
nodes = (
"307.982 16 OFFCURVE",
"352 50.752 OFFCURVE",
"352 186 CURVE SMOOTH",
"352 451 LINE SMOOTH",
"352 541.667 OFFCURVE",
"296.333 574 OFFCURVE",
"203 574 CURVE SMOOTH",
"108.333 574 OFFCURVE",
"47 540.333 OFFCURVE",
"47 451 CURVE SMOOTH",
"47 185 LINE SMOOTH",
"47 50.346 OFFCURVE",
"97 16 OFFCURVE",
"203 16 CURVE SMOOTH"
);
},
{
closed = 1;
nodes = (
"198.333 100 OFFCURVE",
"194.833 102 OFFCURVE",
"192.5 106 CURVE SMOOTH",
"190.167 110 OFFCURVE",
"189 117 OFFCURVE",
"189 127 CURVE SMOOTH",
"189 458 LINE SMOOTH",
"189 468.667 OFFCURVE",
"190.167 475.833 OFFCURVE",
"192.5 479.5 CURVE SMOOTH",
"194.833 483.167 OFFCURVE",
"198.333 485 OFFCURVE",
"203 485 CURVE SMOOTH",
"206.333 485 OFFCURVE",
"209.333 483.167 OFFCURVE",
"212 479.5 CURVE SMOOTH",
"214.667 475.833 OFFCURVE",
"216 468.667 OFFCURVE",
"216 458 CURVE SMOOTH",
"216 127 LINE SMOOTH",
"216 117 OFFCURVE",
"214.667 110 OFFCURVE",
"212 106 CURVE SMOOTH",
"209.333 102 OFFCURVE",
"206.333 100 OFFCURVE",
"203 100 CURVE SMOOTH"
);
},
{
closed = 1;
nodes = (
"206.333 109 OFFCURVE",
"208 115 OFFCURVE",
"208 127 CURVE SMOOTH",
"208 458 LINE SMOOTH",
"208 465.333 OFFCURVE",
"207.5 470.167 OFFCURVE",
"206.5 472.5 CURVE SMOOTH",
"205.5 474.833 OFFCURVE",
"204.333 476 OFFCURVE",
"203 476 CURVE SMOOTH",
"201 476 OFFCURVE",
"199.5 474.833 OFFCURVE",
"198.5 472.5 CURVE SMOOTH",
"197.5 470.167 OFFCURVE",
"197 465.333 OFFCURVE",
"197 458 CURVE SMOOTH",
"197 127 LINE SMOOTH",
"197 115 OFFCURVE",
"199 109 OFFCURVE",
"203 109 CURVE SMOOTH"
);
},
{
closed = 1;
nodes = (
"175 736 LINE",
"301 736 LINE",
"186 657 LINE",
"89 657 LINE"
);
},
{
closed = 1;
nodes = (
"183 664 LINE",
"280 730 LINE",
"178 730 LINE",
"106 664 LINE"
);
},
{
closed = 1;
nodes = (
"192 645 LINE",
"345 749 LINE",
"168 749 LINE",
"54 645 LINE"
);
}
);
userData = {
assembly = "PUSHW[ ]	/* 4 values pushed */\01286 6 58 4 \012CALL[ ]	/* CallFunction */\012PUSHW[ ]	/* 3 values pushed */\01293 58 86 \012SRP1[ ]	/* SetRefPoint1 */\012SRP2[ ]	/* SetRefPoint2 */\012IP[ ]	/* InterpolatePts */\012PUSHW[ ]	/* 1 value pushed */\01293 \012MDAP[1]	/* MoveDirectAbsPt */\012PUSHW[ ]	/* 1 value pushed */\0125 \012MDRP[10000]	/* MoveDirectRelPt */\012PUSHW[ ]	/* 1 value pushed */\0125 \012MDAP[1]	/* MoveDirectAbsPt */\012PUSHW[ ]	/* 1 value pushed */\01293 \012SRP0[ ]	/* SetRefPoint0 */\012PUSHW[ ]	/* 2 values pushed */\01291 6 \012MIRP[10100]	/* MoveIndirectRelPt */\012PUSHW[ ]	/* 1 value pushed */\01228 \012MDRP[10000]	/* MoveDirectRelPt */\012PUSHW[ ]	/* 1 value pushed */\01228 \012MDAP[1]	/* MoveDirectAbsPt */\012PUSHW[ ]	/* 3 values pushed */\01285 58 86 \012SRP1[ ]	/* SetRefPoint1 */\012SRP2[ ]	/* SetRefPoint2 */\012IP[ ]	/* InterpolatePts */\012PUSHW[ ]	/* 1 value pushed */\01285 \012MDAP[1]	/* MoveDirectAbsPt */\012PUSHW[ ]	/* 2 values pushed */\01287 5 \012MIRP[10100]	/* MoveIndirectRelPt */\012PUSHW[ ]	/* 3 values pushed */\01290 58 86 \012SRP1[ ]	/* SetRefPoint1 */\012SRP2[ ]	/* SetRefPoint2 */\012IP[ ]	/* InterpolatePts */\012SVTCA[0]	/* SetFreedomAndProjectionVectorToAxis */\012PUSHW[ ]	/* 4 values pushed */\01286 2 84 4 \012CALL[ ]	/* CallFunction */\012PUSHW[ ]	/* 1 value pushed */\01286 \012SRP0[ ]	/* SetRefPoint0 */\012PUSHW[ ]	/* 1 value pushed */\01288 \012MDRP[10000]	/* MoveDirectRelPt */\012PUSHW[ ]	/* 1 value pushed */\01288 \012MDAP[1]	/* MoveDirectAbsPt */\012PUSHW[ ]	/* 1 value pushed */\01284 \012SRP0[ ]	/* SetRefPoint0 */\012PUSHW[ ]	/* 1 value pushed */\01290 \012MDRP[10000]	/* MoveDirectRelPt */\012PUSHW[ ]	/* 1 value pushed */\01290 \012MDAP[1]	/* MoveDirectAbsPt */\012IUP[0]	/* InterpolateUntPts */\012IUP[1]	/* InterpolateUntPts */";
};
width = 408;
}
);
note = Oacute;
unicode = 00D3;
},
{
color = 11;
glyphname = Ocircumflex;
lastChange = "2021-11-22 23:10:22 +0000";
layers = (
{
layerId = "04A772B0-FA71-43EE-BB43-CAC7F0EBD631";
paths = (
{
closed = 1;
nodes = (
"324.635 -11 OFFCURVE",
"378 28.708 OFFCURVE",
"378 186 CURVE SMOOTH",
"378 451 LINE SMOOTH",
"378 560.333 OFFCURVE",
"312.333 601 OFFCURVE",
"203 601 CURVE SMOOTH",
"92.529 601 OFFCURVE",
"21 559.266 OFFCURVE",
"21 451 CURVE SMOOTH",
"21 185 LINE SMOOTH",
"21 29.06 OFFCURVE",
"80.694 -11 OFFCURVE",
"203 -11 CURVE SMOOTH"
);
},
{
closed = 1;
nodes = (
"92.964 7 OFFCURVE",
"38 44.019 OFFCURVE",
"38 185 CURVE SMOOTH",
"38 451 LINE SMOOTH",
"38 547.028 OFFCURVE",
"104.283 583 OFFCURVE",
"203 583 CURVE SMOOTH",
"301.667 583 OFFCURVE",
"361 547 OFFCURVE",
"361 451 CURVE SMOOTH",
"361 186 LINE SMOOTH",
"361 44.419 OFFCURVE",
"312.044 7 OFFCURVE",
"203 7 CURVE SMOOTH"
);
},
{
closed = 1;
nodes = (
"307.982 16 OFFCURVE",
"352 50.752 OFFCURVE",
"352 186 CURVE SMOOTH",
"352 451 LINE SMOOTH",
"352 541.667 OFFCURVE",
"296.333 574 OFFCURVE",
"203 574 CURVE SMOOTH",
"108.333 574 OFFCURVE",
"47 540.333 OFFCURVE",
"47 451 CURVE SMOOTH",
"47 185 LINE SMOOTH",
"47 50.346 OFFCURVE",
"97 16 OFFCURVE",
"203 16 CURVE SMOOTH"
);
},
{
closed = 1;
nodes = (
"198.333 100 OFFCURVE",
"194.833 102 OFFCURVE",
"192.5 106 CURVE SMOOTH",
"190.167 110 OFFCURVE",
"189 117 OFFCURVE",
"189 127 CURVE SMOOTH",
"189 458 LINE SMOOTH",
"189 468.667 OFFCURVE",
"190.167 475.833 OFFCURVE",
"192.5 479.5 CURVE SMOOTH",
"194.833 483.167 OFFCURVE",
"198.333 485 OFFCURVE",
"203 485 CURVE SMOOTH",
"206.333 485 OFFCURVE",
"209.333 483.167 OFFCURVE",
"212 479.5 CURVE SMOOTH",
"214.667 475.833 OFFCURVE",
"216 468.667 OFFCURVE",
"216 458 CURVE SMOOTH",
"216 127 LINE SMOOTH",
"216 117 OFFCURVE",
"214.667 110 OFFCURVE",
"212 106 CURVE SMOOTH",
"209.333 102 OFFCURVE",
"206.333 100 OFFCURVE",
"203 100 CURVE SMOOTH"
);
},
{
closed = 1;
nodes = (
"206.333 109 OFFCURVE",
"208 115 OFFCURVE",
"208 127 CURVE SMOOTH",
"208 458 LINE SMOOTH",
"208 465.333 OFFCURVE",
"207.5 470.167 OFFCURVE",
"206.5 472.5 CURVE SMOOTH",
"205.5 474.833 OFFCURVE",
"204.333 476 OFFCURVE",
"203 476 CURVE SMOOTH",
"201 476 OFFCURVE",
"199.5 474.833 OFFCURVE",
"198.5 472.5 CURVE SMOOTH",
"197.5 470.167 OFFCURVE",
"197 465.333 OFFCURVE",
"197 458 CURVE SMOOTH",
"197 127 LINE SMOOTH",
"197 115 OFFCURVE",
"199 109 OFFCURVE",
"203 109 CURVE SMOOTH"
);
},
{
closed = 1;
nodes = (
"170 632 LINE",
"202 664 LINE",
"233 632 LINE",
"382 632 LINE",
"245 749 LINE",
"159 749 LINE",
"23 632 LINE"
);
},
{
closed = 1;
nodes = (
"167 736 LINE",
"238 736 LINE",
"345 645 LINE",
"241 645 LINE",
"202 687 LINE",
"162 645 LINE",
"61 645 LINE"
);
},
{
closed = 1;
nodes = (
"158 652 LINE",
"202 698 LINE",
"245 652 LINE",
"326 652 LINE",
"234 729 LINE",
"170 729 LINE",
"80 652 LINE"
);
}
);
userData = {
assembly = "PUSHW[ ]	/* 4 values pushed */\01285 5 89 4 \012CALL[ ]	/* CallFunction */\012PUSHW[ ]	/* 1 value pushed */\01285 \012SRP0[ ]	/* SetRefPoint0 */\012PUSHW[ ]	/* 1 value pushed */\012106 \012MDRP[11100]	/* MoveDirectRelPt */\012SVTCA[0]	/* SetFreedomAndProjectionVectorToAxis */\012PUSHW[ ]	/* 4 values pushed */\01284 2 86 4 \012CALL[ ]	/* CallFunction */\012PUSHW[ ]	/* 1 value pushed */\01286 \012SRP0[ ]	/* SetRefPoint0 */\012PUSHW[ ]	/* 1 value pushed */\01288 \012MDRP[10000]	/* MoveDirectRelPt */\012PUSHW[ ]	/* 1 value pushed */\01284 \012SRP0[ ]	/* SetRefPoint0 */\012PUSHW[ ]	/* 1 value pushed */\01291 \012MDRP[10000]	/* MoveDirectRelPt */\012PUSHW[ ]	/* 1 value pushed */\01291 \012MDAP[1]	/* MoveDirectAbsPt */\012PUSHW[ ]	/* 1 value pushed */\01286 \012SRP0[ ]	/* SetRefPoint0 */\012PUSHW[ ]	/* 1 value pushed */\01292 \012MDRP[10000]	/* MoveDirectRelPt */\012PUSHW[ ]	/* 1 value pushed */\01292 \012MDAP[1]	/* MoveDirectAbsPt */\012PUSHW[ ]	/* 1 value pushed */\01286 \012SRP0[ ]	/* SetRefPoint0 */\012PUSHW[ ]	/* 1 value pushed */\01295 \012MDRP[10000]	/* MoveDirectRelPt */\012PUSHW[ ]	/* 1 value pushed */\01295 \012MDAP[1]	/* MoveDirectAbsPt */\012IUP[0]	/* InterpolateUntPts */\012IUP[1]	/* InterpolateUntPts */";
};
width = 408;
}
);
note = Ocircumflex;
unicode = 00D4;
},
